<svg xmlns="http://www.w3.org/2000/svg" xmlns:xlink="http://www.w3.org/1999/xlink" width="1080" zoomAndPan="magnify" viewBox="0 0 810 809.999993" height="1080" preserveAspectRatio="xMidYMid meet" version="1.0"><path fill="#325544" d="M 769.640625 360.679688 C 771.433594 313.453125 764.578125 266.273438 761.355469 219.210938 C 760.027344 205.921875 758.65625 191.234375 757.023438 178.039062 C 754.792969 170.425781 747.425781 166.5 741.8125 160.082031 C 741.929688 159.761719 742.046875 159.441406 742.164062 159.121094 C 741.8125 159.207031 741.449219 159.28125 741.082031 159.355469 C 740.953125 159.222656 740.835938 159.105469 740.703125 158.976562 C 740.410156 159.253906 740.105469 159.617188 739.652344 159.601562 C 741.578125 158.273438 743.371094 156.523438 744.933594 154.046875 C 740.703125 149.363281 734.679688 149.683594 729.414062 147.046875 C 721.65625 142.714844 714.132812 147.65625 706.082031 147.703125 C 706.082031 147.703125 662.371094 150.558594 662.371094 150.558594 C 650.789062 151.390625 639.253906 151.144531 627.617188 150.0625 C 596.304688 149.058594 564.84375 153.054688 533.460938 152.253906 C 495.21875 154.453125 456.964844 157.09375 418.707031 153.535156 C 333.390625 151.699219 248.070312 155.417969 162.78125 158.027344 C 140.03125 158.492188 106.660156 158.902344 84.070312 159.96875 C 73.742188 161.613281 64.875 169.445312 56.695312 175.746094 C 56.167969 175.660156 55.660156 175.574219 55.121094 175.515625 C 55.265625 177.308594 55.175781 178.824219 55.394531 180.152344 C 54.230469 177.207031 52.726562 174.375 50.6875 171.738281 C 45.101562 179.683594 45.683594 189.382812 42.941406 198.179688 C 38.566406 211.332031 43.730469 224.546875 44.109375 238.050781 C 45.230469 259.082031 48.117188 290.703125 49.476562 312.183594 C 53.003906 424.382812 56.167969 536.917969 53.921875 649.261719 C 54.054688 660.488281 67.253906 657.542969 74.851562 657.996094 C 127.152344 659.527344 179.320312 658.199219 231.488281 656.507812 C 268.140625 654.960938 304.324219 661.570312 341.339844 661.890625 C 417.789062 660.636719 494.082031 661.101562 570.839844 660.328125 C 632.035156 655.941406 696.308594 667.15625 752.328125 636.453125 C 753.550781 637.984375 755.257812 639.460938 757.78125 640.816406 C 762.347656 638.511719 762.726562 634.152344 765.644531 630.460938 C 770.414062 625.328125 765.933594 619.84375 766.3125 614.097656 C 766.3125 614.097656 765.6875 583.339844 765.6875 583.339844 C 770.398438 535.210938 768.109375 486.6875 767.261719 438.324219 C 770.367188 412.527344 771.214844 386.59375 769.640625 360.679688 Z M 733.660156 185.300781 C 739.027344 205.078125 740.0625 225.421875 742.164062 245.664062 C 744.992188 263.386719 747.910156 281.164062 748.84375 299.117188 C 751.015625 334.046875 747.472656 369.691406 748.535156 404.738281 C 748.652344 450.109375 750.007812 495.421875 751.964844 540.738281 C 750.125 565.648438 748.199219 590.601562 746.144531 615.511719 C 734.214844 608.453125 724.835938 598.535156 714.613281 589.421875 C 704.78125 582.027344 694.71875 574.761719 685.835938 566.171875 C 664.179688 544.691406 645.976562 519.925781 622.671875 499.871094 C 605.375 482.152344 585.582031 467.246094 566.332031 451.832031 C 553.601562 439.027344 542.179688 424.089844 528.105469 412.875 C 569.65625 367.472656 611.035156 321.839844 653.109375 276.875 C 678.734375 245.226562 713.96875 219.253906 733.339844 183.519531 C 733.410156 184.105469 733.5 184.703125 733.660156 185.300781 Z M 75.421875 182.019531 C 93.929688 186.496094 113.09375 179.917969 131.992188 180.371094 C 173.542969 180.488281 214.789062 175.105469 256.296875 173.910156 C 306.773438 172.507812 357.164062 176.214844 407.683594 174.769531 C 472.714844 174.097656 537.644531 171.300781 602.488281 166.835938 C 622.703125 167.15625 642.914062 167.769531 663.128906 167.070312 C 687.136719 166.867188 711.972656 171.242188 734.914062 162.007812 C 705.976562 178.636719 687.761719 206.59375 665.84375 230.921875 C 604.601562 295.792969 550.625 367.808594 483.40625 426.863281 C 416.316406 491.574219 364.746094 468.894531 302.367188 413.386719 C 253.058594 372.183594 201.167969 332.414062 159.632812 283 C 145.074219 267.367188 129.527344 250.417969 116.605469 233.445312 C 102.082031 214.628906 86.941406 194.605469 67.589844 180.457031 C 70.171875 181.011719 72.824219 181.597656 75.421875 182.019531 Z M 58.269531 190.625 C 57.816406 188.203125 57.261719 185.824219 56.5625 183.519531 C 63.34375 203.195312 67.222656 207.6875 81.910156 221.863281 C 94.875 236.828125 108.613281 252.097656 122.238281 266.375 C 144.566406 289.929688 163.628906 316.3125 188.378906 337.707031 C 214.992188 361.960938 241.230469 388.445312 269.570312 410.730469 C 266.054688 411.753906 261.519531 411.972656 259.199219 414.933594 C 251.367188 426.484375 240.894531 435.277344 231.253906 445.121094 C 219.851562 459.429688 207.863281 473.445312 194.136719 485.667969 C 167.636719 504.960938 146.125 530.703125 124.890625 555.496094 C 108.601562 578.378906 92.515625 600.984375 72.765625 621.054688 C 75.640625 542.546875 69.527344 464.167969 68.464844 385.734375 C 68.507812 360.664062 66.859375 335.605469 65.925781 310.566406 C 64.410156 270.53125 66.726562 229.988281 58.269531 190.625 Z M 690.429688 631.523438 C 575.695312 642.667969 459.71875 641.691406 344.460938 641.910156 C 257.667969 631.816406 169.957031 635.972656 82.886719 639.621094 C 89.464844 629.804688 94.453125 618.601562 104.238281 611.398438 C 118.195312 595.109375 131.191406 577.753906 144.390625 560.71875 C 153.929688 547.007812 168.996094 539.058594 180.253906 526.96875 C 190.257812 514.28125 203.9375 505.382812 214.441406 493.175781 C 227.785156 477.601562 243.054688 463.71875 257.710938 449.425781 C 264.054688 443.472656 271.128906 436.675781 277.488281 430.785156 C 279.96875 427.5625 278.464844 422.195312 278.625 417.996094 C 295.558594 431.484375 312.898438 445.371094 330.035156 458.613281 C 401.148438 513.054688 456.890625 485.257812 513.476562 427.867188 C 525.875 434.328125 537.921875 443.839844 546.367188 455.257812 C 565.3125 474.875 587.683594 491.265625 607.300781 510.285156 C 642.359375 556.167969 688.011719 592.496094 729.472656 632.488281 C 716.347656 631.800781 703.863281 630.125 690.429688 631.523438 Z M 750.738281 635.257812 C 750.941406 635.230469 751.160156 635.214844 751.378906 635.1875 C 751.496094 635.359375 751.613281 635.550781 751.730469 635.726562 C 751.394531 635.578125 751.074219 635.417969 750.738281 635.257812 Z M 750.738281 635.257812 " fill-opacity="1" fill-rule="nonzero"/></svg>