<svg xmlns="http://www.w3.org/2000/svg" xmlns:xlink="http://www.w3.org/1999/xlink" width="1080" zoomAndPan="magnify" viewBox="0 0 810 809.999993" height="1080" preserveAspectRatio="xMidYMid meet" version="1.0"><path fill="#fbf0da" d="M 477.207031 275.84375 C 434.042969 279.28125 412.203125 297.714844 414.636719 328.65625 C 417.464844 364.519531 450.960938 396.167969 508.035156 416.898438 C 543.285156 429.699219 579.625 431.65625 635.683594 423.761719 L 640.304688 423.109375 L 640.128906 423.695312 C 638.171875 430.1875 632.867188 439.390625 627.683594 445.285156 C 598.105469 478.90625 514.992188 474.503906 457.460938 436.273438 C 445.792969 428.523438 428.425781 413.558594 425.28125 408.554688 C 425.019531 408.140625 423.96875 406.90625 422.949219 405.808594 C 413.652344 395.847656 404.476562 379.53125 400.605469 366.082031 C 393.519531 341.492188 397.496094 320.144531 412.144531 304.089844 C 416.09375 299.761719 416.9375 297.140625 415.261719 294.421875 C 412.652344 290.207031 390.394531 282.871094 370.941406 279.820312 C 340.828125 275.09375 277.148438 275.59375 246.121094 280.800781 C 230.222656 283.46875 222.683594 286.511719 216.46875 292.777344 L 213.867188 295.398438 L 213.683594 294.410156 C 213.085938 291.207031 208.667969 290.808594 203.421875 293.472656 C 190.570312 300.003906 178.679688 311.011719 170.589844 323.871094 C 150.292969 356.132812 155.058594 388.296875 182.839844 406.5625 C 198.554688 416.890625 225.238281 425.886719 254.585938 430.753906 L 256.859375 431.132812 L 254.585938 431.328125 C 170.523438 438.433594 122.886719 431.632812 101.863281 409.507812 L 100.585938 408.160156 L 101.578125 408.332031 C 111.089844 409.957031 124.148438 408.144531 130.949219 404.253906 C 148.441406 394.242188 142 369.265625 120.800781 364.910156 C 101.644531 360.980469 85.347656 373.054688 85.261719 391.25 C 85.25 393.554688 85.160156 395.441406 85.0625 395.441406 C 84.21875 395.441406 73.636719 391.164062 67.484375 388.335938 C 40.324219 375.84375 29.117188 375.832031 16.277344 388.277344 C 1.1875 402.910156 -0.0859375 422.300781 12.90625 439.554688 C 14.109375 441.15625 16.367188 444.144531 17.917969 446.199219 C 26.570312 457.640625 27.566406 464.410156 21.800781 472.585938 C 19.191406 476.285156 13.304688 480.296875 6.960938 482.699219 C 3.085938 484.171875 2.132812 485.144531 2.132812 487.621094 C 2.132812 491.554688 5.238281 492.765625 10.3125 490.804688 C 31.777344 482.515625 39.789062 464.707031 29.667969 447.78125 C 28.234375 445.382812 27.160156 443.894531 21.425781 436.359375 C 12.507812 424.625 10.710938 417.621094 14.066406 407.609375 C 18.316406 394.917969 29.609375 386.355469 40.300781 387.707031 C 45.335938 388.339844 49.570312 389.863281 62.222656 395.585938 C 71.597656 399.824219 76.527344 401.804688 83.171875 404 L 88.496094 405.757812 L 89.648438 407.699219 C 100.105469 425.300781 124.511719 436.742188 160.109375 440.742188 C 185.914062 443.640625 210.261719 443.273438 262.683594 439.195312 C 301.808594 436.152344 314.691406 435.546875 353.039062 434.933594 C 400.050781 434.183594 413.984375 431.601562 422.507812 422.070312 L 424.171875 420.207031 L 427.886719 423.765625 C 454.378906 449.136719 488.367188 466.21875 525.839844 472.984375 C 550.195312 477.382812 577.191406 477.226562 596.136719 472.578125 C 623.042969 465.980469 641.929688 448.769531 649 424.421875 C 649.433594 422.9375 649.796875 421.699219 649.8125 421.667969 C 649.863281 421.550781 667.972656 418.722656 672.125 418.1875 C 689.738281 415.914062 699.898438 417.105469 706.6875 422.25 C 709.425781 424.328125 709.417969 424.335938 703.972656 424.195312 C 693.988281 423.933594 685.746094 425.566406 680.25 428.890625 C 669.152344 435.605469 669.398438 448.816406 680.722656 454.390625 C 696.4375 462.125 717.28125 452.566406 719.886719 436.429688 C 720.070312 435.292969 720.300781 434.371094 720.394531 434.371094 C 720.492188 434.371094 721.972656 434.558594 723.695312 434.78125 C 731.125 435.757812 738.804688 436.390625 749.550781 436.925781 C 772.273438 438.046875 777.140625 438.589844 784.105469 440.789062 C 801.9375 446.410156 802.363281 461.089844 785.320312 482.457031 C 774.558594 495.945312 749.671875 515.519531 730.382812 525.667969 C 727.046875 527.421875 725.824219 528.34375 725.824219 529.097656 C 725.824219 529.328125 725.695312 529.597656 725.542969 529.695312 C 725.382812 529.792969 725.253906 530.375 725.253906 530.992188 C 725.253906 531.609375 725.382812 532.109375 725.542969 532.109375 C 725.695312 532.109375 725.824219 532.308594 725.824219 532.550781 C 725.824219 533.519531 727.898438 534.949219 729.304688 534.949219 C 731.242188 534.949219 745.089844 527.25 754.46875 520.953125 C 790.253906 496.933594 809.980469 469.808594 805.84375 450.316406 C 804.15625 442.367188 797.277344 435.871094 787.054688 432.578125 C 779.949219 430.289062 775.726562 429.816406 750.828125 428.53125 C 736.75 427.804688 719.582031 426.015625 719.328125 425.25 C 718.796875 423.652344 716.648438 420.035156 715.316406 418.484375 C 706.460938 408.195312 691.601562 406.300781 659.429688 411.363281 C 655.492188 411.984375 652.097656 412.488281 651.878906 412.488281 C 651.5625 412.488281 651.535156 412.089844 651.738281 410.285156 C 652.167969 406.550781 651.800781 394.128906 651.144531 389.902344 C 646.554688 360.386719 628.03125 334.667969 594.695312 311.523438 C 564.890625 290.832031 535.621094 279.261719 505.050781 276.082031 C 501.160156 275.675781 481.410156 275.507812 477.207031 275.84375 M 497.378906 284.070312 C 527.382812 285.929688 556.300781 296.433594 586.03125 316.257812 C 590.625 319.320312 591.671875 320.058594 595.976562 323.242188 C 625.335938 344.988281 640.996094 369.660156 643.441406 398.003906 C 643.839844 402.628906 643.222656 413.433594 642.527344 414.039062 C 642.171875 414.34375 619.753906 417.226562 612.597656 417.886719 C 610.722656 418.058594 608.898438 418.261719 608.546875 418.332031 L 607.910156 418.46875 L 607.90625 413.84375 C 607.890625 387.207031 593.996094 364.683594 563.371094 341.671875 C 525.207031 312.988281 465.335938 297.519531 440.273438 309.867188 C 432.3125 313.789062 425.242188 321.773438 423.6875 328.589844 L 423.316406 330.234375 L 423.128906 328.667969 C 421.949219 318.859375 425.148438 308.363281 431.453125 301.328125 C 441.933594 289.648438 469.777344 282.355469 497.378906 284.070312 M 341.246094 285.460938 C 367.277344 286.996094 388.601562 291.160156 404.550781 297.835938 L 405.636719 298.285156 L 404.117188 300.054688 C 382.03125 325.761719 383.679688 366.789062 408.175781 401.125 C 409.570312 403.078125 410.714844 404.738281 410.714844 404.820312 C 410.714844 404.894531 409.535156 405.363281 408.089844 405.859375 C 406.644531 406.351562 402.523438 407.992188 398.925781 409.503906 C 384.992188 415.359375 379.574219 417.335938 371.351562 419.558594 C 335.449219 429.261719 293.148438 429.707031 248.761719 420.839844 C 184.621094 408.03125 159.4375 385.863281 168.46875 350.164062 C 172.460938 334.390625 185.707031 314.644531 196.671875 308.121094 C 196.855469 308.011719 196.363281 309.351562 195.582031 311.105469 C 187.425781 329.316406 189.511719 349.023438 201.1875 364.042969 C 215.136719 381.992188 240.554688 392.585938 278.738281 396.355469 C 284.730469 396.945312 310.339844 396.847656 316.8125 396.203125 C 340.445312 393.863281 365.207031 388.703125 379.179688 383.203125 C 386.390625 380.363281 388.84375 377.796875 388.835938 373.078125 C 388.828125 370.363281 388.921875 370.648438 385.4375 362.625 C 379.71875 349.445312 379.347656 337.496094 384.328125 326.714844 C 386.261719 322.527344 385.441406 319.222656 382.210938 318.175781 C 374.964844 315.835938 325.738281 315.910156 295.214844 318.308594 C 257.960938 321.238281 236.59375 325.863281 213.519531 335.984375 L 209.675781 337.671875 L 209.910156 335.085938 C 211.269531 320.199219 215.75 306.894531 221.835938 299.6875 C 229.296875 290.851562 251.140625 286.703125 298.769531 285.082031 C 304.4375 284.890625 336.367188 285.175781 341.246094 285.460938 M 205.699219 311.925781 C 202.460938 321.351562 200.089844 340.769531 201.769531 344.097656 C 204.019531 348.558594 206.734375 348.542969 217.070312 344.019531 C 241.414062 333.359375 265.234375 328.585938 307.007812 325.988281 C 329.46875 324.589844 367.023438 324.441406 374.25 325.722656 L 375.148438 325.882812 L 374.320312 328.328125 C 370.449219 339.78125 372.097656 354.722656 378.867188 369.527344 C 380.542969 373.191406 380.566406 372.957031 378.402344 373.988281 C 368.871094 378.515625 344.804688 384.191406 324.152344 386.773438 C 271.257812 393.386719 222.171875 380.660156 206.351562 356.230469 C 197.554688 342.648438 196.84375 328.726562 204.167969 313.636719 C 206.324219 309.195312 206.835938 308.625 205.699219 311.925781 M 466.835938 314.183594 C 530.628906 318.386719 596.519531 365.925781 599.835938 410.140625 C 600 412.371094 599.558594 418.660156 599.210938 419.007812 C 598.40625 419.8125 568.832031 420.316406 561.308594 419.648438 C 523.96875 416.347656 484.34375 401.382812 456.066406 379.898438 C 451.328125 376.300781 451.492188 376.664062 453.445312 374.105469 C 461.46875 363.601562 463.839844 340.210938 457.828125 330.886719 C 452.742188 322.992188 443.683594 319.59375 439.644531 324.066406 C 438.4375 325.402344 437.929688 326.867188 437.152344 331.304688 C 435.640625 339.925781 432.957031 341.835938 431.777344 335.128906 C 430.054688 325.367188 442.585938 315.503906 458.371094 314.203125 C 462.34375 313.875 462.160156 313.875 466.835938 314.183594 M 447.703125 332.476562 C 454.894531 337.96875 454.136719 358.546875 446.363281 368.960938 C 445.007812 370.777344 445.21875 370.800781 443.195312 368.632812 C 437.304688 362.339844 431.265625 353.539062 428.835938 347.699219 L 428.417969 346.699219 L 430.007812 347.511719 C 436.734375 350.941406 444.136719 344.320312 445.527344 333.640625 C 445.855469 331.097656 445.882812 331.085938 447.703125 332.476562 M 119.054688 373.40625 C 129.933594 376.308594 135.644531 385.871094 130.746094 392.984375 C 126 399.875 110.148438 402.40625 95.855469 398.554688 C 94.019531 398.0625 93.078125 392.445312 94.082031 387.96875 C 95.910156 379.808594 101.582031 374.652344 110.671875 372.890625 C 112.027344 372.625 117.355469 372.957031 119.054688 373.40625 M 417.445312 412.949219 C 417.546875 413.203125 417.289062 414.089844 416.878906 414.921875 C 414.605469 419.566406 405.167969 423.125 390.6875 424.808594 C 386.324219 425.316406 381.984375 425.625 382.589844 425.382812 C 382.824219 425.289062 385.203125 424.398438 387.875 423.40625 C 390.550781 422.414062 395.65625 420.367188 399.230469 418.867188 C 413.214844 412.976562 416.988281 411.75 417.445312 412.949219 M 708.886719 432.957031 C 711.914062 433.261719 711.761719 433.136719 711.332031 434.992188 C 708.734375 446.183594 694.015625 452.164062 683.894531 446.144531 C 676.949219 442.015625 681.886719 435.566406 693.699219 433.339844 C 698.347656 432.460938 702.847656 432.347656 708.886719 432.957031 " fill-opacity="1" fill-rule="evenodd"/></svg>