<svg xmlns="http://www.w3.org/2000/svg" xmlns:xlink="http://www.w3.org/1999/xlink" width="1080" zoomAndPan="magnify" viewBox="0 0 810 809.999993" height="1080" preserveAspectRatio="xMidYMid meet" version="1.0"><path fill="#053827" d="M 707.257812 433.257812 C 705.148438 440.132812 705.230469 447.074219 705.933594 454.152344 C 706.308594 457.960938 708.398438 459.625 711.414062 460.203125 C 717.621094 461.390625 723.875 461.796875 730.09375 459.722656 C 732.34375 458.972656 733.316406 458.039062 733.21875 455.527344 C 732.933594 448.210938 736.125 441.84375 739.292969 435.523438 C 739.730469 434.636719 740.609375 433.976562 742.042969 433.449219 C 741.972656 434.84375 741.972656 436.242188 741.8125 437.621094 C 741.292969 442.183594 740.496094 446.726562 740.226562 451.296875 C 739.851562 457.382812 742.285156 460.074219 748.324219 460.234375 C 751.277344 460.304688 754.285156 459.808594 757.195312 459.21875 C 763.101562 458.023438 764.777344 452.859375 765.421875 446.261719 C 765.820312 442.234375 765.855469 438.117188 766.753906 434.199219 C 767.328125 431.722656 769.203125 429.546875 770.488281 427.242188 L 771.289062 427.71875 C 770.992188 431.667969 770.539062 435.617188 770.464844 439.566406 C 770.433594 441.441406 770.953125 443.375 771.519531 445.191406 C 773.5625 451.710938 775.507812 452.902344 782.121094 451.910156 C 794.378906 450.074219 802.730469 438.011719 800.378906 425.789062 C 798.488281 415.941406 796.707031 406.074219 795.113281 396.171875 C 794.121094 390.066406 795.113281 384.019531 796.890625 378.152344 C 797.140625 377.339844 799.015625 376.40625 800.003906 376.535156 C 805.980469 377.300781 809.753906 382.054688 809.59375 388.207031 C 809.433594 394.296875 807.25 395.589844 802.246094 392.546875 C 803.984375 401.316406 805.875 410.054688 807.414062 418.855469 C 809.675781 431.804688 809.035156 444.410156 802.15625 456.109375 C 797.035156 464.820312 789.488281 469.871094 779.457031 470.972656 C 776.027344 471.347656 773.234375 469.648438 771.191406 466.902344 C 770.1875 465.554688 769.386719 464.039062 768.199219 462.109375 C 765.910156 469.71875 760.875 473.582031 753.542969 474.945312 C 746.542969 476.246094 740.074219 476.269531 735.207031 469.601562 C 729.144531 475.089844 721.9375 476.652344 714.0625 476.398438 C 705.8125 476.128906 700.324219 471.523438 699.109375 463.394531 C 698.847656 461.605469 698.574219 459.816406 698.296875 457.902344 C 681.421875 468.242188 662.6875 472.71875 643.511719 475.449219 C 630.292969 477.332031 616.945312 478.417969 603.625 479.574219 C 575.070312 482.046875 546.449219 481.328125 517.855469 480.746094 C 491.617188 480.210938 465.398438 478.886719 439.171875 477.792969 C 419.164062 476.957031 399.160156 475.855469 379.148438 475.011719 C 349.292969 473.742188 319.433594 471.9375 289.5625 471.539062 C 250.136719 471.003906 210.699219 471.609375 171.257812 471.722656 C 166.445312 471.738281 161.636719 471.722656 156.664062 471.722656 C 156.328125 476.429688 156.472656 480.96875 155.570312 485.285156 C 154.652344 489.691406 153.121094 494.078125 151.085938 498.09375 C 149.417969 501.386719 147.152344 501.746094 143.722656 500.144531 C 135.839844 496.464844 129.304688 491.382812 126.402344 482.703125 C 125.46875 479.902344 124.132812 479.566406 121.308594 480.898438 C 107.402344 487.449219 93.648438 494.390625 79.476562 500.335938 C 66.320312 505.847656 52.492188 509.429688 38.035156 509.070312 C 30.113281 508.878906 22.324219 507.570312 15.285156 503.464844 C 4.117188 496.945312 0.335938 487.984375 3.230469 475.320312 C 6.300781 461.902344 14.648438 452.40625 25.585938 444.800781 C 26.457031 444.203125 27.476562 443.8125 28.460938 443.390625 C 29.121094 443.101562 29.839844 442.941406 31.011719 443.152344 C 30.152344 444.234375 29.363281 445.375 28.429688 446.390625 C 21.902344 453.53125 15.886719 461.03125 11.832031 469.902344 C 9.007812 476.070312 9.988281 480.554688 15.101562 485.085938 C 21.328125 490.601562 28.882812 492.5 36.910156 493.136719 C 55.996094 494.671875 73.429688 488.421875 90.503906 481.203125 C 105.152344 475.003906 119.394531 467.828125 133.949219 461.390625 C 140.785156 458.367188 147.945312 456.453125 155.644531 456.53125 C 205.472656 457.042969 255.300781 457.113281 305.121094 457.886719 C 332.207031 458.308594 359.289062 459.835938 386.371094 460.855469 C 411.3125 461.796875 436.246094 463.066406 461.195312 463.601562 C 501.472656 464.460938 541.757812 465.386719 582.035156 465.253906 C 610.175781 465.15625 638.328125 463.097656 665.902344 456.992188 C 676.148438 454.726562 686.015625 450.714844 696.015625 447.378906 C 698.648438 446.5 700.355469 444.753906 700.839844 441.667969 C 701.207031 439.335938 702.390625 437.0625 703.539062 434.949219 C 704.097656 433.917969 705.429688 433.320312 706.417969 432.523438 C 706.699219 432.777344 706.976562 433.023438 707.25 433.28125 Z M 148.023438 471.179688 C 143.960938 472.335938 140.460938 473.335938 136.949219 474.332031 C 136.902344 474.730469 136.859375 475.121094 136.8125 475.519531 C 140.339844 478.320312 143.867188 481.121094 148.023438 484.433594 Z M 148.023438 471.179688 " fill-opacity="1" fill-rule="nonzero"/><path fill="#053827" d="M 694.859375 398.0625 C 690.523438 405.050781 685.148438 410.253906 677.113281 412.238281 C 661.871094 416.007812 649.625 407.191406 648.972656 391.566406 C 648.636719 383.5625 648.914062 375.539062 648.945312 367.519531 C 648.953125 364.671875 648.101562 362.308594 645.019531 360.351562 C 642.667969 363.679688 640.363281 366.96875 638.023438 370.230469 C 628.816406 383.101562 619.960938 396.242188 610.28125 408.746094 C 601.496094 420.105469 590.125 428.007812 575.667969 431.039062 C 561.019531 434.109375 546.664062 429.355469 539.371094 418.574219 C 535.480469 412.824219 533.820312 406.296875 533.324219 399.53125 C 532.304688 385.671875 534.472656 372.441406 542.300781 360.601562 C 543.855469 358.246094 545.8125 356.148438 547.589844 353.9375 C 547.847656 354.097656 548.101562 354.257812 548.355469 354.410156 C 547.199219 357.074219 546.066406 359.753906 544.886719 362.402344 C 541.597656 369.761719 538.71875 377.347656 538.464844 385.40625 C 537.9375 402.066406 542.722656 411.011719 560.246094 414.515625 C 578.109375 418.082031 592.648438 410.921875 604.664062 397.910156 C 615.523438 386.148438 624.761719 373.175781 633.578125 359.859375 C 635.996094 356.210938 638.644531 352.6875 641.519531 349.390625 C 644.304688 346.191406 647.0625 346.261719 650.03125 349.34375 C 654.019531 353.46875 655.679688 358.6875 655.878906 364.238281 C 656.105469 370.542969 655.9375 376.878906 655.679688 383.1875 C 655.347656 391.503906 659.941406 396.722656 668.304688 397.351562 C 678.507812 398.125 688.21875 394.046875 693.558594 382.488281 C 693.972656 381.585938 693.851562 380.421875 693.949219 379.375 C 694.5625 372.792969 695.03125 366.195312 695.855469 359.644531 C 696.085938 357.824219 697.339844 356.132812 698.121094 354.386719 C 698.433594 354.480469 698.734375 354.578125 699.046875 354.679688 C 699.046875 359.96875 698.765625 365.285156 699.125 370.550781 C 699.484375 375.855469 699.988281 381.242188 701.304688 386.363281 C 703.484375 394.839844 706.210938 395.371094 713.902344 394.046875 C 722.265625 392.613281 726.804688 387.234375 726.71875 378.664062 C 726.628906 370.214844 726.144531 361.765625 726.175781 353.324219 C 726.191406 348.96875 726.859375 344.601562 727.433594 340.269531 C 727.625 338.84375 728.136719 337.160156 729.109375 336.21875 C 729.902344 335.460938 731.96875 335.019531 732.835938 335.523438 C 737.058594 337.964844 738.886719 344.378906 736.953125 348.863281 C 736.785156 349.253906 736.675781 349.84375 736.371094 349.980469 C 732.734375 351.625 733.808594 354.863281 733.792969 357.664062 C 733.738281 365.914062 734.210938 374.1875 733.625 382.398438 C 733.269531 387.503906 731.96875 392.746094 730.050781 397.503906 C 725.917969 407.757812 715.449219 411.234375 706.507812 410.789062 C 702.46875 410.589844 699.996094 407.746094 698.023438 404.613281 C 696.789062 402.640625 695.964844 400.40625 694.855469 398.070312 Z M 694.859375 398.0625 " fill-opacity="1" fill-rule="nonzero"/><path fill="#053827" d="M 128.515625 357.464844 C 129.328125 354.074219 130.039062 351.082031 130.757812 348.089844 C 131.242188 348.066406 131.738281 348.050781 132.226562 348.027344 C 132.742188 349.503906 133.320312 350.960938 133.773438 352.453125 C 135.152344 356.9375 136.167969 357.640625 140.636719 356.714844 C 161.996094 352.261719 183.570312 352.453125 205.207031 353.4375 C 213.378906 353.800781 221.582031 353.5 229.910156 353.5 C 229.480469 353.261719 229.082031 353.019531 228.667969 352.8125 C 222.839844 349.925781 217.113281 346.820312 211.160156 344.21875 C 207.203125 342.488281 202.957031 341.363281 198.777344 340.207031 C 196.972656 339.710938 195.578125 340.238281 195.257812 342.679688 C 195.035156 344.378906 194.09375 346.128906 193.0625 347.546875 C 191.957031 349.078125 190.6875 348.632812 189.90625 346.949219 C 187.941406 342.710938 190.996094 330.742188 195.15625 328.925781 C 197.789062 327.777344 201.304688 327.65625 204.164062 328.277344 C 208.058594 329.125 211.917969 330.71875 215.40625 332.683594 C 228.125 339.816406 241.757812 344.714844 255.378906 349.695312 C 257.734375 350.554688 259.800781 351.167969 259.832031 354.21875 C 259.871094 358.09375 258.050781 361.949219 255.1875 362.5625 C 250.289062 363.609375 245.316406 364.863281 240.355469 364.949219 C 225.59375 365.226562 210.808594 365.285156 196.046875 364.863281 C 178.550781 364.359375 161.164062 364.886719 143.921875 368.035156 C 141.617188 368.460938 139.351562 369.394531 137.050781 369.449219 C 135.21875 369.488281 133.359375 368.546875 131.269531 367.980469 C 129.113281 370.519531 125.378906 370.253906 122.003906 370.886719 C 112.484375 372.664062 102.886719 374.09375 93.441406 376.191406 C 89.226562 377.125 85.308594 379.34375 81.238281 380.929688 C 79.460938 381.625 79.039062 382.488281 79.523438 384.570312 C 80.976562 390.738281 81.632812 397.082031 79.683594 403.230469 C 78.964844 405.488281 77.378906 408.394531 75.496094 409.066406 C 74.058594 409.574219 71.515625 407.070312 69.503906 405.839844 C 69.074219 405.578125 68.800781 405.058594 68.355469 404.53125 C 66.253906 407.40625 64.308594 410.261719 62.15625 412.957031 C 57.089844 419.300781 50.011719 418.957031 43.003906 418.28125 C 40.46875 418.03125 40.730469 416.222656 42.34375 414.976562 C 45.972656 412.160156 49.730469 409.503906 53.488281 406.847656 C 58.386719 403.390625 62.65625 399.386719 64.605469 393.539062 C 65.769531 390.035156 66.894531 386.445312 67.378906 382.796875 C 68.105469 377.308594 70.914062 373.527344 75.511719 370.828125 C 83.90625 365.90625 93.03125 362.96875 102.558594 361.375 C 110.339844 360.074219 118.191406 359.253906 126.007812 358.167969 C 127.046875 358.023438 128.035156 357.59375 128.523438 357.457031 Z M 128.515625 357.464844 " fill-opacity="1" fill-rule="nonzero"/><path fill="#053827" d="M 245.910156 392.546875 C 245.175781 393.570312 244.785156 394.207031 244.304688 394.773438 C 222.570312 420.824219 196.121094 439.519531 162.386719 446.445312 C 151.121094 448.757812 139.757812 449.167969 128.378906 446.152344 C 105.824219 440.183594 101.035156 409.441406 115.8125 395.722656 C 116.746094 394.855469 117.488281 393.777344 118.316406 392.796875 C 118.566406 392.964844 118.8125 393.128906 119.058594 393.296875 C 118.636719 394.105469 118.191406 394.902344 117.792969 395.714844 C 116.050781 399.257812 113.984375 402.679688 112.667969 406.367188 C 107.632812 420.464844 115.636719 432.425781 130.589844 434.039062 C 161.039062 437.324219 187.757812 427.992188 212.140625 410.507812 C 222.507812 403.082031 232.777344 395.515625 241.210938 385.796875 C 243.617188 383.019531 245.183594 383.363281 247.042969 386.667969 C 247.617188 387.6875 248.144531 388.75 248.796875 389.722656 C 251.476562 393.722656 255.808594 394.894531 260.320312 393.210938 C 268.351562 390.195312 272.0625 383.804688 272.589844 375.929688 C 273.820312 357.570312 274.527344 339.167969 275.199219 320.777344 C 275.34375 316.765625 274.296875 312.726562 274.136719 308.683594 C 274.089844 307.4375 275.152344 306.144531 275.710938 304.875 C 276.660156 305.90625 278.277344 306.832031 278.460938 307.980469 C 279.605469 315.207031 281.113281 322.46875 281.214844 329.746094 C 281.40625 343.875 281.113281 358.039062 280.296875 372.152344 C 279.890625 379.222656 278.351562 386.316406 276.460938 393.164062 C 275.550781 396.449219 273.132812 399.746094 270.53125 402.050781 C 263.902344 407.921875 255.027344 406.214844 249.476562 398.453125 C 248.308594 396.824219 247.394531 395.015625 245.917969 392.554688 Z M 245.910156 392.546875 " fill-opacity="1" fill-rule="nonzero"/><path fill="#053827" d="M 400.378906 370.367188 C 395.554688 370.582031 391.363281 370.695312 387.191406 371.035156 C 386.449219 371.101562 385.699219 372.050781 385.09375 372.730469 C 371.769531 387.59375 355.101562 394.105469 335.328125 391.886719 C 323.320312 390.539062 318.253906 381.296875 322.15625 369.203125 C 323.734375 364.304688 326.039062 359.84375 330.589844 357.089844 C 332.617188 355.859375 334.992188 355.191406 337.5 354.863281 C 335.832031 356.621094 334.027344 358.261719 332.535156 360.152344 C 330.628906 362.570312 328.714844 365.054688 327.285156 367.757812 C 325.332031 371.460938 326.464844 374.332031 330.230469 376.199219 C 335.972656 379.054688 342.191406 379.367188 348.421875 379.191406 C 359.847656 378.871094 369.886719 374.554688 379.003906 367.949219 C 380.976562 366.519531 382.453125 364.429688 384.382812 362.945312 C 385.507812 362.078125 387.335938 361.023438 388.417969 361.375 C 393.589844 363.042969 398.289062 361.503906 402.015625 358.566406 C 406.179688 355.277344 410.730469 353.402344 415.667969 352.660156 C 427.914062 350.8125 440.226562 349.335938 452.523438 347.808594 C 459.839844 346.910156 467.179688 346.199219 474.585938 345.066406 C 467.640625 340.277344 460.476562 336.175781 452.1875 334.214844 C 448.414062 333.320312 445.476562 333.480469 443.609375 337.382812 C 443.308594 338.003906 442.230469 338.730469 441.664062 338.625 C 441.046875 338.507812 440.386719 337.542969 440.132812 336.808594 C 437.601562 329.59375 444.074219 322 451.445312 323.332031 C 459.074219 324.710938 465.742188 328.300781 472.285156 332.15625 C 480.839844 337.199219 489 342.925781 498.617188 346 C 501.578125 346.941406 502.453125 354.160156 499.988281 356.109375 C 499.582031 356.429688 498.824219 356.46875 498.265625 356.394531 C 483.089844 354.488281 467.921875 355.574219 452.816406 357.050781 C 441.128906 358.191406 429.535156 360.179688 417.878906 361.679688 C 415.453125 361.988281 414.636719 363.011719 414.8125 365.421875 C 414.933594 367.085938 414.542969 368.8125 414.246094 370.488281 C 413.328125 375.578125 406.5 378.496094 402.328125 373.207031 C 401.472656 372.128906 400.769531 370.933594 400.386719 370.375 Z M 400.378906 370.367188 " fill-opacity="1" fill-rule="nonzero"/><path fill="#053827" d="M 369.382812 392.753906 C 369.078125 395.347656 368.75 397.933594 368.464844 400.527344 C 367.316406 410.964844 374.65625 419.828125 385.554688 421.800781 C 398.792969 424.199219 411.925781 423.265625 425.121094 421.449219 C 448.277344 418.257812 466.492188 406.648438 481.375 389.15625 C 484.917969 385 488.453125 380.84375 492.035156 376.71875 C 494.292969 374.117188 495.097656 374.164062 497.277344 376.828125 C 500.828125 381.164062 505.144531 380.667969 507.769531 375.640625 C 511.03125 369.394531 511.734375 362.507812 511.863281 355.71875 C 512.070312 344.808594 511.582031 333.886719 511.285156 322.980469 C 511.222656 320.753906 510.632812 318.542969 510.386719 316.316406 C 510.210938 314.730469 509.859375 313.046875 510.210938 311.546875 C 510.570312 310.039062 511.695312 308.707031 512.484375 307.300781 C 513.386719 308.59375 514.804688 309.773438 515.117188 311.195312 C 518.429688 326.25 518.722656 341.53125 517.863281 356.828125 C 517.488281 363.503906 516.402344 370.183594 515.117188 376.757812 C 514.503906 379.933594 512.820312 382.933594 511.390625 385.910156 C 508.328125 392.277344 502.511719 391.351562 497.15625 388.671875 C 496.320312 388.246094 495.65625 387.472656 494.578125 386.589844 C 493.789062 387.53125 492.984375 388.445312 492.21875 389.40625 C 482.109375 402.164062 471.027344 413.882812 456.703125 422.015625 C 444.066406 429.1875 430.285156 432.914062 415.929688 434.515625 C 409.140625 435.273438 402.261719 436 395.472656 435.730469 C 373.730469 434.851562 364.300781 419.347656 365.480469 402.195312 C 365.703125 398.898438 367.425781 395.707031 368.457031 392.460938 C 368.761719 392.5625 369.070312 392.667969 369.375 392.761719 Z M 369.382812 392.753906 " fill-opacity="1" fill-rule="nonzero"/><path fill="#053827" d="M 258.761719 440.691406 C 256.167969 436.886719 257.238281 433.886719 261.722656 432.257812 C 286.234375 423.386719 310.746094 414.539062 335.265625 405.691406 C 336.070312 405.402344 336.867188 405.082031 337.691406 404.859375 C 338.964844 404.515625 340.476562 402.730469 341.464844 404.972656 C 342.375 407.046875 342.351562 409.230469 340.074219 410.613281 C 339.078125 411.210938 337.945312 411.601562 336.84375 412.007812 C 312.347656 420.914062 287.847656 429.808594 263.351562 438.722656 C 261.859375 439.265625 260.421875 439.976562 258.769531 440.691406 Z M 258.761719 440.691406 " fill-opacity="1" fill-rule="nonzero"/><path fill="#053827" d="M 290.503906 398.957031 C 290.214844 394.847656 289.703125 390.738281 289.679688 386.621094 C 289.546875 367.671875 289.578125 348.71875 289.464844 329.769531 C 289.441406 326.148438 288.980469 322.527344 288.890625 318.894531 C 288.835938 316.40625 289.144531 313.015625 291.804688 312.878906 C 294.605469 312.742188 294.882812 316.246094 295.203125 318.625 C 297.0625 332.46875 296.863281 346.308594 295.328125 360.195312 C 294.039062 371.867188 293.128906 383.578125 292.011719 395.269531 C 291.890625 396.515625 291.515625 397.726562 291.253906 398.957031 Z M 290.503906 398.957031 " fill-opacity="1" fill-rule="nonzero"/><path fill="#053827" d="M 742.4375 484.546875 C 744.144531 487.371094 742.953125 489.492188 740.671875 490.824219 C 738.207031 492.261719 735.503906 493.410156 732.773438 494.246094 C 714.597656 499.847656 696.390625 505.339844 678.199219 510.867188 C 677.789062 510.996094 677.375 511.15625 676.960938 511.1875 C 675.613281 511.273438 674.074219 513.867188 672.980469 511.265625 C 672.046875 509.039062 672.644531 506.789062 674.847656 505.363281 C 675.628906 504.851562 676.59375 504.589844 677.511719 504.316406 C 696.15625 498.828125 714.820312 493.378906 733.460938 487.847656 C 736.402344 486.96875 739.242188 485.734375 742.453125 484.546875 Z M 742.4375 484.546875 " fill-opacity="1" fill-rule="nonzero"/><path fill="#053827" d="M 673.378906 371.429688 C 673.378906 370.085938 673.394531 368.746094 673.378906 367.40625 C 673.171875 350.085938 672.980469 332.761719 672.714844 315.449219 C 672.660156 311.929688 672.300781 308.417969 672.101562 304.898438 C 672.0625 304.148438 671.894531 303.3125 672.15625 302.675781 C 672.84375 300.992188 673.730469 299.386719 674.535156 297.742188 C 675.445312 299.234375 676.863281 300.625 677.175781 302.226562 C 679.832031 315.65625 679.578125 329.226562 678.589844 342.785156 C 677.980469 351.074219 676.882812 359.324219 675.890625 367.582031 C 675.722656 368.980469 674.972656 370.296875 674.488281 371.652344 C 674.121094 371.578125 673.746094 371.507812 673.378906 371.4375 Z M 673.378906 371.429688 " fill-opacity="1" fill-rule="nonzero"/><path fill="#053827" d="M 135.710938 513.753906 C 137.292969 512.253906 138.632812 510.246094 140.5 509.328125 C 153.9375 502.738281 167.492188 496.386719 180.992188 489.914062 C 184.65625 488.160156 188.230469 486.21875 191.898438 484.480469 C 193.074219 483.921875 194.828125 482.09375 195.539062 484.386719 C 195.960938 485.773438 195.203125 488.414062 194.070312 489.210938 C 190.949219 491.414062 187.398438 493.035156 183.945312 494.726562 C 169.246094 501.90625 154.519531 509.03125 139.804688 516.171875 C 137.21875 517.425781 136.292969 516.957031 135.703125 513.753906 Z M 135.710938 513.753906 " fill-opacity="1" fill-rule="nonzero"/><path fill="#053827" d="M 227.957031 373.398438 C 229.167969 376.558594 228.5625 378.578125 224.882812 379.925781 C 212.851562 384.328125 200.75 388.535156 188.644531 392.746094 C 182.207031 394.988281 175.71875 397.097656 169.152344 399.296875 C 167.355469 396.714844 168.371094 393.378906 171.871094 392.1875 C 178.648438 389.890625 185.507812 387.847656 192.289062 385.566406 C 204.1875 381.5625 216.058594 377.460938 227.957031 373.390625 Z M 227.957031 373.398438 " fill-opacity="1" fill-rule="nonzero"/><path fill="#053827" d="M 216.425781 317.839844 C 213.953125 314.363281 214.839844 311.179688 218.714844 309.871094 C 230.859375 305.792969 243.042969 301.804688 255.15625 297.625 C 258.0625 296.617188 260.8125 295.125 263.527344 293.640625 C 265.386719 292.628906 266.0625 293.316406 266.398438 295.046875 C 266.859375 297.464844 265.960938 299.324219 263.804688 300.375 C 260.253906 302.097656 256.71875 303.917969 253.011719 305.226562 C 242.84375 308.824219 232.582031 312.167969 222.371094 315.640625 C 220.375 316.316406 218.414062 317.101562 216.425781 317.839844 Z M 216.425781 317.839844 " fill-opacity="1" fill-rule="nonzero"/><path fill="#053827" d="M 525.914062 383.828125 C 525.914062 377.859375 526.023438 371.882812 525.886719 365.914062 C 525.664062 355.972656 525.226562 346.039062 524.988281 336.105469 C 524.835938 329.792969 524.753906 323.46875 524.960938 317.164062 C 525.003906 315.832031 526.421875 314.539062 527.203125 313.230469 C 528.164062 314.355469 529.710938 315.367188 529.957031 316.636719 C 530.660156 320.179688 531.035156 323.816406 531.171875 327.433594 C 531.832031 344.683594 530.644531 361.835938 527.960938 378.878906 C 527.691406 380.597656 527.15625 382.269531 526.742188 383.964844 L 525.902344 383.835938 Z M 525.914062 383.828125 " fill-opacity="1" fill-rule="nonzero"/><path fill="#053827" d="M 87.472656 411.929688 C 88.636719 414.746094 88.667969 416.867188 86.019531 418.503906 C 71.371094 427.566406 56.738281 436.679688 42.0625 445.703125 C 41.1875 446.246094 39.964844 446.230469 38.902344 446.46875 C 38.808594 445.167969 38.363281 443.773438 38.710938 442.609375 C 39.046875 441.515625 40.039062 440.382812 41.050781 439.765625 C 55.5625 430.886719 70.125 422.085938 84.6875 413.277344 C 85.476562 412.796875 86.355469 412.464844 87.480469 411.929688 Z M 87.472656 411.929688 " fill-opacity="1" fill-rule="nonzero"/><path fill="#053827" d="M 623.582031 425.734375 C 622.3125 427.089844 621.300781 428.996094 619.734375 429.707031 C 613.832031 432.378906 607.800781 434.8125 601.71875 437.0625 C 592.925781 440.300781 584.046875 443.308594 575.199219 446.390625 C 574.542969 446.621094 573.824219 446.660156 572.933594 446.835938 C 572.484375 443.589844 574.351562 441.96875 576.625 441.058594 C 582.363281 438.769531 588.195312 436.71875 594.011719 434.644531 C 603.027344 431.4375 612.070312 428.277344 621.109375 425.132812 C 621.660156 424.941406 622.289062 425 622.878906 424.941406 L 623.582031 425.742188 Z M 623.582031 425.734375 " fill-opacity="1" fill-rule="nonzero"/><path fill="#053827" d="M 779.425781 477.929688 C 781.914062 480.261719 784.285156 481.894531 785.800781 484.105469 C 786.878906 485.671875 787.589844 488.277344 787.0625 489.980469 C 786.105469 493.050781 784.222656 495.875 782.425781 498.613281 C 782.074219 499.136719 779.992188 499.226562 779.328125 498.714844 C 777.238281 497.097656 775.15625 495.300781 773.640625 493.164062 C 772.738281 491.886719 772.125 489.460938 772.738281 488.238281 C 774.480469 484.777344 776.929688 481.671875 779.425781 477.929688 Z M 779.425781 477.929688 " fill-opacity="1" fill-rule="nonzero"/><path fill="#053827" d="M 236.484375 317.601562 C 236.691406 319.707031 236.683594 321.550781 237.140625 323.285156 C 237.355469 324.097656 238.417969 325.183594 239.152344 325.222656 C 239.882812 325.261719 240.808594 324.265625 241.425781 323.53125 C 242.390625 322.382812 243.171875 321.074219 243.898438 320.027344 C 245.183594 322.101562 246.078125 323.546875 246.976562 325 C 247.65625 323.492188 248.328125 321.984375 249.027344 320.484375 C 249.285156 319.933594 249.625 319.429688 249.945312 318.886719 C 252.828125 321.207031 252.84375 326.523438 250.113281 329.800781 C 248.039062 332.300781 246.25 332.332031 244.097656 330.542969 C 241.472656 331.109375 239.292969 332.21875 237.417969 331.835938 C 234.601562 331.253906 234.339844 328.324219 234.082031 325.859375 C 233.636719 321.574219 234.171875 319.742188 236.492188 317.609375 Z M 236.484375 317.601562 " fill-opacity="1" fill-rule="nonzero"/><path fill="#053827" d="M 133.359375 377.078125 C 133.652344 376.726562 133.8125 376.453125 134.050781 376.269531 C 135.160156 375.394531 136.292969 374.539062 137.417969 373.6875 C 138.480469 375.1875 140.339844 376.652344 140.410156 378.203125 C 140.53125 380.605469 139.535156 383.109375 138.734375 385.472656 C 138.601562 385.871094 136.835938 386.214844 136.261719 385.863281 C 135.226562 385.230469 134.523438 384.058594 133.550781 382.972656 C 133.039062 383.675781 132.777344 384.128906 132.425781 384.496094 C 131.453125 385.488281 129.941406 387.441406 129.527344 387.234375 C 128.003906 386.476562 126.433594 385.222656 125.632812 383.738281 C 124.269531 381.195312 126.136719 375.664062 128.570312 374.285156 C 129.082031 373.996094 130.183594 374.316406 130.78125 374.707031 C 131.730469 375.328125 132.488281 376.246094 133.367188 377.078125 Z M 133.359375 377.078125 " fill-opacity="1" fill-rule="nonzero"/><path fill="#053827" d="M 507.472656 298.742188 C 508.167969 301.300781 506.5625 302.554688 504.703125 303.441406 C 501.816406 304.8125 498.808594 305.9375 495.871094 307.214844 C 489.351562 310.046875 482.84375 312.902344 476.347656 315.742188 C 475.582031 313.734375 475.757812 312.535156 478.246094 311.027344 C 481.246094 309.207031 484.421875 307.613281 487.675781 306.296875 C 494.179688 303.65625 500.785156 301.277344 507.480469 298.730469 Z M 507.472656 298.742188 " fill-opacity="1" fill-rule="nonzero"/><path fill="#053827" d="M 698.632812 326.515625 C 698.472656 329.410156 698.296875 332.507812 698.128906 335.601562 C 698.480469 335.761719 698.832031 335.921875 699.183594 336.089844 C 700.003906 335.300781 700.984375 334.621094 701.609375 333.703125 C 702.191406 332.824219 702.398438 331.683594 702.867188 330.394531 C 703.300781 330.933594 703.441406 331.054688 703.507812 331.207031 C 704.144531 332.722656 704.917969 335.601562 705.390625 335.554688 C 708.046875 335.269531 707.359375 332.875 707.464844 331.046875 C 707.535156 329.84375 707.617188 328.628906 707.71875 327.128906 C 711.460938 330.21875 710.410156 339.359375 706.402344 340.84375 C 705.269531 341.269531 703.65625 340.421875 701.589844 340.023438 C 700.839844 340.191406 698.3125 341.347656 697.777344 340.742188 C 696.445312 339.234375 695.535156 336.976562 695.335938 334.925781 C 694.976562 331.335938 696.605469 328.109375 698.640625 326.523438 Z M 698.632812 326.515625 " fill-opacity="1" fill-rule="nonzero"/><path fill="#053827" d="M 497.714844 325.390625 C 497.953125 326.265625 498.035156 327.242188 498.496094 327.992188 C 498.886719 328.628906 499.71875 329.003906 500.355469 329.492188 C 500.714844 328.75 501.265625 328.039062 501.378906 327.265625 C 501.550781 326.109375 501.425781 324.902344 501.425781 323.300781 C 504.257812 325.515625 505.085938 328.75 503.8125 331.597656 C 502.6875 334.101562 501.003906 335.554688 497.96875 334.328125 C 497.492188 334.132812 496.589844 334.910156 495.910156 335.277344 C 493.519531 336.550781 491.53125 335.859375 490.453125 333.351562 C 489.160156 330.335938 490.085938 326.792969 493.160156 323.921875 C 492.953125 325.621094 492.578125 327 492.679688 328.351562 C 492.753906 329.292969 493.476562 330.191406 493.910156 331.109375 C 494.578125 330.328125 495.417969 329.632812 495.863281 328.742188 C 496.367188 327.75 496.511719 326.578125 496.804688 325.484375 C 497.109375 325.453125 497.410156 325.421875 497.714844 325.390625 Z M 497.714844 325.390625 " fill-opacity="1" fill-rule="nonzero"/><path fill="#053827" d="M 127.925781 332.875 C 129.839844 334.308594 131.316406 334.835938 131.867188 331.804688 C 129.304688 331.933594 127.886719 330.648438 128.777344 328.253906 C 129.28125 326.898438 130.804688 325.925781 131.867188 324.777344 C 132.945312 325.789062 134.945312 326.816406 134.9375 327.824219 C 134.90625 331.253906 134.453125 334.75 133.605469 338.078125 C 133.054688 340.253906 131.042969 341.859375 128.660156 341.078125 C 126.082031 340.230469 126.519531 337.683594 126.75 335.570312 C 126.839844 334.78125 127.390625 334.046875 127.917969 332.875 Z M 127.925781 332.875 " fill-opacity="1" fill-rule="nonzero"/><path fill="#053827" d="M 406.421875 345.265625 C 404.664062 340.246094 403.085938 335.738281 401.519531 331.222656 C 401.449219 331.023438 401.363281 330.777344 401.417969 330.601562 C 401.96875 328.875 402.550781 327.167969 403.125 325.453125 C 404.203125 326.738281 405.871094 327.871094 406.261719 329.339844 C 407.632812 334.460938 408.527344 339.703125 406.421875 345.265625 Z M 406.421875 345.265625 " fill-opacity="1" fill-rule="nonzero"/><path fill="#053827" d="M 358.546875 357.59375 C 357.765625 360.871094 355.746094 363.886719 354.015625 363.785156 C 352.09375 363.664062 350.382812 360.792969 350.542969 357.960938 C 350.671875 355.710938 353.601562 351.769531 354.558594 352.511719 C 356.210938 353.792969 357.246094 355.859375 358.546875 357.59375 Z M 358.546875 357.59375 " fill-opacity="1" fill-rule="nonzero"/><path fill="#053827" d="M 704.34375 320.9375 C 703.492188 313.75 702.726562 307.316406 701.910156 300.472656 C 707.671875 302.53125 707.28125 312.800781 704.34375 320.9375 Z M 704.34375 320.9375 " fill-opacity="1" fill-rule="nonzero"/></svg>