<svg xmlns="http://www.w3.org/2000/svg" xmlns:xlink="http://www.w3.org/1999/xlink" width="1080" zoomAndPan="magnify" viewBox="0 0 810 809.999993" height="1080" preserveAspectRatio="xMidYMid meet" version="1.0"><defs><clipPath id="bb6a7421e9"><path d="M 0 50 L 810 50 L 810 759.375 L 0 759.375 Z M 0 50 " clip-rule="nonzero"/></clipPath><clipPath id="8caa0b1766"><path d="M 528.542969 50.625 L 281.433594 50.625 C 125.992188 50.625 0 173.710938 0 325.546875 C 0 435.464844 66.050781 530.277344 161.480469 574.265625 L 161.480469 759.375 L 352.625 600.457031 L 528.542969 600.457031 C 684 600.457031 810 477.371094 810 325.535156 C 810.011719 173.710938 684 50.625 528.542969 50.625 Z M 528.542969 50.625 " clip-rule="nonzero"/></clipPath><clipPath id="c6f5ea6c8c"><path d="M 0 0.398438 L 810 0.398438 L 810 709.375 L 0 709.375 Z M 0 0.398438 " clip-rule="nonzero"/></clipPath><clipPath id="41808aaa31"><path d="M 528.542969 0.625 L 281.433594 0.625 C 125.992188 0.625 0 123.710938 0 275.546875 C 0 385.464844 66.050781 480.277344 161.480469 524.265625 L 161.480469 709.375 L 352.625 550.457031 L 528.542969 550.457031 C 684 550.457031 810 427.371094 810 275.535156 C 810.011719 123.710938 684 0.625 528.542969 0.625 Z M 528.542969 0.625 " clip-rule="nonzero"/></clipPath><clipPath id="9312d775e6"><rect x="0" width="810" y="0" height="710"/></clipPath></defs><g clip-path="url(#bb6a7421e9)"><g clip-path="url(#8caa0b1766)"><g transform="matrix(1, 0, 0, 1, 0, 50)"><g clip-path="url(#9312d775e6)"><g clip-path="url(#c6f5ea6c8c)"><g clip-path="url(#41808aaa31)"><path fill="#000000" d="M 0 0.625 L 811.1875 0.625 L 811.1875 709.375 L 0 709.375 Z M 0 0.625 " fill-opacity="1" fill-rule="nonzero"/></g></g></g></g></g></g></svg>