<svg xmlns="http://www.w3.org/2000/svg" xmlns:xlink="http://www.w3.org/1999/xlink" width="1080" zoomAndPan="magnify" viewBox="0 0 810 809.999993" height="1080" preserveAspectRatio="xMidYMid meet" version="1.0"><defs><clipPath id="ccb4eff6b1"><path d="M 81 0 L 760.613281 0 L 760.613281 810 L 81 810 Z M 81 0 " clip-rule="nonzero"/></clipPath><clipPath id="f82c133b6f"><path d="M 49.613281 30 L 131 30 L 131 329 L 49.613281 329 Z M 49.613281 30 " clip-rule="nonzero"/></clipPath></defs><path fill="#fbf0d8" d="M 128.820312 226.175781 C 134.777344 243.726562 135.820312 262.421875 139.433594 280.511719 C 142.570312 298.5 144.175781 316.625 144.140625 334.882812 C 144.429688 347.894531 144.78125 361.429688 144.394531 374.523438 C 144.328125 382.40625 144.496094 390.285156 144.679688 398.164062 C 144.714844 399.261719 145.070312 400.242188 145.914062 400.949219 C 147.3125 402.183594 149.609375 401.945312 150.773438 400.527344 C 151.617188 399.566406 151.617188 398.285156 151.515625 397.085938 C 151.480469 386.4375 151.851562 375.773438 151.515625 365.125 C 151.109375 354.476562 149.792969 343.894531 149.019531 333.28125 C 147.988281 313.386719 148.359375 293.355469 144.867188 273.660156 C 143.265625 263.738281 141.695312 253.496094 139.214844 243.65625 C 135.972656 232.03125 130.929688 220.976562 126.710938 209.671875 C 122.644531 199.984375 118.796875 190.179688 115.570312 180.191406 C 113.363281 173.105469 111.488281 165.746094 108.738281 158.761719 C 103.910156 145.023438 97.632812 131.761719 94.917969 117.382812 C 92.503906 105.804688 88.503906 93.117188 93.414062 81.640625 C 95.136719 78.890625 97.804688 76.171875 101.09375 75.53125 C 102.578125 75.480469 104.519531 75.515625 106.054688 75.703125 C 109.515625 75.972656 112.941406 76.15625 116.296875 77.152344 C 118.898438 78.03125 123.910156 80.070312 124.398438 75.800781 C 124.515625 73.339844 121.949219 72.78125 120.011719 72.628906 C 117.277344 71.363281 114.355469 70.65625 111.351562 70.285156 C 107.808594 69.894531 104.199219 69.390625 100.636719 69.625 C 88.992188 71.449219 84.945312 83.886719 85.449219 94.296875 C 87.746094 118.882812 96.925781 142.308594 106.425781 164.953125 C 113.5625 185.488281 122.828125 205.285156 128.800781 226.210938 Z M 128.820312 226.175781 " fill-opacity="1" fill-rule="nonzero"/><path fill="#fbf0d8" d="M 203.101562 87.699219 C 193.347656 86.296875 183.765625 84.054688 174.128906 82.0625 C 162.214844 80.191406 150.335938 77.996094 138.402344 76.292969 C 138.152344 76.074219 137.847656 75.921875 137.507812 75.871094 C 136.75 75.734375 135.972656 76.074219 135.550781 76.714844 C 134.996094 77.589844 135.230469 78.839844 136.023438 79.5 C 136.816406 80.15625 137.980469 80.257812 138.960938 80.441406 C 152.578125 83.480469 166.398438 85.304688 180.085938 88.003906 C 201.566406 92.542969 223.421875 94.988281 245.324219 96.375 C 260.746094 98.804688 276.238281 100.339844 291.816406 101.265625 C 302.785156 102.429688 313.9375 104.488281 325.058594 104.339844 C 332.484375 104.203125 339.890625 104.457031 347.300781 104.371094 C 358.371094 104.1875 369.390625 102.800781 380.460938 102.632812 C 400.742188 102.449219 421.109375 102.53125 441.308594 100.355469 C 472.429688 96.472656 502.820312 88.527344 533.378906 81.691406 C 556.851562 77 579.855469 70.402344 602.535156 62.792969 C 612.355469 59.46875 622.378906 56.835938 632.183594 53.476562 C 637.886719 51.703125 643.371094 49.074219 649.195312 47.789062 C 652.347656 56.496094 651 66.082031 650.527344 75.144531 C 649.835938 83.917969 649.328125 92.476562 647.691406 101.183594 C 645.023438 115.578125 640.925781 129.703125 640.300781 144.398438 C 637.703125 171.753906 637.195312 199.191406 636.6875 226.648438 C 636.453125 236.65625 635.390625 246.644531 635.558594 256.652344 C 636.285156 270.84375 639.390625 284.730469 641.734375 298.703125 C 641.988281 300.070312 643.488281 300.914062 644.804688 300.609375 C 646.054688 300.324219 646.882812 299.125 646.761719 297.878906 C 645.296875 284.308594 642.222656 270.960938 640.722656 257.394531 C 638.664062 224.183594 644.0625 191.125 644.097656 157.933594 C 644.316406 144.585938 643.371094 131.101562 646.039062 117.90625 C 647.945312 104.828125 663.65625 48.210938 651.453125 42.019531 C 646.476562 41.039062 641.601562 43.402344 636.875 44.703125 C 631.339844 46.457031 625.839844 48.230469 620.304688 49.949219 C 607.613281 53.5625 595.363281 58.4375 582.957031 62.925781 C 555.535156 72.546875 527.929688 82.484375 499.039062 86.769531 C 480.765625 90.078125 462.203125 91.378906 443.738281 93.234375 C 424.738281 94.886719 405.769531 97.234375 386.71875 98.078125 C 376.375 98.109375 366.03125 98.332031 355.703125 98.550781 C 345.527344 98.769531 335.351562 97.960938 325.175781 98.53125 C 308.707031 98.972656 292.253906 97.640625 275.785156 97.488281 C 265.015625 97.183594 254.570312 94.667969 243.992188 92.949219 C 230.40625 91.039062 216.738281 89.84375 203.1875 87.683594 Z M 203.101562 87.699219 " fill-opacity="1" fill-rule="nonzero"/><path fill="#fbf0d8" d="M 563.148438 582.8125 C 563.316406 578.929688 559.25 578.238281 556.230469 577.851562 C 551.269531 576.652344 545.765625 574.914062 540.351562 574.980469 C 522.480469 574.527344 504.996094 576.046875 487.058594 575.625 C 454.355469 574.644531 421.582031 574.15625 389.199219 579.640625 C 367.363281 583.097656 345.628906 587.0625 324.0625 591.957031 C 314.527344 593.832031 305.128906 596.296875 296.050781 599.804688 C 293.992188 600.902344 290.550781 601.222656 289.402344 603.382812 C 288.269531 605.625 291.257812 607.972656 293.199219 606.488281 C 298.867188 604.242188 304.707031 602.472656 310.597656 600.953125 C 338.070312 595.199219 365.609375 589.460938 393.351562 585.175781 C 412.589844 582.8125 431.792969 579.757812 451.164062 578.914062 C 481.117188 578.660156 511.070312 580.246094 540.90625 582.8125 C 546.527344 582.523438 562.015625 591.941406 563.132812 582.8125 Z M 563.148438 582.8125 " fill-opacity="1" fill-rule="nonzero"/><path fill="#fbf0d8" d="M 678.472656 459.1875 C 675.164062 444.132812 670.757812 429.300781 668.9375 413.960938 C 666.1875 399.515625 665.746094 384.75 663.066406 370.289062 C 662.121094 364.769531 661.105469 359.25 659.570312 353.867188 C 657.597656 346.425781 654.390625 339.1875 654.746094 331.339844 C 654.578125 327.339844 654.878906 323.273438 654.15625 319.324219 C 653.613281 316.878906 651.21875 315.207031 648.738281 315.445312 C 644.230469 315.867188 643.710938 320.859375 643.945312 324.488281 C 644.113281 329.769531 644.03125 335.136719 645.023438 340.335938 C 647.707031 351.117188 652.382812 361.3125 654.355469 372.296875 C 656.804688 382.808594 657.78125 393.542969 658.8125 404.273438 C 659.773438 410.871094 660.667969 417.46875 661.242188 424.121094 C 663.757812 441.820312 667.316406 459.386719 670.136719 477.039062 C 671.28125 483.03125 673.070312 488.363281 674.84375 494.269531 C 677.019531 501.289062 678.824219 508.867188 680.664062 516.019531 C 682.621094 523.5625 686.320312 530.230469 690.570312 536.742188 C 694.113281 542.886719 698.722656 549.636719 702.890625 555.644531 C 706.652344 561.851562 708.914062 568.804688 712.035156 575.335938 C 713.132812 577.765625 714.078125 580.246094 714.871094 582.796875 C 716.238281 588.449219 717.367188 594.1875 719.445312 599.636719 C 720.238281 601.878906 721.554688 603.9375 721.6875 606.371094 C 721.402344 611.261719 715.089844 612.679688 711.007812 612.003906 C 702.855469 610.859375 695.449219 605.558594 687.535156 602.996094 C 675.890625 597.730469 663.636719 593.59375 651.117188 590.960938 C 644.992188 589.847656 638.730469 589.644531 632.65625 588.230469 C 629.652344 587.46875 626.699219 586.507812 623.710938 585.648438 C 622.867188 585.410156 621.957031 585.832031 621.703125 586.675781 C 621.433594 587.503906 621.90625 588.398438 622.75 588.683594 C 630.699219 592.027344 639.1875 593.121094 647.691406 594.085938 C 658.171875 595.824219 668.398438 599.296875 678.203125 603.316406 C 682.84375 605.492188 687.414062 607.785156 692.125 609.828125 C 697.488281 612.023438 702.535156 615.398438 708.355469 616.257812 C 715.257812 617.710938 725.484375 614.890625 725.601562 606.539062 C 725.0625 601.558594 721.804688 597.324219 720.742188 592.414062 C 718.886719 583.300781 715.898438 574.609375 712.441406 565.988281 C 710.0625 557.601562 705.859375 550.058594 701.625 542.496094 C 698.230469 535.308594 694.484375 528.222656 691.835938 520.730469 C 689.542969 512.664062 688.664062 504.292969 686.691406 496.140625 C 683.398438 483.925781 680.429688 471.65625 678.4375 459.136719 Z M 678.472656 459.1875 " fill-opacity="1" fill-rule="nonzero"/><path fill="#fbf0d8" d="M 254.539062 616.679688 C 254.402344 614.113281 251.230469 614.992188 249.457031 614.585938 C 244.902344 614.046875 240.597656 616.511719 236.398438 617.960938 C 231.671875 619.800781 226.914062 621.589844 222.15625 623.328125 C 212.535156 626.753906 203.070312 630.566406 193.941406 635.125 C 183.867188 639.394531 174.246094 644.558594 164.59375 649.671875 C 155.871094 654.023438 146.839844 658.816406 136.867188 658.984375 C 132.058594 658.683594 123.132812 659.675781 120.195312 655.238281 C 116.585938 648.523438 119.417969 640.640625 120.550781 633.621094 C 122.1875 626.148438 123.636719 618.636719 124.632812 611.0625 C 127.199219 594.371094 130.742188 577.867188 133.410156 561.195312 C 135.078125 551.929688 138.082031 542.9375 139.921875 533.636719 C 141.8125 524.949219 142.589844 516.070312 144.109375 507.3125 C 147.957031 487.890625 149.8125 467.996094 147.617188 448.25 C 146.824219 441.738281 146.015625 435.238281 145.425781 428.691406 C 145.339844 427.917969 144.632812 427.324219 143.855469 427.394531 C 143.042969 427.476562 142.523438 428.1875 142.554688 428.960938 C 142.621094 430.414062 142.671875 431.847656 142.757812 433.28125 C 143.179688 440.132812 144.308594 446.917969 144.765625 453.769531 C 145.710938 467.808594 144.867188 481.96875 142.269531 495.804688 C 140.429688 506.773438 139.839844 517.828125 138.285156 528.914062 C 136.394531 540.691406 132.109375 551.847656 129.140625 563.371094 C 125.546875 577.832031 121.023438 591.519531 118.609375 606.371094 C 116.789062 619.195312 114.035156 631.882812 112.921875 644.792969 C 112.570312 651.832031 114.609375 660.992188 122.523438 662.765625 C 132.800781 665.210938 143.835938 665.734375 153.960938 662.292969 C 164.460938 659.070312 174.246094 653.992188 184.085938 649.164062 C 196.167969 643.765625 207.609375 637.046875 219.605469 631.429688 C 223.523438 629.574219 227.4375 627.734375 231.335938 625.84375 C 237.257812 623.363281 242.777344 619.042969 249.273438 618.351562 C 251.027344 618.148438 254.269531 619.246094 254.589844 616.714844 Z M 254.539062 616.679688 " fill-opacity="1" fill-rule="nonzero"/><path fill="#fbf0d8" d="M 103.238281 49.222656 C 105.464844 41.023438 116.835938 42.609375 123.367188 43.757812 C 131.230469 45.679688 139.046875 50.4375 140.582031 58.976562 C 140.953125 60.734375 141.679688 62.996094 143.71875 62.910156 C 142.859375 64.816406 142.824219 67.113281 145.101562 67.921875 C 146.757812 68.53125 148.714844 67.078125 148.628906 65.375 C 156.5625 55.332031 170.835938 51.46875 183.023438 54.910156 C 186.175781 56.195312 188.386719 58.925781 191.039062 60.917969 C 193.570312 62.875 196.082031 64.832031 198.328125 67.128906 C 200.789062 69.660156 204.621094 66.082031 202.292969 63.46875 C 199.914062 61.003906 197.367188 58.707031 194.699219 56.546875 C 191.121094 53.460938 187.863281 49.695312 183.070312 48.601562 C 169.945312 45.476562 155.195312 49.460938 146.167969 59.601562 C 144.613281 51.433594 139.992188 44.601562 132.007812 41.546875 C 122.695312 37.3125 102.039062 35.945312 100.113281 49.359375 C 99.980469 51.789062 103.1875 51.554688 103.203125 49.222656 Z M 103.238281 49.222656 " fill-opacity="1" fill-rule="nonzero"/><g clip-path="url(#ccb4eff6b1)"><path fill="#fbf0d8" d="M 748.789062 599.871094 C 754.964844 590.859375 747.929688 580.449219 743.441406 572.347656 C 741.667969 568.941406 739.914062 565.464844 737.164062 562.714844 C 741.449219 549.449219 732.203125 534.703125 720.84375 528.121094 C 727.289062 522.265625 727.796875 513.269531 724.828125 505.507812 C 722.195312 499.09375 715.765625 493.660156 708.878906 492.597656 C 716 482.710938 717.367188 472.246094 712.390625 460.957031 C 708.578125 452.183594 700.5625 446.308594 692.34375 441.941406 C 700.105469 433.230469 700.914062 421.03125 698.570312 410.078125 C 696.816406 400.796875 695.953125 389.136719 687.128906 383.6875 C 690.519531 377.34375 692.644531 370.289062 691.347656 363.050781 C 690.671875 358.1875 689.355469 352.824219 685.8125 349.210938 C 683.5 346.78125 680.511719 344.875 677.1875 344.234375 C 680.832031 341.601562 683.769531 337.585938 684.394531 333.097656 C 685.375 327.5625 682.960938 322.277344 681.207031 317.164062 C 678.539062 309.386719 675.738281 300.410156 668.414062 295.800781 C 676.007812 289.644531 678.421875 279.417969 677.222656 270.035156 C 676.074219 261.75 673.578125 252.566406 666.371094 247.523438 C 672.277344 241.648438 671.941406 230.730469 666.742188 224.320312 C 667.097656 224.101562 667.417969 223.878906 667.722656 223.695312 C 681.660156 214.921875 677.492188 182.839844 666.945312 172.683594 C 674.320312 168.9375 678.335938 160.820312 677.15625 152.667969 C 676.378906 146.15625 674.253906 137.734375 667.367188 135.335938 C 666.742188 135.203125 666 135.085938 665.222656 135.015625 C 667.351562 134.257812 669.714844 132.453125 670.859375 131.574219 C 684.378906 121.113281 691.515625 97.234375 676.53125 85.082031 C 681.15625 80.257812 687.363281 76.730469 689.945312 70.167969 C 694.707031 60.34375 691.617188 44.195312 680.039062 40.886719 C 685.726562 33.835938 690.335938 24.773438 688.765625 15.472656 C 687.449219 6.191406 685.523438 -0.386719 674.605469 0.0664062 C 663.503906 0.136719 649.546875 3.882812 645.683594 15.574219 C 642.5625 13.449219 638.425781 14.628906 635.019531 15.375 C 626.480469 17.632812 617.0625 22.527344 614.398438 31.574219 C 609.300781 25.851562 600.898438 25.398438 594.25 28.519531 C 588.191406 31.335938 580.257812 35.269531 576.78125 41.378906 C 571.769531 36.890625 565.898438 34.1875 558.472656 35.640625 C 549.410156 36.449219 540.636719 39.808594 534.222656 46.390625 C 532.519531 48.078125 530.613281 49.847656 529.179688 51.875 C 516.21875 37.5625 486.519531 47.453125 480.324219 65.609375 C 478.6875 63.519531 476.796875 61.578125 474.148438 60.9375 C 464.699219 59.214844 453.511719 60.9375 447.25 68.867188 C 437.5625 59.332031 429.296875 56.414062 415.914062 59.46875 C 406.683594 61.628906 396.203125 66.320312 392.203125 75.464844 C 391.207031 73.761719 389.773438 72.175781 388.574219 70.941406 C 378.382812 59.535156 355.535156 61.730469 344.851562 72.714844 C 344.800781 72.613281 344.769531 72.527344 344.699219 72.425781 C 336.382812 56.699219 307.894531 66.386719 297.078125 77 C 294.058594 69.355469 286.449219 63.738281 278.484375 62.21875 C 269.457031 61.847656 260.324219 65.710938 253.136719 70.976562 C 246.945312 59.046875 237.984375 57.492188 225.613281 59.722656 C 218.578125 61.105469 203.558594 62.757812 202.277344 71.382812 C 202.277344 71.382812 202.308594 71.0625 202.308594 71.0625 C 201.90625 72.578125 202.75 74.351562 204.535156 74.417969 C 205.785156 74.46875 207.066406 73.421875 207.035156 72.105469 C 207.726562 68.730469 215.960938 66.722656 223.773438 65.726562 C 222.710938 65.964844 221.664062 66.335938 220.652344 66.875 C 218.8125 67.753906 217.886719 69.878906 218.695312 71.734375 C 219.808594 74.4375 222.863281 74.164062 225.140625 73.289062 C 230.222656 72.191406 234.640625 75.886719 239.550781 76.460938 C 241.527344 76.867188 243.535156 75.835938 244.058594 73.8125 C 245.003906 69.8125 240.683594 69.019531 237.78125 68.308594 C 234.238281 66.757812 230.304688 65.375 226.441406 65.441406 C 231.015625 64.984375 235.132812 64.867188 237.039062 65.035156 C 243.347656 65.644531 246.824219 71.753906 249.847656 76.628906 C 250.722656 77.960938 251.5 79.597656 253.101562 80.15625 C 256.277344 81.117188 258.015625 77.117188 255.449219 75.210938 C 261.488281 70.300781 269.792969 67.5 277.570312 67.585938 C 284.019531 69.152344 290.128906 74.066406 292.335938 80.425781 C 293.300781 82.722656 295.898438 82.585938 297.113281 81.203125 C 297.300781 81.136719 297.484375 81.035156 297.636719 80.898438 C 298.785156 79.820312 299.914062 78.722656 301.144531 77.726562 C 309.703125 71.144531 334.492188 62.757812 341.242188 74.890625 C 341.578125 75.347656 341.984375 75.601562 342.40625 75.71875 C 341.882812 76.496094 341.410156 77.289062 340.988281 78.113281 C 339.941406 80.34375 342.726562 82.453125 344.566406 80.816406 C 346.035156 77.828125 348.429688 75.449219 351.316406 73.726562 C 357.726562 69.746094 365.40625 69.035156 372.832031 69.609375 C 379.175781 70.117188 384.964844 74.722656 387.765625 80.425781 C 388.644531 82.230469 391.023438 82.417969 392.40625 81.285156 C 393.453125 83.414062 395.496094 84.730469 397.925781 82.925781 C 399.257812 81.707031 399.257812 79.582031 398.027344 78.285156 C 402.667969 68.445312 421.851562 62.335938 431.996094 65.289062 C 436.617188 67.550781 441.5625 70.300781 444.433594 74.6875 C 445.074219 76.125 446.558594 77.40625 448.230469 76.984375 C 448.71875 76.882812 449.089844 76.664062 449.410156 76.425781 C 449.359375 77.660156 449.796875 78.90625 450.691406 79.800781 C 454.015625 83.074219 457.578125 79.175781 460.632812 77.589844 C 463.921875 76.207031 467.652344 77.828125 470.65625 79.3125 C 473.203125 84.257812 481.101562 81.050781 479.5 75.71875 C 478.402344 72.628906 474.824219 71.382812 472.175781 69.878906 C 465.253906 66.269531 456.816406 67.195312 451.367188 72.816406 C 451.554688 72.359375 451.753906 71.921875 452.042969 71.550781 C 457.15625 65.527344 466.808594 63.230469 474.097656 66.03125 C 476.527344 67.601562 477.710938 73.507812 481.167969 71.566406 C 481.828125 72.328125 482.722656 72.832031 483.902344 72.882812 C 486.652344 73.101562 488.78125 69.945312 487.632812 67.484375 C 493.03125 54.675781 517.535156 44.195312 526.226562 58.539062 C 527.171875 61.019531 528.097656 64.511719 531.539062 63.367188 C 533.160156 62.742188 534.019531 60.902344 533.449219 59.265625 C 533.5 58.640625 533.464844 58 533.414062 57.359375 C 534.003906 55.921875 535.1875 54.777344 536.214844 53.644531 C 541.886719 47.621094 548.871094 43.6875 557.222656 42.777344 C 563.382812 41.679688 568.074219 41.933594 572.734375 46.878906 C 573.527344 47.671875 574.285156 48.480469 575.0625 49.273438 C 575.214844 50.523438 576.140625 51.214844 577.136719 51.332031 C 580.125 53.511719 584.191406 49.445312 581.472656 46.40625 C 581.121094 45.984375 580.765625 45.578125 580.410156 45.175781 C 580.445312 45.054688 580.476562 44.9375 580.511719 44.820312 C 585.40625 38.253906 593.40625 34.121094 601.335938 32.164062 C 607.292969 30.8125 611.78125 35.605469 614.429688 40.332031 C 615.984375 41.867188 617.722656 41.328125 618.667969 39.976562 C 622.226562 40.667969 623.105469 35.472656 625.871094 33.75 C 628.589844 31.523438 633.179688 30.339844 635.980469 33.023438 C 636.757812 33.9375 637.109375 35.167969 638.207031 35.792969 C 642.003906 38.15625 645.96875 33.699219 642.273438 30.796875 C 638.527344 23.660156 630.582031 23.40625 624.304688 26.78125 C 625.957031 25.414062 627.847656 24.300781 629.738281 23.4375 C 632.773438 22.105469 635.964844 21.058594 639.238281 20.484375 C 640.300781 20.484375 641.902344 19.710938 642.613281 20.722656 C 643.828125 22.394531 643.742188 24.839844 645.226562 26.292969 C 646.542969 27.355469 648.519531 27.066406 649.445312 25.648438 C 650.542969 23.421875 650.238281 20.738281 650.914062 18.359375 C 651.742188 14.34375 654.726562 11.222656 658.152344 9.179688 C 663.183594 6.140625 678.996094 1.011719 682.859375 7.1875 C 684.664062 10.96875 685.339844 15.085938 685.777344 19.269531 C 685.59375 26.273438 682.65625 32.738281 678.03125 37.984375 C 675.332031 41.359375 674.757812 43.707031 679.753906 44.683594 C 687.632812 48.703125 688.359375 61.289062 684.308594 68.308594 C 681.136719 74.839844 673.410156 77.589844 669.695312 83.886719 C 668.550781 86.027344 669.679688 88.339844 671.601562 89.554688 C 673.613281 91.160156 675.484375 92.980469 676.515625 95.359375 C 681.628906 107.730469 675.449219 122.917969 664.804688 130.394531 C 663.335938 131.339844 660.566406 131.859375 661.359375 134.207031 C 661.648438 134.78125 662.035156 135.117188 662.507812 135.304688 C 661.292969 135.589844 660.261719 136.230469 659.910156 137.566406 C 659.640625 139.152344 660.804688 140.738281 662.320312 141.125 C 663.585938 141.546875 665.410156 141.5625 666 140.113281 C 671.46875 144.09375 672.261719 154.472656 670.304688 160.53125 C 668.699219 165.730469 662.996094 167.484375 660.09375 171.601562 C 659.234375 173.253906 660.550781 175.113281 662.238281 175.382812 C 671.0625 182.890625 671.433594 196.289062 670.726562 207.054688 C 670.371094 212.742188 667.097656 218.34375 661.75 220.625 C 661.664062 220.65625 661.597656 220.726562 661.527344 220.777344 C 658.710938 221.097656 659.25 225.601562 661.984375 225.988281 C 665.832031 230.109375 666.488281 236.925781 664.144531 241.988281 C 663.066406 244.078125 660.988281 245.464844 659.789062 247.453125 C 659.046875 248.871094 659.890625 250.761719 661.546875 250.914062 C 672.007812 251.996094 675.722656 276.683594 671.703125 284.816406 C 670.285156 288.628906 667.484375 291.703125 664.464844 294.332031 C 663.738281 294.90625 662.945312 295.398438 662.253906 296.003906 C 661.125 296.898438 661.527344 298.839844 662.914062 299.246094 C 663.707031 299.496094 664.464844 299.144531 665.257812 299.125 C 666.589844 298.957031 667.65625 299.816406 668.566406 300.679688 C 673.273438 305.066406 675.703125 311.328125 677.8125 317.300781 C 679.113281 320.945312 680.714844 324.523438 681.425781 328.335938 C 683.011719 340.183594 672.042969 341.886719 672.835938 344.789062 C 671.46875 345.972656 671.6875 348.503906 673.460938 349.210938 C 680.363281 349.71875 684.34375 355.574219 685.101562 362.070312 C 685.929688 367.386719 685.929688 372.835938 683.804688 377.847656 C 683.398438 379.179688 683.011719 380.53125 682.554688 381.847656 C 681.695312 382.707031 680.613281 383.652344 680.5625 384.953125 C 680.511719 387.332031 682.773438 387.417969 684.546875 387.738281 L 684.511719 387.769531 C 691.128906 391.769531 691.753906 400.527344 693.21875 407.429688 C 694.011719 414.417969 695.550781 422.5 692.730469 429.382812 C 691.332031 432.960938 689.492188 436.355469 687.164062 439.40625 C 685.152344 441.449219 684.582031 444.488281 687.820312 445.550781 C 701.976562 451.523438 714.71875 464.25 711.410156 480.871094 C 710.6875 485.730469 706.046875 489.121094 705.625 493.929688 C 705.976562 495.972656 708.542969 495.617188 710.078125 496.058594 C 713.992188 497.625 717.300781 500.597656 719.628906 504.105469 C 721.839844 509 722.871094 515.96875 719.578125 520.59375 C 717.539062 523.75 713.519531 525.570312 712.59375 529.386719 C 712.085938 532.441406 715.074219 533.164062 717.25 534.128906 C 722.042969 537.183594 725.402344 541.992188 727.714844 547.085938 C 729.5 551.1875 730.75 556.671875 727.761719 560.484375 C 723.898438 563.894531 725.773438 569.683594 731.136719 569.414062 C 734.3125 572.621094 735.980469 576.9375 738.394531 580.703125 C 740.976562 585.023438 745.230469 591.148438 742.105469 596.042969 C 736.65625 595.839844 737.042969 603.550781 742.429688 603.078125 C 750.105469 610.167969 757.292969 639.496094 743.878906 643.578125 C 735.59375 645.6875 728.371094 642.464844 724.507812 634.855469 C 721.789062 631.089844 718.160156 626.199219 713.269531 625.554688 C 708.710938 625.152344 705.402344 630.417969 707.242188 634.464844 C 690.875 639.292969 680.632812 623.007812 672.328125 611.71875 C 671.585938 610.367188 669.34375 610.621094 668.9375 612.125 C 668.699219 613 669.054688 613.828125 669.023438 614.6875 C 665.242188 617.21875 659.757812 617.117188 655.269531 616.964844 C 646.882812 615.988281 639.253906 611.027344 633.667969 604.851562 C 631.558594 602.84375 631.085938 598.640625 627.828125 598.253906 C 625.703125 598.21875 625.820312 600.800781 624.894531 602.152344 C 621.078125 607.617188 610.296875 606.402344 604.40625 605.1875 C 603.257812 604.96875 601.773438 604.308594 600.441406 604.089844 C 605.4375 592.9375 610.261719 581.714844 614.566406 570.273438 C 619.78125 558.664062 622.195312 545.941406 621.046875 533.234375 C 620.777344 524.085938 616.777344 515.632812 610.835938 508.78125 C 605.148438 501.558594 598.449219 495.195312 590.824219 490.082031 C 580.105469 483.132812 568.378906 477.445312 556.160156 473.679688 C 540.0625 470.019531 523.476562 468.027344 506.953125 467.925781 C 496.355469 468.28125 485.792969 467.808594 475.230469 467.101562 C 460.226562 464.804688 445.15625 463.101562 430.019531 464.855469 C 438.914062 460.148438 447.789062 460.789062 458.40625 461.09375 C 478.992188 460.824219 499.546875 462.207031 520.117188 460.804688 C 536.113281 459.539062 552.433594 458.59375 567.804688 453.601562 C 587.078125 448.503906 588.917969 425.367188 588.816406 408.695312 C 588.292969 398.605469 584.648438 389.222656 581.574219 379.671875 C 578.097656 369.394531 573.457031 358.644531 567.671875 349.328125 C 561.273438 340.335938 548.6875 342.5625 539.152344 343.457031 C 534.679688 344.03125 530.175781 344.554688 525.804688 345.667969 C 516.675781 347.945312 508.691406 353.160156 500.421875 357.429688 C 494.667969 360.515625 489.117188 363.992188 483.902344 367.960938 C 473.675781 375.6875 463.347656 383.382812 454.507812 392.730469 C 445.78125 401.726562 436.71875 410.484375 429.296875 420.625 C 425.632812 425.46875 422.679688 430.785156 419.8125 436.117188 C 417.449219 440.84375 414.480469 445.332031 412.640625 450.292969 C 409.46875 447.964844 405.382812 447.070312 401.214844 448.773438 C 399.324219 449.550781 397.519531 450.746094 396.136719 452.285156 C 394.953125 446.359375 387.683594 442.851562 383.496094 438.96875 C 372.425781 429.402344 360.96875 421.046875 348.734375 413.066406 C 335.300781 402.6875 323.777344 389.898438 308.722656 381.695312 C 302.597656 377.964844 296.910156 373.5625 290.785156 369.867188 C 282.921875 365.277344 274.367188 361.882812 265.488281 359.84375 C 256.578125 357.902344 246.707031 356.28125 238.320312 360.871094 C 219.101562 372.058594 213.496094 395.550781 207.945312 415.53125 C 204.671875 424.660156 205.886719 434.246094 206.074219 443.695312 C 206.125 449.464844 205.058594 455.1875 204.992188 460.957031 C 204.941406 470.863281 209.601562 481.039062 217.34375 487.28125 C 230.40625 496.394531 247.769531 494.925781 262.855469 493.324219 C 267.464844 492.597656 272.019531 491.601562 276.542969 490.453125 C 251.871094 505.152344 233.140625 537.113281 245.964844 565.3125 C 247.6875 568.753906 249.644531 572.078125 251.6875 575.371094 C 251.871094 576.0625 252.074219 576.769531 252.257812 577.460938 C 253.796875 582.152344 257.121094 586.085938 257.894531 591.0625 C 259.109375 600.511719 256.578125 610.046875 254.992188 619.3125 C 253.796875 625.960938 249.222656 630.585938 244.160156 634.820312 C 236.667969 641.875 228.332031 647.78125 219.742188 653.332031 C 218.492188 651.832031 216.417969 651.003906 214.390625 651.832031 C 208.738281 653.839844 202.917969 655.558594 197.027344 656.722656 C 195.257812 656.992188 193.332031 656.945312 191.679688 656.199219 C 191.863281 653.789062 189.550781 651.492188 187.089844 651.847656 C 181.671875 653.164062 180.710938 659.878906 178.347656 664.117188 C 173.789062 672.082031 164.019531 674.628906 155.734375 676.820312 C 149.019531 678.558594 138.910156 679.960938 133.441406 674.613281 C 132.546875 673.496094 132.9375 671.808594 132.3125 670.542969 C 131.132812 668.773438 129.089844 669.9375 129.054688 671.859375 C 127.519531 681.953125 121.730469 689.949219 111.539062 692.5 C 86.039062 701.527344 84.285156 670.34375 90.109375 653.46875 C 92.605469 646.175781 95.675781 639.003906 100.453125 632.914062 C 101.480469 631.664062 102.542969 630.433594 103.675781 629.199219 C 105.125 627.917969 106.78125 626.316406 106.441406 624.1875 C 106.289062 622.601562 105.09375 621.507812 103.84375 620.679688 C 95.558594 614.890625 92.335938 608.476562 93.230469 598.304688 C 93.804688 594.488281 95.121094 585.714844 99.167969 584.332031 C 100.722656 584.246094 103.136719 584.667969 103.4375 582.625 C 104.265625 582.695312 105.074219 582.289062 105.785156 581.089844 C 106.242188 579.992188 105.632812 578.457031 104.535156 578.070312 C 101.328125 574.035156 99.675781 568.6875 100.585938 563.558594 C 101.261719 560.03125 102.476562 556.402344 105.277344 554.007812 C 107.960938 551.425781 116.957031 547.070312 110.1875 543.644531 C 106.476562 535.5625 100.113281 521.707031 111.453125 516.964844 C 113.242188 516.257812 113.816406 513.929688 112.871094 512.359375 C 110.746094 509.117188 107.183594 511.886719 105.144531 513.757812 C 95.203125 522.09375 100.535156 536.589844 105.074219 546.496094 C 99.726562 550.039062 96.164062 555.558594 95.355469 561.953125 C 94.394531 567.152344 95.421875 572.617188 98.054688 577.191406 C 98.476562 578.019531 99.167969 579.148438 99.996094 580.179688 C 97.261719 580.179688 94.679688 581.425781 93.210938 583.890625 C 87.375 593.476562 86.089844 606.824219 91.8125 616.746094 C 93.957031 619.917969 96.671875 622.214844 99.609375 624.863281 C 88.84375 636.863281 82.292969 653.839844 81.671875 669.902344 C 81.871094 676.601562 82.445312 683.742188 85.972656 689.613281 C 90.679688 697.105469 100.25 700.835938 108.722656 698 C 119.132812 695.554688 129.15625 688.683594 131.46875 677.664062 C 138.894531 684.214844 149.894531 683.300781 159.042969 681.902344 C 170.636719 680.46875 183.679688 675.960938 187.847656 663.929688 C 191.929688 666.125 196.503906 666.039062 200.960938 665.210938 C 194.851562 669.429688 189.027344 674.019531 182.683594 677.886719 C 170.972656 684.753906 159.226562 691.789062 149.558594 701.460938 C 137.628906 713.121094 129.730469 728.171875 124.753906 743.984375 C 119.488281 760.015625 115 776.636719 114.355469 793.582031 C 114.507812 798.070312 114.15625 802.945312 116.09375 807.113281 C 117.933594 810.523438 123.117188 811.214844 125.527344 808.042969 C 129.445312 800.042969 137.527344 794.929688 145.203125 790.761719 C 155.09375 785.851562 166.992188 788.992188 176.609375 793.140625 C 179.105469 794.542969 181.773438 795.671875 184.117188 797.308594 C 186.851562 799.890625 190.175781 801.867188 193.636719 800.652344 C 194.023438 800.902344 194.429688 801.125 194.835938 801.257812 C 200.015625 803.011719 205.042969 796.734375 202.15625 792.078125 C 194.613281 779.792969 188.625 765.957031 187.339844 751.476562 C 186.75 741.808594 190.261719 732.1875 195.644531 724.273438 C 205.804688 709.457031 223.707031 704.261719 239.738281 698.421875 C 256.378906 691.335938 272.507812 679.84375 280.304688 663.050781 C 283.832031 653.738281 284.863281 644.035156 283.984375 634.449219 C 284.238281 634.484375 284.472656 634.5 284.726562 634.515625 C 290.179688 634.921875 294.820312 630.433594 298.09375 626.535156 C 307.457031 631.125 326.8125 626.148438 331.402344 616.410156 C 336.9375 620.15625 344.160156 620.054688 350.554688 619.347656 C 356.582031 618.824219 362.097656 615.820312 365.914062 611.144531 C 371.363281 614.453125 378.367188 615.09375 384.59375 614.199219 C 392.914062 613.070312 398.9375 606.46875 402.296875 599.179688 C 406.34375 603.214844 412.824219 603.265625 418.054688 604.902344 C 429.902344 607.632812 443.839844 609.675781 454.355469 602.117188 C 462.726562 607.90625 473.121094 610.453125 483.058594 611.953125 C 492.628906 612.324219 502.363281 608.242188 509.890625 602.488281 C 516.320312 606.269531 523.964844 607.246094 531.101562 609.050781 C 539.792969 611.042969 555.335938 610.097656 556.753906 598.976562 C 556.851562 594.828125 550.777344 594.21875 550.003906 598.304688 C 546.796875 603.71875 537.835938 603.464844 532.402344 602.167969 C 526.125 600.292969 518.851562 599.601562 513.636719 595.417969 C 513.519531 589.949219 506.179688 589.78125 505.285156 595.0625 C 499.105469 599.636719 491.226562 602.945312 483.464844 602.859375 C 475.109375 601.527344 466.21875 600.039062 458.910156 595.671875 C 458.894531 593.054688 455.753906 591.28125 453.511719 592.597656 C 452.734375 593.019531 452.195312 593.664062 451.855469 594.457031 C 450.996094 595.753906 449.730469 596.785156 448.550781 597.796875 C 435.945312 605.171875 420.164062 602.335938 406.734375 598.910156 C 405.671875 598.503906 404.269531 597.863281 403.933594 596.617188 C 403.746094 596.042969 404.035156 595.46875 403.628906 594.945312 C 403.191406 594.253906 402.210938 594.234375 401.621094 594.742188 C 398.261719 599.398438 395.949219 605.070312 390.753906 608.074219 C 384.15625 611.871094 374.890625 611.382812 368.597656 607.164062 C 369.085938 605.746094 368.175781 604.089844 366.65625 603.871094 C 365.609375 603.6875 364.429688 604.261719 364.007812 605.273438 C 362.808594 607.363281 360.882812 609.035156 359.113281 610.671875 C 353.136719 615.414062 338.695312 617.320312 333.074219 611.433594 C 332.601562 610.839844 332.011719 609.542969 331.25 609.085938 C 329.800781 608.074219 327.625 609.019531 327.371094 610.757812 C 328.113281 619.769531 312.148438 623.917969 305.078125 623.546875 C 302.96875 623.261719 300.726562 622.890625 298.9375 621.65625 C 297.550781 618.6875 293.148438 620.511719 294.566406 623.597656 C 292.894531 626.871094 289.554688 629.570312 286.078125 630.769531 C 285.265625 630.804688 284.371094 630.617188 283.5625 630.769531 C 281.167969 613.742188 273.050781 597.207031 262.671875 583.789062 C 260.105469 580.042969 257.304688 576.433594 254.722656 572.703125 C 253.996094 569.3125 253.558594 565.835938 253.746094 562.425781 C 255.601562 552.707031 262.839844 544.875 269.253906 537.703125 C 276.207031 529.585938 282.871094 521.082031 291.867188 515.09375 C 298.292969 510.570312 305.027344 506.402344 312.03125 502.839844 C 319.386719 499.5 326.980469 496.78125 334.375 493.542969 C 341.273438 490.488281 348.515625 488.429688 355.90625 486.996094 C 368.054688 484.277344 380.207031 481.511719 392.320312 478.609375 C 393.335938 478.21875 394.652344 478.117188 395.695312 477.730469 C 397.0625 478.742188 398.582031 479.535156 400.21875 480.042969 C 405.992188 482.167969 410.984375 479.484375 414.308594 475.132812 C 415.726562 475.503906 417.230469 475.214844 418.15625 473.933594 C 424.585938 474.238281 433.800781 472.601562 436.753906 472.835938 C 443.234375 472.835938 450.269531 473.074219 456.851562 473.054688 C 460.496094 473.074219 464.125 473.207031 467.753906 473.394531 C 480.714844 474.945312 493.65625 477.175781 506.515625 478.660156 C 528.265625 482.660156 548.972656 492.023438 567.300781 504.308594 C 571.871094 507.601562 576.210938 511.363281 579.363281 516.089844 C 581.929688 520.121094 583.480469 524.660156 585.070312 529.148438 C 588.613281 538.546875 586.992188 548.925781 583.550781 558.257812 C 579.566406 568.90625 573.898438 578.777344 567.957031 588.449219 C 560.566406 600.414062 555.335938 614.65625 557.34375 628.898438 C 559.621094 640.878906 567.351562 652.792969 577.441406 662.699219 C 579.195312 668.722656 582.25 674.511719 587.007812 679.808594 C 593.421875 687.082031 601.371094 692.753906 609.300781 698.238281 C 617.082031 703.402344 625.230469 709.054688 629.5 717.625 C 636.539062 733.675781 624.488281 750.449219 614.210938 762.125 C 611.695312 765.011719 609.199219 767.929688 606.652344 770.765625 C 604.339844 773.347656 600.929688 775.625 600.289062 779.253906 C 599.933594 781.835938 601.300781 784.402344 603.699219 785.464844 C 609.722656 787.691406 616.269531 784.941406 622.414062 784.46875 C 633.363281 783.152344 644.402344 782.511719 655.285156 780.6875 C 660.820312 780.214844 666.320312 779.609375 671.753906 778.613281 C 674.4375 780.148438 678.152344 779.910156 680.363281 777.617188 C 680.714844 777.230469 681.054688 776.824219 681.40625 776.433594 C 683.753906 775.964844 686.707031 774.765625 685.695312 771.929688 C 685.644531 771.8125 685.574219 771.695312 685.523438 771.59375 C 688.054688 768.417969 690.402344 765.078125 692.375 761.535156 C 698.992188 749.773438 700.679688 735.613281 697.421875 722.554688 C 691.160156 693.933594 659.097656 687.148438 634.867188 680.148438 C 615.914062 675.574219 601.371094 669.9375 586.855469 656.4375 C 586.03125 655.59375 585.1875 654.75 584.359375 653.890625 C 583.988281 648 584.917969 641.6875 587.210938 635.023438 C 589.742188 625.757812 594.636719 617.4375 598.382812 608.648438 C 598.519531 608.730469 598.667969 608.78125 598.839844 608.832031 C 602.078125 609.761719 605.417969 610.554688 608.8125 610.65625 C 616.015625 610.65625 626.414062 610.117188 628.523438 601.644531 C 637.398438 614.585938 655.199219 622.871094 670.558594 617.691406 C 674.132812 624.359375 677.527344 631.394531 683.179688 636.574219 C 691.667969 644.726562 704.914062 648.234375 715.933594 643.394531 C 723.292969 653.769531 738.410156 656.808594 749.785156 651.78125 C 768.515625 642.058594 758.039062 613.167969 748.707031 599.921875 Z M 431.472656 455.136719 C 427.625 456.875 424.0625 459.203125 420.925781 462.054688 C 419.777344 463.082031 419.542969 464.789062 420.132812 466.15625 C 419.523438 466.273438 418.917969 466.40625 418.328125 466.542969 C 418.496094 465.699219 418.648438 464.855469 418.699219 464.046875 C 418.78125 463.421875 418.816406 462.8125 418.816406 462.1875 C 419.390625 462.238281 419.996094 462.140625 420.503906 461.800781 C 422.628906 460.214844 424.285156 458.019531 426.140625 456.132812 C 435.742188 446.226562 445.359375 436.304688 455.132812 426.550781 C 463.316406 418.785156 472.476562 412.207031 481.167969 405.050781 C 490.804688 396.75 501.132812 389.339844 512.117188 382.925781 C 528.503906 372.785156 551.015625 361.882812 568.851562 374.691406 C 570.472656 376.449219 572.277344 378.167969 573.726562 380.074219 C 574.421875 380.917969 574.84375 382.269531 575.230469 383.703125 C 574.671875 385.644531 574.875 387.890625 574.671875 389.863281 C 574.132812 400.613281 571.570312 412.949219 562.894531 420.1875 C 555.234375 424.339844 545.953125 423.257812 537.597656 424.914062 C 528.992188 426.078125 520.570312 428.21875 512 429.535156 C 499.527344 431.34375 486.957031 432.574219 474.570312 434.96875 C 459.550781 438.242188 443.742188 445.027344 431.457031 455.136719 Z M 582.519531 414.6875 C 581.085938 422.871094 580.023438 432.777344 574.132812 439.390625 C 567.519531 446.53125 548.027344 446.953125 538.390625 447.84375 C 508.035156 450.375 477.472656 448.757812 447.183594 451.625 C 455.992188 447.136719 465.492188 444.066406 475.195312 442.210938 C 489.21875 439.660156 503.375 437.855469 517.417969 435.441406 C 525.652344 433.824219 533.851562 431.964844 542.222656 431.171875 C 549.34375 430.226562 556.871094 430.597656 563.636719 427.898438 C 576.445312 421.992188 579.957031 405.894531 579.886719 392.984375 C 579.886719 392.125 579.886719 391.28125 579.835938 390.421875 C 582.046875 398.335938 583.617188 406.519531 582.519531 414.667969 Z M 437.867188 422.128906 C 448.296875 409.925781 459.449219 398.234375 471.414062 387.515625 C 482.773438 378.589844 494.027344 369.328125 507.003906 362.8125 C 516.132812 357.765625 525.332031 352.550781 535.792969 350.984375 C 543.066406 349.96875 556.667969 345.902344 562.539062 351.335938 C 567.789062 358.105469 571.433594 366.101562 574.503906 374.167969 C 567.128906 367.640625 556.753906 365.445312 547.082031 365.984375 C 538.863281 366.828125 531.035156 369.664062 523.457031 372.851562 C 507.578125 379.671875 492.457031 388.394531 479.429688 399.835938 C 470.65625 407.058594 461.171875 413.421875 452.785156 421.097656 C 440.6875 432.65625 429.296875 444.503906 418.207031 457.144531 C 418.125 457.160156 418.039062 457.226562 417.957031 457.261719 C 417.804688 456.855469 417.632812 456.453125 417.449219 456.0625 C 418.125 455.339844 418.460938 454.292969 418.023438 453.261719 C 423.726562 442.394531 430.207031 431.730469 437.867188 422.113281 Z M 251.738281 365.933594 C 270.519531 367.65625 285.066406 374.488281 300.082031 385.847656 C 305.214844 389.273438 310.460938 392.53125 315.507812 396.089844 C 323.320312 401.996094 329.632812 408.390625 337.140625 414.957031 C 345.15625 421.722656 354.371094 426.835938 362.925781 432.859375 C 367.28125 436.132812 371.515625 439.578125 375.851562 442.867188 C 379.953125 446.207031 384.679688 448.890625 388.476562 452.585938 C 381.960938 448.824219 375.75 444.554688 369.507812 440.402344 C 352.816406 427.933594 337.039062 413.859375 317.515625 405.859375 C 297.519531 395.652344 276.390625 382.726562 253.070312 384.816406 C 245.019531 385.40625 236.699219 386.472656 229.851562 391.09375 C 226.609375 393.070312 224.316406 396.175781 222.171875 399.246094 C 218.949219 404.054688 215.691406 408.949219 213.515625 414.316406 C 212.535156 417.890625 210.949219 421.265625 209.601562 424.710938 C 209.71875 423.597656 209.886719 422.464844 210.15625 421.335938 C 214.746094 402.265625 227.269531 364.230469 251.753906 365.917969 Z M 384.257812 456.484375 C 374.773438 453.550781 364.679688 453.398438 354.808594 453.550781 C 346.710938 453.230469 338.609375 453.734375 330.660156 455.355469 C 322.882812 456.636719 315.539062 459.675781 308.066406 462.089844 C 298.664062 464.671875 289.097656 466.578125 279.5625 468.636719 C 268.511719 470.339844 257.171875 470.527344 246.203125 468.179688 C 237.714844 466.375 228.515625 465.515625 221.058594 460.738281 C 217.34375 458.140625 213.886719 454.714844 213.851562 449.90625 C 213.480469 444.503906 212.332031 439.59375 211.335938 434.195312 C 211.304688 429.65625 213.398438 425.519531 214.863281 421.335938 C 216.382812 415.394531 219.03125 409.945312 222.390625 404.8125 C 224.957031 401.269531 227.199219 397.355469 230.964844 394.789062 C 239.28125 389.425781 249.695312 389.898438 259.210938 390.132812 C 274.046875 391.871094 288.035156 399.078125 301.601562 405.117188 C 311.894531 410.890625 323.085938 414.90625 333.074219 421.167969 C 350.117188 432.808594 365.863281 446.800781 384.257812 456.484375 Z M 249.695312 485.914062 C 232.769531 485.730469 218.222656 484.378906 212.132812 466.070312 C 211.40625 463.625 211.085938 461.125 210.933594 458.613281 C 213.347656 462.679688 217.378906 465.917969 221.597656 468.011719 C 241.070312 475.4375 262.335938 475.824219 282.835938 472.601562 C 292.929688 470.898438 303.171875 469.933594 313.109375 467.4375 C 318.023438 466.171875 322.832031 464.585938 327.792969 463.539062 C 336.332031 461.816406 344.988281 461.195312 353.695312 461.226562 C 363.921875 460.570312 374.28125 459.996094 384.375 461.988281 C 385.722656 461.917969 387.582031 462.679688 389.351562 463.167969 C 389.300781 463.503906 389.285156 463.84375 389.269531 464.164062 C 383.835938 463.386719 378.351562 464.621094 372.882812 465.191406 C 370.046875 465.261719 367.195312 465.34375 364.359375 465.429688 C 355.519531 465.816406 346.574219 465.683594 337.851562 467.386719 C 328.5 469.363281 319.335938 472.042969 310.378906 475.269531 C 307.035156 476.296875 303.695312 477.328125 300.320312 478.222656 C 283.800781 482.558594 266.890625 486.421875 249.710938 485.914062 Z M 269.828125 608.328125 C 276.964844 630.90625 277.101562 657.71875 256.699219 673.480469 C 250.722656 678.375 244.292969 682.710938 237.324219 686.054688 C 231.65625 688.667969 225.679688 690.59375 219.960938 693.089844 C 197.332031 701.914062 179.933594 720.765625 177.335938 745.503906 C 176.1875 757.957031 179.445312 770.308594 183.394531 782.039062 C 184.421875 784.5 185.839844 788.519531 187.644531 792.28125 C 187.375 792.0625 187.105469 791.859375 186.820312 791.707031 C 179.476562 786.710938 171.511719 782.832031 162.90625 780.570312 C 149.457031 775.878906 135.585938 782.273438 125.191406 790.8125 C 126.539062 769.71875 129.914062 748.085938 139.097656 728.796875 C 148.5625 709.980469 166.972656 698.523438 185.113281 689.175781 C 191.359375 685.800781 197.214844 681.785156 202.851562 677.515625 C 211.808594 670.796875 221.496094 665.0625 230.085938 657.855469 C 236.71875 652.320312 242.777344 646.125 248.511719 639.664062 C 253.507812 634.296875 258.25 628.273438 259.144531 620.746094 C 260.191406 610.738281 262.234375 600.582031 261.101562 590.507812 C 261.070312 590.304688 261.019531 590.101562 260.984375 589.898438 C 264.527344 595.738281 267.734375 601.761719 269.828125 608.34375 Z M 325.242188 488.378906 C 301.265625 497.136719 279.328125 511.820312 264.222656 532.609375 C 258.285156 540 252.664062 547.507812 250.183594 556.925781 C 249.59375 559.1875 249.441406 561.464844 249.542969 563.742188 C 248.851562 562.273438 248.210938 560.789062 247.6875 559.238281 C 239.535156 534.246094 258.015625 510.148438 277.84375 496.765625 C 287.746094 491.28125 298.464844 487.433594 308.910156 483.082031 C 318.882812 479.707031 329.292969 477.226562 339.570312 474.878906 C 344.378906 474.003906 349.222656 473.730469 354.101562 473.445312 C 365.675781 473.058594 377.234375 471.707031 388.8125 471.589844 C 389.320312 472.398438 389.941406 472.886719 390.585938 473.140625 C 387.410156 473.53125 384.1875 474.070312 380.832031 474.695312 C 362.03125 478.085938 342.640625 479.859375 325.261719 488.363281 Z M 404.945312 472.078125 C 404.589844 472.214844 404.21875 472.296875 403.832031 472.296875 C 400.101562 471.941406 396.8125 468.769531 396.609375 464.972656 C 396.574219 463.574219 396.863281 462.15625 397.519531 460.90625 C 397.519531 460.890625 397.757812 460.484375 398.027344 460.078125 L 398.128906 459.960938 C 399.578125 460.453125 401.25 460.25 402.546875 459.285156 C 402.75 459.136719 402.953125 458.984375 403.15625 458.832031 C 403.628906 458.964844 404.101562 459.101562 404.574219 459.234375 C 405.703125 459.539062 406.886719 459.234375 407.730469 458.511719 C 411.121094 461.902344 408.824219 469.75 404.976562 472.0625 Z M 616.457031 685.800781 C 635.574219 691.554688 666.269531 695.0625 679.433594 710.589844 C 686.65625 718.925781 687.734375 730.941406 685.542969 741.386719 C 683.804688 749.285156 679.246094 756.152344 674.117188 762.277344 C 671.652344 765.28125 668.566406 768.707031 668.277344 772.21875 C 664.332031 772.453125 660.363281 772.488281 656.414062 772.4375 C 644.671875 773.296875 632.839844 772.890625 621.078125 773.632812 C 640.417969 755.492188 655.945312 724.292969 632.335938 703.03125 C 623.628906 694.792969 612.238281 690.441406 602.652344 683.402344 C 599.125 680.972656 596.136719 678.339844 593.640625 675.539062 C 601.148438 680.347656 609.015625 683.960938 616.421875 685.816406 Z M 585.691406 610.621094 C 580.714844 621.21875 576.714844 632.863281 575.855469 644.339844 C 570.4375 637.605469 566.183594 630.078125 565.8125 621.320312 C 564.699219 599.398438 580.648438 581.75 587.195312 561.652344 C 590.03125 554.378906 591.734375 546.597656 591.699219 538.785156 C 590.753906 529.046875 587.785156 519.058594 582.402344 510.839844 C 568.480469 492.96875 542.15625 480.886719 517.617188 474.492188 C 530.359375 475.488281 543.117188 476.804688 555.6875 478.996094 C 563.703125 481.023438 571.433594 484.128906 578.925781 487.601562 C 588.054688 491.90625 596.410156 497.828125 603.058594 505.558594 C 608.609375 512.476562 614.53125 519.75 614.871094 529.117188 C 615.222656 537.585938 614.109375 546.160156 611.292969 554.15625 C 608.523438 561.210938 604.914062 567.878906 601.792969 574.78125 C 596.457031 586.742188 590.550781 598.453125 585.691406 610.640625 Z M 585.691406 610.621094 " fill-opacity="1" fill-rule="nonzero"/></g><g clip-path="url(#f82c133b6f)"><path fill="#fbf0d8" d="M 88.570312 163.402344 C 87.035156 166.472656 86.039062 170.402344 85.992188 172.074219 C 85.195312 183.230469 87.898438 200.171875 97.042969 207.496094 C 88.960938 215.847656 91.152344 226.816406 98.15625 235.070312 C 99.761719 237.027344 102.039062 239.625 104.601562 240.839844 C 103.558594 241.632812 102.628906 242.5625 101.902344 243.675781 C 98.96875 248.367188 98.546875 254.171875 98.511719 259.570312 C 98.125 269.832031 103.421875 280.664062 113.363281 284.480469 C 113.816406 284.679688 114.355469 284.867188 114.929688 285 C 109.867188 288.78125 107.421875 295.480469 107 301.691406 C 106.78125 310.9375 115.621094 325.03125 124.53125 327.863281 C 126.691406 328.488281 130.117188 328.910156 130.472656 325.890625 C 130.710938 322.5 126.710938 323.070312 124.601562 321.957031 C 118.476562 317.015625 113.140625 309.503906 112.484375 301.488281 C 112.839844 296.730469 114.777344 290.957031 119.570312 289.050781 C 122.441406 288.375 122.574219 285.40625 121.175781 283.886719 C 121.460938 283.398438 121.613281 282.773438 121.546875 281.980469 C 121.308594 280.632812 120.078125 279.617188 118.695312 279.667969 C 115.167969 280.328125 112.148438 277.695312 109.816406 275.332031 C 105.496094 270.878906 104.265625 264.550781 104.503906 258.542969 C 104.90625 253.902344 104.90625 247.253906 109.917969 245.175781 C 110.929688 244.824219 111.757812 244.179688 112.164062 243.152344 C 112.738281 241.75 112.164062 240.332031 111.152344 239.488281 C 112.71875 236.722656 110.1875 232.925781 106.710938 235.238281 C 100.113281 229.6875 94.257812 219.324219 100.992188 211.679688 C 101.683594 210.703125 102.832031 210.601562 103.878906 210.28125 C 105.867188 209.621094 106.59375 206.921875 105.144531 205.386719 C 102.796875 203.648438 99.761719 202.835938 98.039062 200.238281 C 93.617188 194.484375 91.878906 187.464844 90.460938 180.277344 C 89.855469 175.6875 89.550781 169.238281 92.453125 165.171875 C 94.78125 165.964844 96.910156 165.964844 97.683594 163.484375 C 98.292969 160.734375 95.304688 159.957031 93.347656 159.164062 C 90.242188 157.78125 87.207031 156.195312 84.539062 154.070312 C 80.960938 151.199219 78.9375 146.964844 78.023438 142.542969 C 76.929688 136.417969 74.277344 129.75 76.828125 123.695312 C 77.839844 121.785156 79.089844 119.914062 80.808594 118.582031 C 83.289062 118.34375 84.792969 115.289062 82.851562 113.433594 C 81.199219 111.730469 79.039062 113.433594 77.082031 112.589844 C 73.082031 110.195312 68.222656 108.757812 65.097656 105.183594 C 60.375 98.753906 66.347656 92.238281 70.398438 87.3125 C 72.339844 87.09375 73.046875 85.589844 72.761719 84.207031 C 74.378906 83.429688 74.886719 80.730469 72.8125 79.785156 C 62.617188 75.027344 56.8125 63.398438 56.136719 52.515625 C 54.957031 45.359375 56.136719 40.652344 62.988281 37.242188 C 86.933594 30.222656 92.976562 54.035156 98.664062 48.820312 C 101.820312 45.359375 96.285156 42.574219 94.191406 40.3125 C 89.6875 36.046875 84.386719 32.417969 78.277344 30.933594 C 72.390625 29.953125 65.925781 29.566406 60.324219 31.875 C 55.496094 34.1875 51.042969 38.457031 49.929688 43.824219 C 48.410156 58.539062 54.636719 75.179688 67.78125 82.652344 C 66.433594 83.648438 65.417969 85.320312 64.289062 86.433594 C 61.183594 90.164062 57.503906 94.179688 57.304688 99.292969 C 56.746094 109.972656 65.082031 114.292969 73.636719 117.921875 C 67.628906 125.53125 70.683594 135.507812 72.457031 144.078125 C 73.824219 151.722656 78.800781 158.304688 85.652344 161.882812 C 86.394531 162.203125 87.425781 162.792969 88.570312 163.402344 Z M 88.570312 163.402344 " fill-opacity="1" fill-rule="nonzero"/></g><path fill="#fbf0d8" d="M 105.515625 465.648438 C 101.414062 477.226562 102.644531 492.074219 111.285156 501.304688 C 112.855469 503.011719 116.484375 506.046875 118.070312 502.808594 C 118.507812 501.660156 117.933594 500.480469 116.90625 499.988281 C 111.996094 496.140625 109.867188 489.832031 109.328125 483.804688 C 108.773438 476.683594 108.417969 466.59375 115.402344 462.460938 C 116.738281 461.597656 119.46875 460.519531 121.648438 459.136719 C 122.84375 459.136719 124.058594 458.390625 124.230469 456.804688 C 124.703125 456.046875 124.851562 455.238281 124.515625 454.34375 C 124.886719 451.050781 125.242188 447.761719 126.507812 444.488281 C 127.097656 443.273438 127.671875 441.839844 128.972656 441.214844 C 128.921875 441.230469 128.871094 441.246094 128.820312 441.265625 C 128.800781 441.265625 128.785156 441.28125 128.75 441.296875 C 128.75 441.296875 128.699219 441.296875 128.648438 441.332031 C 128.699219 441.316406 128.75 441.28125 128.820312 441.265625 C 128.820312 441.265625 128.851562 441.265625 128.871094 441.246094 C 128.871094 441.246094 128.921875 441.246094 128.972656 441.214844 C 130.269531 441.753906 131.839844 440.960938 132.195312 439.578125 C 132.546875 438.582031 133.15625 437.46875 132.75 436.371094 C 132.09375 434.296875 129.023438 434.226562 128.261719 436.269531 C 121.527344 438.074219 120.164062 445.585938 119.488281 452.097656 C 115.757812 447.40625 115.859375 437.148438 117.308594 431.765625 C 118.1875 428.238281 121.597656 426.296875 124.179688 424.050781 C 127.570312 424.1875 128.226562 419.125 124.902344 418.382812 C 124.195312 418.179688 123.214844 418.296875 122.710938 417.742188 C 117.714844 409.21875 115.050781 394.808594 125.308594 389.070312 C 127.621094 388.023438 126.019531 384.496094 123.707031 385.527344 C 111.625 392.699219 112.296875 410.601562 118.8125 421.4375 C 113.835938 425.722656 111.792969 432.015625 111.757812 438.464844 C 111.4375 444.488281 112.148438 450.898438 115.523438 456.0625 C 113.394531 457.09375 111.203125 458.070312 109.429688 459.65625 C 107.625 461.277344 106.339844 463.421875 105.480469 465.683594 Z M 105.515625 465.648438 " fill-opacity="1" fill-rule="nonzero"/><path fill="#fbf0d8" d="M 121.191406 330.632812 C 116.464844 333.550781 114.847656 339.441406 114.644531 344.6875 C 114.375 352.199219 116.703125 366.085938 125.546875 367.199219 C 125.273438 367.234375 125.023438 367.285156 124.785156 367.386719 C 123.707031 367.859375 123.519531 369.496094 124.464844 370.1875 C 121.445312 374.015625 119.589844 378.742188 119.941406 383.671875 C 119.941406 385.105469 121.445312 386.132812 122.792969 385.878906 C 125.207031 385.375 124.683594 382.945312 124.464844 381.140625 C 124.246094 376.96875 127.300781 373.730469 128.734375 370.050781 C 129.105469 368.566406 127.941406 367.554688 126.609375 367.285156 C 127.097656 367.285156 127.621094 367.285156 128.144531 367.199219 C 129.257812 367.148438 130.152344 366.1875 130.117188 365.074219 C 129.796875 361.765625 125.613281 364.027344 123.960938 362.15625 C 124.007812 362.1875 124.007812 362.203125 124.027344 362.203125 C 124.078125 362.253906 124.128906 362.289062 124.179688 362.339844 C 118.828125 356.097656 117.429688 339.070312 126.238281 335.238281 C 127.804688 334.445312 128.601562 332.640625 127.839844 330.984375 C 126.539062 328.152344 123.183594 329.113281 121.207031 330.648438 Z M 121.191406 330.632812 " fill-opacity="1" fill-rule="nonzero"/><path fill="#fbf0d8" d="M 71.292969 48.363281 C 72.894531 47.4375 74.800781 47.351562 76.574219 47.722656 C 77.90625 47.941406 79.191406 47.015625 79.410156 45.679688 C 79.644531 44.3125 78.683594 43.132812 77.367188 42.84375 C 72.558594 41.496094 66.550781 43.671875 65.167969 48.820312 C 63.378906 55.453125 66.296875 66.199219 74.398438 66.46875 C 76.066406 66.402344 78.71875 66.351562 78.546875 64.039062 C 78.296875 61.730469 75.730469 62.234375 74.078125 62.320312 C 69.65625 61.054688 67.679688 51.183594 71.292969 48.347656 Z M 71.292969 48.363281 " fill-opacity="1" fill-rule="nonzero"/><path fill="#fbf0d8" d="M 677.949219 34.375 C 679.550781 34.796875 681.222656 33.800781 681.644531 32.199219 C 682.976562 26.765625 683.988281 20.554688 681.304688 15.375 C 677.257812 6.765625 665.96875 10.78125 661.578125 17.011719 C 659.640625 19.390625 657.679688 23.691406 660.683594 26.003906 C 662.320312 26.949219 665.023438 27.253906 666.371094 25.648438 C 667.433594 24.332031 666.878906 22.191406 665.292969 21.566406 C 671.128906 14.511719 677.644531 14.039062 676.734375 24.992188 C 676.886719 27.996094 673.746094 32.941406 677.949219 34.359375 Z M 677.949219 34.375 " fill-opacity="1" fill-rule="nonzero"/><path fill="#fbf0d8" d="M 669.425781 66.960938 C 665.898438 69.171875 669.039062 74.484375 672.648438 72.425781 C 676.394531 70.097656 680.039062 66.910156 681.019531 62.421875 C 682.183594 55.0625 676.023438 50.894531 669.207031 52.246094 C 665.730469 52.785156 666.167969 58.03125 669.679688 57.949219 C 671.484375 57.914062 674.488281 57.410156 675.078125 59.652344 C 675.25 60.378906 675.332031 61.136719 674.960938 61.8125 C 673.847656 64.191406 671.621094 65.644531 669.460938 66.960938 Z M 669.425781 66.960938 " fill-opacity="1" fill-rule="nonzero"/><path fill="#fbf0d8" d="M 656.316406 124.890625 C 657.226562 125.128906 658.085938 124.941406 658.929688 124.519531 C 661.765625 123.085938 664.480469 121.464844 666.960938 119.441406 C 673.578125 114.597656 676.597656 105.738281 670.304688 99.292969 C 669.359375 98.210938 668.347656 97.265625 667.234375 96.375 C 664.179688 93.976562 660.28125 98.433594 663.066406 101.148438 C 664.734375 102.820312 666.625 104.558594 667.25 106.921875 C 667.097656 113.011719 660.027344 115.980469 655.4375 118.597656 C 652.804688 119.980469 653.445312 124.265625 656.316406 124.910156 Z M 656.316406 124.890625 " fill-opacity="1" fill-rule="nonzero"/><path fill="#fbf0d8" d="M 665.949219 154.828125 C 665.796875 149.664062 662.828125 143.859375 657.679688 142.1875 C 655.554688 141.597656 653.160156 142.019531 651.84375 143.976562 C 650.085938 146.625 653.191406 150.355469 656.113281 149.058594 C 659.992188 152.296875 658.59375 156.902344 656.398438 160.734375 C 655.488281 162.589844 656.652344 164.953125 658.476562 165.695312 C 663.976562 167.621094 665.546875 158.640625 665.949219 154.8125 Z M 665.949219 154.828125 " fill-opacity="1" fill-rule="nonzero"/><path fill="#fbf0d8" d="M 662.828125 210.550781 C 669.695312 202.703125 666.640625 190.046875 658.375 184.476562 C 656.652344 183.296875 654.492188 182.417969 652.367188 182.636719 C 650.796875 182.90625 649.363281 183.683594 648.636719 185.167969 C 647.355469 187.871094 650.882812 190.773438 653.261719 188.933594 C 657.730469 190.992188 660.261719 196.578125 659.519531 201.351562 C 658.324219 206.601562 652.921875 209.148438 648.0625 210.058594 C 646.003906 210.550781 644.824219 212.878906 645.378906 214.851562 C 647.859375 221.71875 659.976562 214.160156 662.8125 210.550781 Z M 662.828125 210.550781 " fill-opacity="1" fill-rule="nonzero"/><path fill="#fbf0d8" d="M 594.164062 48.398438 C 594.992188 46.863281 595.785156 44.785156 597.707031 44.195312 C 599.511719 43.519531 601.4375 44.195312 602.636719 45.628906 C 604.035156 46.777344 606.230469 46.421875 607.308594 45.003906 C 609.046875 42.777344 607.140625 40.414062 605.320312 39.015625 C 599.160156 34.207031 589.488281 37.632812 587.5 45.125 C 585.777344 49.359375 591.886719 52.3125 594.164062 48.398438 Z M 594.164062 48.398438 " fill-opacity="1" fill-rule="nonzero"/><path fill="#fbf0d8" d="M 546.476562 63.332031 C 547.722656 59.382812 549.359375 55.046875 552.886719 52.582031 C 556.027344 50.304688 560.09375 51.453125 563.011719 53.527344 C 564.71875 54.757812 566.234375 56.515625 568.464844 56.597656 C 570.320312 56.667969 571.941406 55.0625 572.140625 53.273438 C 572.378906 51.382812 571.097656 49.695312 569.324219 49.171875 C 566.777344 46.914062 563.773438 44.835938 560.378906 44.160156 C 549.378906 41.394531 540.449219 52.378906 539.976562 62.554688 C 540.027344 66.335938 545.511719 66.976562 546.476562 63.332031 Z M 546.476562 63.332031 " fill-opacity="1" fill-rule="nonzero"/><path fill="#fbf0d8" d="M 509.738281 64.125 C 514.074219 63.296875 518.292969 65.796875 521.738281 68.15625 C 525.246094 70.554688 528.859375 65.796875 525.652344 63.046875 C 521.367188 59.703125 516.03125 56.9375 510.480469 57.121094 C 503.324219 57.375 497.234375 63.652344 496.59375 70.671875 C 496.457031 73.660156 496.324219 79.277344 500.609375 78.925781 C 502.347656 78.671875 503.476562 77.035156 503.273438 75.328125 C 502.28125 70.671875 504.8125 65.1875 509.722656 64.140625 Z M 509.738281 64.125 " fill-opacity="1" fill-rule="nonzero"/><path fill="#fbf0d8" d="M 417.9375 81.507812 C 421.058594 78.855469 429.566406 72.578125 431.488281 79.226562 C 431.792969 81.65625 434.980469 82.6875 436.652344 80.933594 C 438.207031 79.5 437.496094 76.917969 436.652344 75.328125 C 431.675781 66.03125 419.390625 70.46875 413.71875 76.730469 C 410.933594 79.464844 414.867188 83.917969 417.9375 81.507812 Z M 417.9375 81.507812 " fill-opacity="1" fill-rule="nonzero"/><path fill="#fbf0d8" d="M 360.597656 86.113281 C 365.355469 80.359375 371.75 79.953125 377.050781 85.304688 C 377.996094 86.433594 378.671875 87.953125 380.257812 88.289062 C 382.128906 88.8125 384.238281 87.582031 384.679688 85.691406 C 385.183594 81.675781 381 78.671875 378.0625 76.628906 C 370.519531 71.515625 360.582031 73.472656 355.265625 80.796875 C 351.855469 84.425781 357.019531 89.488281 360.613281 86.113281 Z M 360.597656 86.113281 " fill-opacity="1" fill-rule="nonzero"/><path fill="#fbf0d8" d="M 308.117188 86.585938 C 312.757812 83.96875 318.207031 80.105469 323.640625 82.738281 C 326.238281 83.867188 328.214844 88.929688 331.589844 85.925781 C 334.019531 83.363281 330.847656 80.578125 329.007812 78.804688 C 321.820312 72.511719 311.695312 75.988281 304.773438 80.914062 C 301.113281 83.246094 304.351562 88.660156 308.117188 86.585938 Z M 308.117188 86.585938 " fill-opacity="1" fill-rule="nonzero"/><path fill="#fbf0d8" d="M 269.707031 83.464844 C 271.445312 82.570312 273.234375 81.421875 275.261719 81.488281 C 276.746094 81.574219 278.449219 82.148438 279.074219 83.597656 C 279.53125 85.523438 281.640625 86.703125 283.546875 85.605469 C 286.261719 83.953125 284.558594 80.898438 283.007812 79.058594 C 278.804688 74.148438 271.53125 74.773438 266.585938 78.164062 C 263.144531 80.242188 266.214844 85.421875 269.707031 83.464844 Z M 269.707031 83.464844 " fill-opacity="1" fill-rule="nonzero"/><path fill="#fbf0d8" d="M 167.414062 65.238281 C 173.488281 62.722656 180.558594 64.007812 185.6875 68.023438 C 186.09375 70.589844 189.90625 71.042969 190.835938 68.578125 C 192.167969 63.738281 185.433594 61.238281 181.941406 59.636719 C 176.675781 57.441406 170.667969 57.308594 165.453125 59.738281 C 162.148438 61.15625 163.96875 66.21875 167.414062 65.238281 Z M 167.414062 65.238281 " fill-opacity="1" fill-rule="nonzero"/><path fill="#fbf0d8" d="M 131.113281 51.03125 C 125.191406 46.675781 117.039062 46.574219 111.304688 51.265625 C 107.84375 53.476562 110.949219 58.605469 114.441406 56.617188 C 118.019531 53.714844 122.761719 52.683594 126.878906 55.113281 C 130.015625 55.992188 132.902344 62.066406 136.210938 58.707031 C 138.351562 55.402344 133.171875 52.886719 131.097656 51.03125 Z M 131.113281 51.03125 " fill-opacity="1" fill-rule="nonzero"/><path fill="#fbf0d8" d="M 655.84375 225.703125 C 653.496094 224.03125 649.160156 223.828125 648.789062 227.527344 C 648.601562 229.515625 650.441406 231.324219 652.449219 231.035156 C 653.5625 233.71875 652.585938 236.941406 651.707031 239.589844 C 650.273438 243.742188 656.464844 245.96875 658.003906 241.871094 C 659.554688 236.671875 660.703125 229.5 655.84375 225.703125 Z M 655.84375 225.703125 " fill-opacity="1" fill-rule="nonzero"/><path fill="#fbf0d8" d="M 665.765625 266.980469 C 664.515625 262.371094 661.308594 255.824219 655.605469 256.785156 C 654.425781 257.007812 653.007812 257.578125 652.398438 258.675781 C 651.539062 260.210938 653.007812 262.121094 654.710938 261.765625 C 655.605469 261.546875 656.382812 260.804688 657.359375 261.277344 C 657.257812 261.242188 657.175781 261.226562 657.074219 261.191406 C 662.742188 265.730469 661.867188 274.808594 659.117188 280.816406 C 658.085938 283.113281 656.71875 285.421875 654.660156 287.144531 C 650.644531 291.027344 657.257812 296.257812 660.113281 291.464844 C 664.667969 284.277344 667.941406 275.535156 665.78125 266.960938 Z M 665.765625 266.980469 " fill-opacity="1" fill-rule="nonzero"/><path fill="#fbf0d8" d="M 675.738281 319.394531 C 674.960938 316.085938 673.242188 312.996094 671.011719 310.449219 C 668.480469 307.867188 662.121094 301.925781 659.488281 307.125 C 658.558594 309.65625 660.804688 311.089844 662.792969 312 C 667.113281 314.753906 669.882812 320.050781 669.105469 325.199219 C 668.667969 327.8125 667.402344 330.226562 666.152344 332.523438 C 664.3125 335.15625 661.613281 338.257812 665.074219 340.925781 C 669.59375 343.742188 671.925781 337.71875 673.511719 334.496094 C 675.789062 329.820312 677.019531 324.523438 675.722656 319.375 Z M 675.738281 319.394531 " fill-opacity="1" fill-rule="nonzero"/><path fill="#fbf0d8" d="M 681.085938 368.582031 C 679.871094 364.164062 674.808594 350.746094 668.734375 355.945312 C 666.777344 357.953125 667.757812 361.917969 670.371094 362.878906 C 672.195312 365.917969 673.359375 369.308594 673.8125 372.835938 C 673.746094 375.773438 674.726562 379.164062 678.304688 379.011719 C 683.804688 378.371094 681.878906 372.296875 681.105469 368.601562 Z M 681.085938 368.582031 " fill-opacity="1" fill-rule="nonzero"/><path fill="#fbf0d8" d="M 683.246094 398.386719 C 681.355469 395.921875 677.375 394.234375 675.230469 397.320312 C 674.117188 398.925781 674.335938 401.269531 675.820312 402.570312 C 682.523438 408.5625 678.65625 419.917969 676.648438 427.460938 C 674.828125 432.65625 682.640625 435.460938 684.5625 430.328125 C 687.652344 420.203125 690.066406 407.496094 683.230469 398.386719 Z M 683.246094 398.386719 " fill-opacity="1" fill-rule="nonzero"/><path fill="#fbf0d8" d="M 687.921875 456.300781 C 687.667969 459.066406 690.839844 459.136719 692.5625 460.316406 C 697.117188 463.132812 700.105469 468.433594 699.175781 473.851562 C 698.824219 476.5 697.117188 478.542969 695.347656 480.414062 C 693.339844 482.660156 696.222656 486.050781 698.722656 484.363281 C 705.574219 479.707031 706.871094 469.699219 702.671875 462.847656 C 701.203125 459.539062 689.40625 449.160156 687.90625 456.300781 Z M 687.921875 456.300781 " fill-opacity="1" fill-rule="nonzero"/><path fill="#fbf0d8" d="M 714.210938 509.507812 C 712.152344 504.5625 707.378906 500.007812 701.808594 499.90625 C 700.5625 499.871094 699.429688 500.714844 699.328125 502.015625 C 699.125 504.527344 701.945312 504.460938 703.683594 504.96875 C 707.460938 506.808594 710.433594 510.90625 709.824219 515.246094 C 709.488281 517.523438 707.984375 519.378906 706.652344 521.167969 C 705.351562 522.316406 705.050781 524.375 706.433594 525.605469 C 709.371094 528.019531 711.679688 523.953125 713.046875 521.757812 C 715.460938 518.164062 715.832031 513.523438 714.246094 509.523438 Z M 714.210938 509.507812 " fill-opacity="1" fill-rule="nonzero"/><path fill="#fbf0d8" d="M 710.027344 541.113281 C 709.859375 542.902344 711.410156 544.589844 713.199219 544.539062 C 717.183594 548.066406 718.953125 553.652344 717.285156 558.765625 C 716.644531 560.773438 715.664062 562.644531 714.667969 564.503906 C 712.8125 568.148438 717.992188 571.253906 720.355469 567.945312 C 733.5 550.394531 712.574219 530.683594 710.027344 541.128906 Z M 710.027344 541.113281 " fill-opacity="1" fill-rule="nonzero"/><path fill="#fbf0d8" d="M 733.417969 576.652344 C 731.121094 574.542969 727.664062 570.324219 724.574219 573.546875 C 721.503906 577.292969 726.835938 579.960938 728.828125 582.59375 C 730.683594 585.039062 731.054688 588.144531 731.15625 591.113281 C 731.578125 596.042969 738.800781 595.621094 738.664062 590.675781 C 738.582031 585.5625 737.144531 580.347656 733.417969 576.652344 Z M 733.417969 576.652344 " fill-opacity="1" fill-rule="nonzero"/><path fill="#fbf0d8" d="M 739.273438 626.855469 C 737.5 627.261719 736.167969 627.226562 733.941406 627.292969 C 728.777344 627.5625 728.691406 635.359375 733.855469 635.730469 C 749.195312 637.402344 752.773438 623.617188 745.195312 612.496094 C 735.121094 597.542969 728.523438 611.652344 736.386719 613.269531 C 739.101562 615.632812 743.644531 624.460938 739.273438 626.855469 Z M 739.273438 626.855469 " fill-opacity="1" fill-rule="nonzero"/><path fill="#fbf0d8" d="M 659.671875 603.296875 C 644.332031 604.074219 649.867188 594.253906 643.066406 595.585938 C 638.695312 597.339844 641.617188 602.671875 643.675781 605.222656 C 646.375 608.191406 650.425781 609.710938 654.324219 610.234375 C 657.597656 610.671875 663.839844 610.890625 663.234375 606.066406 C 662.894531 604.34375 661.378906 603.265625 659.671875 603.296875 Z M 659.671875 603.296875 " fill-opacity="1" fill-rule="nonzero"/><path fill="#fbf0d8" d="M 680.210938 609.777344 C 676.785156 619.042969 692.832031 626.046875 700.257812 623.816406 C 701.675781 623.515625 702.992188 622.972656 704.308594 622.382812 C 708.558594 620.171875 705.050781 613.945312 700.914062 616.394531 C 696.070312 619.429688 689.171875 617.289062 685.746094 613.019531 C 687.144531 609.457031 682.554688 606.605469 680.210938 609.761719 Z M 680.210938 609.777344 " fill-opacity="1" fill-rule="nonzero"/><path fill="#fbf0d8" d="M 536.671875 590.691406 C 533.007812 589.5625 529.753906 587.386719 526.226562 585.917969 C 524.742188 585.226562 522.933594 585.699219 522.140625 587.199219 C 521.382812 588.652344 521.972656 590.488281 523.441406 591.28125 C 527.726562 593.476562 531.878906 596.480469 536.753906 597.140625 C 541.09375 597.628906 544.738281 594.675781 546.695312 591.03125 C 547.640625 589.527344 547.386719 587.570312 545.882812 586.523438 C 540.839844 583.621094 541.007812 591.789062 536.6875 590.691406 Z M 536.671875 590.691406 " fill-opacity="1" fill-rule="nonzero"/><path fill="#fbf0d8" d="M 490.398438 584.078125 C 485.4375 587.976562 478.585938 589.257812 472.949219 585.984375 C 472.664062 584.210938 470.890625 582.878906 469.121094 582.980469 C 467.316406 583.082031 465.828125 584.550781 465.679688 586.355469 C 465.761719 591.046875 471.296875 593.257812 475.144531 594.40625 C 480.121094 595.824219 485.589844 595.550781 490.246094 593.257812 C 491.816406 592.5 493.269531 591.636719 494.738281 590.691406 C 499.023438 587.757812 494.820312 581.308594 490.398438 584.0625 Z M 490.398438 584.078125 " fill-opacity="1" fill-rule="nonzero"/><path fill="#fbf0d8" d="M 437.109375 586.121094 C 433.785156 590.960938 427.421875 590.792969 422.476562 588.617188 C 420.605469 587.875 419.1875 585.242188 416.976562 587.082031 C 414.226562 589.816406 418.445312 592.378906 420.722656 593.460938 C 425.3125 595.570312 430.984375 596.445312 435.757812 594.457031 C 438.085938 593.390625 440.113281 591.773438 441.800781 589.847656 C 444.464844 586.625 439.65625 582.8125 437.125 586.121094 Z M 437.109375 586.121094 " fill-opacity="1" fill-rule="nonzero"/><path fill="#fbf0d8" d="M 388.625 595.300781 C 387.175781 599.011719 383.53125 601.257812 379.566406 600.34375 C 376.832031 599.703125 372.394531 599.113281 371.632812 595.992188 C 371.3125 594.457031 369.8125 593.410156 368.257812 593.714844 C 365.050781 594.386719 365.625 598.625 367.261719 600.597656 C 376.140625 609.945312 393.214844 608.664062 395.207031 594.066406 C 395.394531 592.632812 394.261719 591.25 392.894531 590.945312 C 390.027344 590.355469 389.300781 593.207031 388.609375 595.316406 Z M 388.625 595.300781 " fill-opacity="1" fill-rule="nonzero"/><path fill="#fbf0d8" d="M 333.359375 602.996094 C 333.933594 606.539062 339.402344 608.832031 342.539062 609.777344 C 345.730469 610.6875 349.390625 610.046875 351.871094 607.753906 C 354.539062 605.542969 358.234375 597.019531 352.953125 596.023438 C 349.628906 595.789062 350 599.519531 349.121094 601.679688 C 347.417969 606.183594 341.984375 604.089844 339.148438 601.929688 C 338.8125 600.867188 337.832031 600.023438 336.667969 599.957031 C 336.332031 599.941406 336.027344 599.957031 335.722656 600.042969 L 335.808594 600.042969 C 334.289062 600.261719 333.378906 601.609375 333.410156 602.996094 Z M 333.359375 602.996094 " fill-opacity="1" fill-rule="nonzero"/><path fill="#fbf0d8" d="M 315.203125 607.28125 C 313.667969 609.152344 312.097656 611.179688 309.886719 612.277344 C 309.753906 612.308594 309.515625 612.359375 309.28125 612.394531 C 307.863281 612.546875 306.75 611.347656 305.550781 610.757812 C 304.21875 609.964844 302.414062 610.671875 301.71875 611.972656 C 300.539062 614.183594 302.699219 615.886719 304.453125 616.847656 C 307.339844 618.957031 311.390625 618.6875 314.273438 616.695312 C 317.398438 614.621094 319.691406 611.652344 321.917969 608.679688 C 322.949219 607.332031 322.492188 605.289062 321.144531 604.34375 C 318.542969 602.554688 316.519531 605.289062 315.203125 607.265625 Z M 309.042969 612.425781 C 309.042969 612.425781 309.179688 612.410156 309.261719 612.394531 C 309.128906 612.410156 309.011719 612.445312 308.890625 612.445312 C 308.910156 612.425781 308.976562 612.425781 309.042969 612.425781 Z M 309.042969 612.425781 " fill-opacity="1" fill-rule="nonzero"/><path fill="#fbf0d8" d="M 97.550781 598.554688 C 97.09375 600.917969 97.09375 603.484375 98.074219 605.726562 C 99.21875 609.324219 109.292969 619.464844 112.046875 613.441406 C 112.550781 612.039062 111.925781 610.519531 110.628906 609.8125 C 100.890625 604.867188 102.59375 599.097656 107.945312 591.234375 C 109.765625 591.90625 111.859375 590.269531 111.691406 588.328125 C 111.554688 586.320312 109.582031 585.140625 107.84375 584.652344 C 103.167969 583.640625 98.273438 594.792969 97.53125 598.554688 Z M 97.550781 598.554688 " fill-opacity="1" fill-rule="nonzero"/><path fill="#fbf0d8" d="M 104.519531 655.761719 C 101.261719 652.757812 95.894531 661.011719 95.492188 663.914062 C 93.550781 671.117188 97.683594 679.894531 105.464844 681.140625 C 108.652344 681.953125 120.128906 680.652344 117.480469 675.488281 C 115.605469 672.738281 112.90625 675.675781 110.628906 676.128906 C 106.613281 677.277344 101.851562 675.609375 100.382812 671.488281 C 98.765625 667.542969 99.691406 662.648438 102.933594 659.761719 C 104.28125 658.765625 105.886719 657.515625 104.519531 655.761719 Z M 104.519531 655.761719 " fill-opacity="1" fill-rule="nonzero"/><path fill="#fbf0d8" d="M 161.691406 663.609375 C 159.988281 664.859375 158.230469 666.074219 156.410156 667.152344 C 154.132812 668.519531 151.414062 668.859375 148.832031 668.335938 C 148.714844 668.335938 148.257812 668.265625 147.820312 668.183594 C 146.417969 667.390625 144.460938 668.503906 144.394531 670.125 C 144.226562 671.640625 145.761719 673.007812 147.246094 672.636719 C 154.300781 674.933594 160.710938 670.679688 166.265625 666.78125 C 167.613281 665.921875 167.867188 663.996094 166.839844 662.800781 C 165.269531 660.941406 163.074219 662.242188 161.691406 663.59375 Z M 161.691406 663.609375 " fill-opacity="1" fill-rule="nonzero"/><path fill="#fbf0d8" d="M 234.914062 631.984375 C 229.429688 640.035156 218.882812 647.949219 209.078125 642.429688 C 207.84375 641.925781 206.324219 642.480469 205.871094 643.78125 C 205.007812 646.785156 209.078125 647.679688 211.203125 648.371094 C 216.332031 649.824219 221.933594 649.230469 226.59375 646.648438 C 233.207031 643.273438 238.050781 637.488281 242.234375 631.511719 C 243.28125 630.078125 242.707031 627.953125 241.15625 627.160156 C 237.695312 625.539062 236.566406 629.945312 234.878906 631.984375 Z M 234.914062 631.984375 " fill-opacity="1" fill-rule="nonzero"/><path fill="#fbf0d8" d="M 69.386719 96.558594 C 68.8125 100.609375 70.382812 104.523438 72.742188 107.746094 C 74.160156 109.824219 76.589844 112.84375 79.222656 110.667969 C 80.507812 109.570312 80.675781 107.578125 79.5625 106.296875 C 76.40625 102.972656 73.65625 98.246094 76.101562 93.742188 C 79.15625 94.550781 80.929688 90.347656 78.109375 88.8125 C 72.828125 86.804688 69.910156 92.003906 69.367188 96.558594 Z M 69.386719 96.558594 " fill-opacity="1" fill-rule="nonzero"/><path fill="#fbf0d8" d="M 87.207031 127.339844 C 86.277344 124.621094 82.566406 125.683594 81.601562 127.84375 C 79.710938 131.859375 80.066406 136.703125 81.957031 140.671875 C 83.441406 143.152344 84.742188 149.207031 88.671875 147.21875 C 89.90625 146.40625 90.191406 144.789062 89.433594 143.574219 C 87.070312 139.625 84.285156 135.117188 85.769531 130.359375 C 86.984375 129.953125 87.59375 128.503906 87.1875 127.339844 Z M 87.207031 127.339844 " fill-opacity="1" fill-rule="nonzero"/><path fill="#fbf0d8" d="M 95.085938 181.1875 C 94.023438 187.5 95.457031 193.945312 98.496094 199.53125 C 99.355469 201.199219 101.464844 201.84375 103.066406 200.796875 C 104.554688 199.816406 104.855469 197.910156 103.980469 196.425781 C 101.195312 191.988281 100.199219 186.824219 100.824219 181.640625 C 100.941406 177.84375 95.558594 177.421875 95.070312 181.1875 Z M 95.085938 181.1875 " fill-opacity="1" fill-rule="nonzero"/><path fill="#fbf0d8" d="M 110.054688 234.292969 C 111.742188 235.929688 114.355469 239.691406 116.652344 236.875 C 117.394531 235.8125 117.125 234.308594 116.0625 233.550781 C 111.453125 230.679688 108.214844 225.179688 109.816406 219.695312 C 110.78125 220.285156 112.164062 220.03125 112.585938 218.867188 C 113.191406 217.148438 111.203125 216.234375 109.816406 216.035156 C 106.171875 215.410156 105.617188 220.421875 105.546875 223.054688 C 105.445312 227.222656 107.234375 231.273438 110.054688 234.292969 Z M 110.054688 234.292969 " fill-opacity="1" fill-rule="nonzero"/><path fill="#fbf0d8" d="M 124.515625 275.449219 C 127.082031 276.328125 130.878906 278.773438 132.09375 274.84375 C 132.53125 272.902344 130.828125 271.265625 128.921875 271.367188 C 121.578125 270.203125 114.457031 264.902344 120.585938 257.597656 C 121.007812 256.09375 119.351562 254.761719 117.96875 255.25 C 116.296875 256.0625 115.25 257.867188 114.679688 259.570312 C 112.0625 266.8125 118.054688 273.171875 124.515625 275.449219 Z M 124.515625 275.449219 " fill-opacity="1" fill-rule="nonzero"/><path fill="#fbf0d8" d="M 129.914062 321.671875 C 132.3125 322.835938 136.34375 325.519531 137.882812 321.890625 C 138.402344 320.4375 137.644531 318.71875 136.160156 318.210938 C 129.207031 316.59375 123.722656 309.199219 126.101562 302.078125 C 127.335938 302.113281 128.449219 301.082031 128.53125 299.851562 C 128.71875 297.980469 126.828125 297.015625 125.191406 297.167969 C 122 297.234375 120.90625 301.082031 120.566406 303.699219 C 119.621094 310.855469 123.636719 318.261719 129.933594 321.6875 Z M 129.914062 321.671875 " fill-opacity="1" fill-rule="nonzero"/><path fill="#fbf0d8" d="M 127.46875 347.929688 C 127.351562 350.765625 130 362.625 134.269531 359.960938 C 137.054688 357.851562 133.476562 355.050781 132.902344 352.6875 C 131.722656 349.699219 131.113281 345.921875 132.851562 342.984375 C 134.101562 342.394531 135.113281 341.042969 134.234375 339.710938 C 133.679688 338.867188 132.617188 338.613281 131.722656 339 C 128.261719 340.335938 127.503906 344.605469 127.46875 347.910156 Z M 127.46875 347.929688 " fill-opacity="1" fill-rule="nonzero"/><path fill="#fbf0d8" d="M 134.269531 397.101562 C 136.226562 396.257812 136.210938 393.304688 134.335938 392.378906 C 129.15625 390.335938 124.972656 394.738281 124.230469 399.652344 C 123.335938 404.359375 124.617188 409.203125 127.214844 413.152344 C 128.601562 415.34375 130.894531 419.242188 133.847656 416.929688 C 135.0625 415.882812 135.164062 414.0625 134.167969 412.847656 C 130.691406 408.746094 127.351562 402.097656 131.132812 397.203125 C 132.195312 397.320312 133.289062 397.523438 134.285156 397.085938 Z M 134.269531 397.101562 " fill-opacity="1" fill-rule="nonzero"/><path fill="#fbf0d8" d="M 128.632812 480.210938 C 130.238281 476.886719 125.96875 474.828125 123.183594 475.03125 C 118.390625 475.488281 116.332031 480.9375 116.296875 485.15625 C 116.164062 490 118.304688 494.402344 120.566406 498.554688 C 121.394531 500.109375 123.265625 500.851562 124.902344 500.058594 C 126.441406 499.3125 127.265625 497.273438 126.421875 495.71875 C 124.179688 491.433594 120.585938 485.730469 123.707031 481.054688 C 125.308594 482.136719 127.65625 482.117188 128.648438 480.195312 Z M 128.632812 480.210938 " fill-opacity="1" fill-rule="nonzero"/><path fill="#fbf0d8" d="M 113.734375 541.636719 C 114.476562 543.949219 115.167969 548 118.492188 547.003906 C 119.925781 546.53125 120.804688 544.875 120.28125 543.441406 C 117.582031 537.351562 116.753906 529.554688 121.308594 524.136719 C 123.316406 524.527344 126.390625 524.828125 126.660156 522.078125 C 126.742188 520.898438 125.898438 519.597656 124.667969 519.414062 C 117.714844 517.203125 114.726562 523.226562 113.210938 529.015625 C 112.097656 533.183594 112.449219 537.535156 113.714844 541.636719 Z M 113.734375 541.636719 " fill-opacity="1" fill-rule="nonzero"/><path fill="#fbf0d8" d="M 108.601562 567.421875 C 107.894531 570.425781 108.621094 584.261719 113.664062 582.171875 C 116.535156 580.617188 113.785156 577.75 113.378906 575.554688 C 112.265625 571.21875 112.265625 566.191406 115.082031 562.425781 C 116.316406 562.578125 117.511719 562.816406 118.746094 562.984375 C 120.90625 563.1875 121.378906 559.945312 119.269531 559.472656 C 117.277344 559.152344 115.015625 557.972656 113.074219 559.019531 C 110.410156 560.925781 109.292969 564.316406 108.601562 567.40625 Z M 108.601562 567.421875 " fill-opacity="1" fill-rule="nonzero"/><path fill="#fbf0d8" d="M 550.152344 218.800781 C 549.160156 217.25 547.976562 215.882812 546.679688 214.617188 C 542.761719 207.917969 537.226562 202.078125 531.726562 196.710938 C 527.507812 192.375 522.242188 189.117188 516.945312 186.234375 C 511.339844 182.859375 505.636719 179.515625 499.328125 177.726562 C 491.242188 176.125 482.90625 176.933594 474.722656 176.292969 C 458.691406 175.195312 442.222656 175.871094 427 181.40625 C 413.28125 187.007812 400.136719 195.34375 390.667969 206.820312 C 389.691406 206.246094 388.675781 205.722656 387.648438 205.265625 C 381.640625 200.425781 374.453125 196.914062 367.429688 193.859375 C 361.945312 191.296875 355.871094 190.097656 349.914062 189.285156 C 343.484375 188.121094 336.972656 186.992188 330.425781 187.546875 C 322.289062 188.898438 314.78125 192.609375 306.902344 194.90625 C 291.527344 199.546875 276.339844 205.992188 264.070312 216.558594 C 250 229.636719 238.4375 246.660156 236.078125 266.066406 C 233.273438 281.980469 241.410156 297.066406 250.402344 309.605469 C 268.441406 334.359375 314.089844 332.117188 341.242188 327.390625 C 353.019531 324.609375 364.933594 320.742188 374.992188 313.839844 C 381.304688 308.964844 387.730469 303.96875 392.8125 297.777344 C 395.089844 294.703125 397.316406 291.53125 399.359375 288.242188 C 416.65625 301.523438 441.984375 308.914062 460.023438 312.375 C 472.023438 313.925781 484.542969 314.53125 496.375 311.628906 C 504 309.300781 511.78125 306.90625 518.714844 302.90625 C 526.984375 297.574219 535.335938 291.566406 540.941406 283.347656 C 545.34375 274.996094 550.070312 266.488281 552.617188 257.378906 C 553.328125 253.546875 553.933594 249.664062 554.222656 245.785156 C 554.542969 238.476562 552.433594 231.289062 550.8125 224.21875 C 550.609375 223.476562 550.375 222.75 550.121094 222.023438 C 550.746094 221.164062 550.929688 219.984375 550.152344 218.835938 Z M 540.871094 247.792969 C 538.359375 255.621094 533.769531 262.792969 528.066406 268.75 C 523.847656 273.746094 519.355469 277.796875 513.535156 281.035156 C 504.390625 285.929688 493.992188 287.449219 484.089844 290.265625 C 473.695312 292.714844 462.910156 292.933594 452.277344 292.511719 C 446.8125 292.105469 441.257812 292.125 435.875 290.992188 C 429.058594 289.019531 422.496094 286.300781 416.046875 283.332031 C 412.25 281.542969 408.386719 279.753906 404.742188 277.628906 C 405.5 275.671875 406.175781 273.679688 406.664062 271.621094 C 407.832031 262.238281 409.246094 252.617188 408.402344 243.203125 C 407.710938 239.371094 406.902344 235.523438 405.804688 231.777344 C 404.554688 227.964844 402.632812 224.453125 400.488281 221.0625 C 404.285156 216.320312 408.84375 212.238281 414.210938 209.132812 C 419.863281 204.894531 426.105469 201.589844 432.703125 199.109375 C 444.128906 194.164062 456.75 194.738281 468.816406 192.8125 C 479.632812 192.914062 490.585938 193.03125 501.285156 194.855469 C 510.109375 196.339844 518.34375 199.765625 526.207031 203.917969 C 530.207031 205.453125 533.007812 208.609375 535.996094 211.511719 C 536.601562 212.117188 537.261719 212.742188 537.917969 213.367188 C 538.121094 213.789062 538.324219 214.210938 538.527344 214.617188 C 539.457031 216.808594 540.25 219.054688 540.992188 221.316406 C 543.03125 226.832031 542.324219 231.980469 542.085938 237.632812 C 542.273438 240.992188 541.363281 244.46875 540.871094 247.808594 Z M 256.15625 304.238281 C 256.140625 303.277344 255.601562 302.601562 254.910156 302.265625 C 249.40625 291.820312 249.324219 287.363281 250.894531 273.59375 C 252.210938 263.875 255.652344 254.660156 261.894531 247.015625 C 265.691406 241.058594 270.351562 235.761719 275.648438 231.101562 C 284.59375 222.445312 296.589844 218.53125 307.203125 212.4375 C 317.363281 208.710938 327.65625 204.945312 338.289062 202.871094 C 347.0625 201.132812 355.992188 201.4375 364.800781 202.535156 C 369.085938 202.550781 372.816406 204.507812 376.644531 206.179688 C 377.4375 206.53125 378.265625 206.886719 379.09375 207.226562 C 379.429688 207.5625 379.785156 207.882812 380.105469 208.1875 C 381.742188 209.90625 383.277344 211.714844 384.777344 213.570312 C 384.980469 213.789062 385.132812 214.027344 385.320312 214.261719 C 384.609375 215.425781 383.917969 216.609375 383.277344 217.824219 C 375.023438 231.726562 377.304688 248.703125 381.285156 263.621094 C 382.128906 266.710938 383.394531 269.628906 384.964844 272.394531 C 383.613281 274.726562 382.046875 276.984375 380.1875 279.179688 C 373.355469 286.976562 364.175781 292.089844 355.90625 298.214844 C 347.0625 304.1875 337.039062 308.1875 326.949219 311.546875 C 321.683594 313.097656 316.503906 315.074219 311.070312 315.933594 C 303.980469 316.507812 296.894531 316.289062 289.804688 315.78125 C 282.835938 315.226562 275.613281 314.753906 268.984375 312.375 C 264.410156 310.164062 260.410156 306.9375 256.105469 304.238281 Z M 392.996094 233.09375 C 393.386719 234.867188 393.671875 236.671875 394.042969 238.394531 C 394.449219 246.441406 392.761719 254.59375 389.65625 262.070312 C 389.300781 261.578125 388.964844 261.089844 388.609375 260.617188 C 388.929688 259.707031 388.660156 258.894531 388.136719 258.324219 C 386.804688 247.605469 387.96875 243.167969 392.996094 233.078125 Z M 401.265625 274.625 C 401.164062 274.828125 401.0625 275.011719 400.980469 275.214844 C 399.882812 274.4375 398.800781 273.644531 397.773438 272.785156 C 395.847656 270.742188 394.179688 268.464844 392.558594 266.167969 C 396.492188 256.601562 398.988281 245.96875 397.976562 236.824219 C 397.519531 233.703125 396.828125 230.648438 395.933594 227.644531 C 396.8125 226.191406 397.722656 224.773438 398.71875 223.40625 C 400.066406 225.652344 401.332031 227.949219 402.515625 230.226562 C 404.386719 235.59375 405.789062 241.378906 405.992188 247.082031 C 405.855469 251.574219 405.148438 256.113281 404.554688 260.582031 C 403.78125 265.425781 403.339844 270.050781 401.265625 274.640625 Z M 465.441406 180.359375 C 472.410156 180.648438 479.363281 181.1875 486.332031 181.21875 C 492.355469 181.304688 498.652344 181.035156 504.117188 183.988281 C 504.269531 187.226562 508.472656 187.566406 510.71875 188.933594 C 511.847656 189.320312 512.488281 190.773438 513.804688 190.535156 C 519.710938 193.183594 525.484375 196.492188 529.871094 201.335938 C 530.140625 201.589844 530.410156 201.84375 530.679688 202.09375 C 530.425781 201.976562 530.191406 201.859375 529.9375 201.757812 C 523.644531 199.140625 517.46875 196.121094 510.867188 194.296875 C 501.316406 191.480469 491.445312 190.433594 481.574219 189.4375 C 474.351562 188.644531 467.128906 188.054688 459.921875 189.203125 C 447.386719 189.371094 435.066406 192.070312 423.691406 197.351562 C 415.289062 201.335938 406.75 206.550781 399.59375 212.574219 C 398.632812 213.503906 397.707031 214.464844 396.8125 215.460938 C 396.152344 216.167969 395.527344 216.894531 394.921875 217.636719 C 394.5 218.144531 394.109375 218.667969 393.707031 219.171875 C 393.707031 219.171875 393.707031 219.15625 393.707031 219.140625 C 393.46875 219.441406 393.265625 219.746094 393.03125 220.050781 C 392.761719 220.421875 392.492188 220.777344 392.222656 221.164062 C 391.867188 221.671875 391.511719 222.175781 391.175781 222.683594 C 390.871094 223.121094 390.566406 223.578125 390.28125 224.015625 C 390.261719 224.050781 390.246094 224.066406 390.230469 224.101562 C 387.730469 228 385.605469 232.117188 383.785156 236.367188 C 383.023438 237.785156 382.433594 239.238281 381.976562 240.722656 C 381.539062 236.199219 381.640625 231.660156 382.636719 227.136719 C 383.800781 223.238281 385.421875 219.59375 387.394531 216.1875 C 387.597656 215.832031 387.800781 215.476562 388.019531 215.121094 C 388.375 214.546875 388.726562 213.976562 389.097656 213.417969 C 389.234375 213.214844 389.351562 213.011719 389.488281 212.8125 C 389.691406 212.523438 389.890625 212.238281 390.09375 211.96875 C 390.210938 212.085938 390.332031 212.1875 390.449219 212.304688 C 390.363281 212.152344 390.261719 212.015625 390.179688 211.867188 C 390.28125 211.714844 390.398438 211.578125 390.5 211.425781 C 390.921875 210.851562 391.34375 210.28125 391.800781 209.707031 C 408.351562 188.714844 439.859375 179.078125 465.476562 180.308594 Z M 299.660156 201.992188 C 306.277344 199.800781 312.960938 197.84375 319.507812 195.414062 C 325.175781 193.371094 330.964844 190.890625 337.125 191.71875 C 338.40625 194.703125 342.457031 193.539062 345.054688 194.011719 C 346.253906 193.960938 347.367188 195.09375 348.515625 194.417969 C 354.976562 194.804688 361.542969 195.851562 367.363281 198.839844 C 367.703125 198.972656 368.054688 199.125 368.394531 199.261719 C 368.125 199.242188 367.851562 199.210938 367.582031 199.210938 C 360.765625 198.988281 353.914062 198.347656 347.113281 198.972656 C 337.175781 199.734375 327.589844 202.230469 317.988281 204.796875 C 310.949219 206.601562 304 208.609375 297.636719 212.238281 C 285.976562 216.828125 275.394531 223.710938 266.621094 232.671875 C 260.15625 239.371094 254.03125 247.269531 249.457031 255.4375 C 245.324219 264.144531 243.5 273.730469 243.097656 283.296875 C 242.878906 284.882812 242.84375 286.453125 242.945312 288.003906 C 240.9375 283.9375 239.417969 279.652344 238.742188 275.0625 C 236.347656 240.621094 269.320312 211.816406 299.679688 201.992188 Z M 390.667969 290.773438 C 387.175781 295.160156 382.855469 298.703125 378.351562 302.011719 C 368.898438 309.824219 357.660156 314.753906 346.152344 318.75 C 324.753906 326.160156 300.351562 328.285156 278.6875 321.164062 C 278.957031 321.214844 279.210938 321.265625 279.480469 321.300781 C 291.527344 323.054688 304.148438 324.4375 316.164062 321.925781 C 332.144531 317.148438 348.023438 310.820312 361.675781 301.132812 C 370.285156 295.226562 379.226562 289.136719 385.21875 280.410156 C 386.027344 279.164062 386.820312 277.8125 387.597656 276.445312 C 389.773438 279.433594 392.339844 282.21875 395.207031 284.816406 C 393.757812 286.875 392.222656 288.882812 390.683594 290.808594 Z M 551.671875 243.136719 C 551.539062 248.820312 550.796875 254.710938 548.972656 260.144531 C 547.25 264.296875 544.992188 268.277344 542.863281 272.261719 C 540.433594 276.515625 538.375 280.699219 534.816406 284.242188 C 530.273438 288.628906 524.65625 292.359375 519.1875 295.597656 C 514.378906 298.46875 509.0625 300.257812 503.695312 301.757812 C 492.085938 305.722656 479.835938 306.367188 467.652344 306.027344 C 445.023438 305.402344 421.429688 298.753906 403.679688 284.429688 C 403.914062 284.5625 404.132812 284.699219 404.371094 284.832031 C 415.019531 290.722656 426.34375 296.492188 438.476562 298.382812 C 455.097656 299.566406 472.191406 299.261719 488.390625 295.027344 C 498.535156 292.546875 509.046875 290.015625 517.738281 283.957031 C 529.007812 275.621094 541.566406 261.476562 545.109375 247.707031 C 546.003906 243.539062 546.507812 239.371094 546.609375 235.121094 C 547.351562 231.152344 547.757812 227.136719 546.914062 223.171875 C 546.980469 223.1875 547.050781 223.207031 547.117188 223.222656 C 549.664062 229.535156 550.945312 236.46875 551.691406 243.152344 Z M 551.671875 243.136719 " fill-opacity="1" fill-rule="nonzero"/><path fill="#fbf0d8" d="M 196.773438 603.90625 C 188.386719 601.796875 179.648438 605.644531 172.101562 609.101562 C 176.339844 601.003906 178.632812 591.585938 176.792969 582.507812 C 173.402344 569.414062 160.019531 589.714844 157.085938 594.253906 C 153.945312 599.5 151.429688 605.222656 149.929688 611.160156 C 150.300781 603.144531 149.84375 594.558594 145.609375 587.535156 C 142.773438 582.746094 137.359375 581.175781 135.078125 587.335938 C 130.710938 600.699219 137.441406 614.46875 144.664062 625.675781 C 144.308594 626.097656 143.972656 626.570312 143.652344 627.125 C 142.925781 628.441406 143.246094 630.09375 144.242188 631.160156 C 144.140625 633.976562 147.113281 635.902344 149.742188 635.984375 C 149.945312 636.152344 150.183594 636.304688 150.4375 636.441406 C 151.886719 637.214844 153.507812 636.660156 155.027344 636.523438 C 157.589844 636.222656 160.664062 635.714844 163.734375 635.191406 C 172.070312 633.554688 180.8125 632.273438 188.285156 628.019531 C 195.507812 624.238281 206.898438 610.148438 196.773438 603.9375 Z M 140.496094 590.050781 C 145.609375 597.730469 144.832031 607.515625 145.136719 616.324219 C 142.65625 611.347656 140.851562 606 140.109375 600.480469 C 139.789062 597.019531 139.46875 593.410156 140.496094 590.050781 Z M 152.867188 625.015625 C 152.5625 624.710938 152.242188 624.441406 151.902344 624.222656 C 151.921875 623.480469 151.9375 622.738281 151.953125 621.996094 C 151.769531 612.546875 154.636719 603.265625 159.53125 595.148438 C 162.871094 589.898438 166.855469 584.414062 172.289062 580.972656 C 174.398438 580.28125 174.042969 585.613281 174.144531 586.964844 C 174.179688 595.148438 170.011719 602.65625 165.792969 609.457031 C 164.78125 611.0625 163.75 612.679688 162.738281 614.265625 C 161.183594 615.246094 159.632812 616.292969 158.230469 617.507812 C 156.171875 619.261719 153.355469 622.097656 152.882812 624.984375 Z M 190.328125 618.535156 C 182.144531 626.332031 169.859375 625.625 159.414062 627.613281 C 162.199219 625.269531 164.289062 622.25 166.296875 619.246094 C 166.769531 618.28125 167.53125 617.691406 168.492188 617.253906 C 171.75 615.429688 175.15625 613.691406 178.703125 612.226562 C 183.492188 610.503906 189.433594 608.429688 194.480469 609.675781 C 195.085938 613.070312 192.523438 616.191406 190.328125 618.535156 Z M 190.328125 618.535156 " fill-opacity="1" fill-rule="nonzero"/><path fill="#fbf0d8" d="M 639.539062 544.828125 C 638.292969 549.195312 641.566406 553.332031 643.777344 556.824219 C 650.289062 566.441406 659.859375 573.3125 670.523438 577.648438 C 666.472656 578.019531 645.820312 583.335938 652.753906 589.496094 C 655.875 591.890625 660.09375 592.058594 663.875 592.414062 C 668.53125 592.75 673.257812 592.699219 677.882812 592.109375 C 684.007812 591.433594 689.929688 589.796875 695.601562 587.484375 C 697.203125 588.667969 699.886719 588.703125 700.832031 586.625 C 701.085938 586.085938 701.183594 585.511719 701.21875 584.9375 C 701.691406 584.703125 702.164062 584.484375 702.621094 584.230469 C 707.292969 582.304688 706.617188 575.03125 701.707031 573.96875 C 698.90625 565.785156 695.785156 557.464844 690.4375 550.5625 C 686.605469 546.34375 677.1875 534.128906 671.25 535.476562 C 669.375 536.203125 669.207031 538.449219 669.445312 540.152344 C 670.574219 552.453125 678.488281 562.796875 686.453125 571.726562 C 679.617188 566.796875 673.914062 560.519531 667.25 555.371094 C 662.644531 552.21875 642.847656 535.746094 639.523438 544.792969 Z M 671.890625 540.558594 C 670.523438 531.5625 682.707031 548.421875 683.972656 550.292969 C 689.609375 557.835938 692.34375 567.371094 695.902344 576.027344 C 695.648438 576.230469 695.398438 576.433594 695.128906 576.636719 C 685.425781 566.121094 673.375 555.746094 671.890625 540.558594 Z M 658.796875 586.371094 C 666.421875 582.070312 675.199219 581.074219 683.789062 582.8125 C 675.871094 585.816406 667.25 587.097656 658.796875 586.371094 Z M 662.050781 564.484375 C 655.742188 560.453125 650.390625 554.851562 646.390625 548.539062 C 659.320312 553.871094 669.207031 563.945312 679.550781 572.972656 C 673.898438 570.679688 667.554688 567.675781 662.050781 564.484375 Z M 662.050781 564.484375 " fill-opacity="1" fill-rule="nonzero"/><path fill="#fbf0d8" d="M 623.054688 126.546875 C 624.910156 130.308594 629.703125 132.46875 633.566406 130.359375 C 639.539062 127.253906 641.042969 119.40625 640.738281 113.230469 C 639.792969 101.839844 636.183594 90.550781 630.730469 80.542969 C 634.730469 80.15625 637.027344 74.503906 633.09375 71.632812 C 628.945312 68.917969 623.628906 68.933594 618.835938 68.714844 C 609.234375 68.5625 599.378906 70.976562 591.582031 76.746094 C 587.195312 79.515625 580.730469 88.710938 588.003906 91.714844 C 596.003906 92.40625 603.53125 88.679688 610.871094 85.976562 C 599.851562 102.902344 580.664062 118.699219 576.480469 138.933594 C 575.871094 142.085938 578.320312 144.113281 581.289062 144.265625 C 587.902344 144.839844 593.726562 140.570312 598.855469 136.90625 C 610.007812 128.636719 617.300781 116.910156 622.074219 104.101562 C 621.46875 111.492188 619.796875 119.542969 623.070312 126.511719 Z M 630.699219 123.472656 C 630.175781 122.78125 630.007812 121.855469 629.855469 121.011719 C 629.144531 112.757812 630.5625 104.507812 631.035156 96.273438 C 633.09375 104.050781 637.398438 117.144531 630.699219 123.457031 Z M 594.449219 85.691406 C 600.375 81 608.136719 79.125 615.578125 78.90625 C 615.054688 79.648438 614.566406 80.410156 614.078125 81.167969 C 613.957031 81.355469 613.839844 81.523438 613.722656 81.707031 C 607.445312 83.546875 601 85.371094 594.433594 85.691406 Z M 596.679688 131.066406 C 592.054688 134.898438 586.941406 140.382812 580.445312 139.792969 C 580.445312 139.742188 580.445312 139.707031 580.445312 139.65625 C 581.070312 133.3125 584.933594 127.980469 588.140625 122.578125 C 596.441406 109.402344 607.054688 97.265625 615.445312 84.054688 C 617.519531 83.175781 619.59375 81.910156 620.625 79.886719 C 620.675781 79.902344 620.707031 79.9375 620.742188 79.96875 C 620.996094 80.089844 621.265625 80.222656 621.519531 80.359375 C 617.28125 98.683594 610.953125 117.769531 596.679688 131.066406 Z M 596.679688 131.066406 " fill-opacity="1" fill-rule="nonzero"/><path fill="#fbf0d8" d="M 169.300781 102.550781 C 161.472656 98.347656 152.324219 97.875 143.6875 96.644531 C 137.019531 96 126.320312 94.957031 119.066406 98.144531 C 115.976562 96.472656 111.945312 95.984375 110.796875 100.152344 C 110.324219 101.875 111.015625 103.527344 112.214844 104.726562 C 111.554688 105.503906 111.167969 106.5 110.898438 107.460938 C 109.394531 109.03125 108.804688 111.121094 108.519531 113.230469 C 106.441406 124.789062 114.609375 165.460938 128.953125 165.882812 C 131.722656 165.695312 133.308594 162.910156 134.066406 160.53125 C 138.503906 148.28125 132.902344 135.488281 129.222656 123.777344 C 140.074219 135.203125 150.46875 147.488281 164.410156 155.285156 C 170.367188 158.574219 186.902344 169.898438 192.757812 163.753906 C 198.984375 151.488281 162.855469 125.246094 153.507812 118.867188 C 158.519531 118.933594 163.683594 118.023438 167.664062 114.75 C 171.78125 111.476562 175.867188 105.722656 169.285156 102.53125 Z M 128.699219 160.851562 C 121.328125 155.605469 119.890625 138.171875 118.609375 129.53125 C 118.375 123.878906 117.140625 117.417969 119.707031 112.234375 C 120.027344 112.269531 120.347656 112.285156 120.652344 112.335938 C 122.59375 116.335938 124.144531 120.539062 125.5625 124.773438 C 129.003906 136.0625 135.433594 149.648438 128.683594 160.871094 Z M 169.691406 142.914062 C 175.476562 148.195312 181.789062 153.328125 185.839844 160.144531 C 168.898438 155.4375 155.058594 143.066406 143.164062 130.476562 C 137.914062 124.6875 131.941406 119.578125 126.84375 113.652344 C 129.984375 115.324219 133.15625 116.945312 136.261719 118.664062 C 147.988281 125.484375 159.414062 133.921875 169.671875 142.929688 Z M 127.113281 103.308594 C 134.066406 101.585938 141.355469 102.398438 148.359375 103.359375 C 153.441406 104.269531 158.6875 105.046875 163.363281 107.324219 C 154.722656 112.945312 137.019531 104.878906 127.113281 103.308594 Z M 127.113281 103.308594 " fill-opacity="1" fill-rule="nonzero"/></svg>