<svg xmlns="http://www.w3.org/2000/svg" xmlns:xlink="http://www.w3.org/1999/xlink" width="1080" zoomAndPan="magnify" viewBox="0 0 810 809.999993" height="1080" preserveAspectRatio="xMidYMid meet" version="1.0"><defs><g/><clipPath id="d3929dff98"><rect x="0" width="581" y="0" height="810"/></clipPath></defs><g transform="matrix(1, 0, 0, 1, 111, 0.000000000000039746)"><g clip-path="url(#d3929dff98)"><g fill="#000000" fill-opacity="1"><g transform="translate(26.944013, 567.900596)"><g><path d="M 3.390625 147.734375 C -4.015625 147.734375 -9.316406 145.65625 -12.511719 141.507812 C -15.414062 137.730469 -16.867188 133.28125 -16.867188 128.152344 C -16.867188 108.175781 -9.570312 87.949219 5.019531 67.472656 C 19.238281 47.519531 38.121094 27.140625 61.667969 6.339844 C 85.046875 -14.316406 110.804688 -35.082031 138.9375 -55.953125 L 141.714844 -52.210938 L 139.730469 -47.992188 C 108.285156 -62.792969 85.546875 -79.660156 71.519531 -98.59375 C 57.347656 -117.726562 50.261719 -137.976562 50.261719 -159.34375 C 50.261719 -183.75 58.074219 -208.3125 73.699219 -233.03125 C 89.082031 -257.371094 109.488281 -280.652344 134.917969 -302.875 C 160.25 -325.011719 188.535156 -344.859375 219.78125 -362.421875 C 251.035156 -379.984375 282.867188 -393.789062 315.277344 -403.832031 C 347.820312 -413.917969 378.339844 -418.957031 406.839844 -418.957031 C 433.691406 -418.957031 455.09375 -415.558594 471.050781 -408.753906 C 488.308594 -401.394531 496.9375 -389 496.9375 -371.578125 C 496.9375 -352.394531 483.480469 -326.214844 456.566406 -293.039062 C 430.144531 -260.464844 386.066406 -219.210938 324.332031 -169.28125 C 306.796875 -155.34375 286.21875 -137.011719 262.589844 -114.285156 C 238.882812 -91.476562 213.699219 -66.75 187.050781 -40.101562 L 183.753906 -43.394531 L 185.035156 -47.878906 C 188.175781 -46.980469 191.425781 -46.085938 194.789062 -45.1875 C 198.207031 -44.277344 201.507812 -43.367188 204.699219 -42.453125 L 203.417969 -37.972656 L 200.023438 -41.164062 C 221.351562 -63.855469 244.15625 -86.207031 268.433594 -108.214844 C 292.8125 -130.3125 318.898438 -150.25 346.691406 -168.019531 C 374.589844 -185.855469 404.320312 -200.035156 435.875 -210.554688 C 467.546875 -221.109375 501.261719 -226.390625 537.027344 -226.390625 L 544.75 -226.390625 L 533.058594 -204.183594 L 530.246094 -204.183594 C 486.144531 -204.183594 445.292969 -195.949219 407.691406 -179.484375 C 369.890625 -162.933594 335.109375 -141.570312 303.347656 -115.402344 C 271.394531 -89.078125 241.699219 -61.515625 214.253906 -32.722656 L 210.878906 -35.9375 L 211.890625 -40.488281 C 223.898438 -37.820312 237.265625 -35.816406 251.984375 -34.476562 L 261.039062 -33.652344 L 244.515625 -14.589844 L 241.886719 -15.082031 C 234.550781 -16.457031 227.78125 -17.949219 221.574219 -19.558594 C 215.433594 -21.148438 209.183594 -22.855469 202.816406 -24.675781 L 204.097656 -29.15625 L 207.5 -25.96875 C 180.398438 2.9375 155.109375 30.484375 131.625 56.679688 C 107.960938 83.074219 85.867188 104.707031 65.34375 121.585938 C 44.140625 139.015625 23.488281 147.734375 3.390625 147.734375 Z M 3.390625 138.410156 C 21.261719 138.410156 39.9375 130.402344 59.421875 114.382812 C 79.582031 97.804688 101.335938 76.496094 124.683594 50.453125 C 148.210938 24.210938 173.550781 -3.390625 200.695312 -32.34375 L 202.640625 -34.421875 L 205.378906 -33.640625 C 211.667969 -31.839844 217.847656 -30.15625 223.914062 -28.582031 C 229.914062 -27.027344 236.476562 -25.582031 243.605469 -24.246094 L 242.746094 -19.664062 L 239.222656 -22.71875 L 248.039062 -32.886719 L 251.5625 -29.835938 L 251.140625 -25.191406 C 236.023438 -26.566406 222.265625 -28.632812 209.867188 -31.386719 L 201.808594 -33.175781 L 207.503906 -39.152344 C 235.207031 -68.21875 265.179688 -96.035156 297.417969 -122.597656 C 329.847656 -149.316406 365.359375 -171.125 403.953125 -188.027344 C 442.746094 -205.011719 484.84375 -213.503906 530.246094 -213.503906 L 530.246094 -208.84375 L 526.121094 -211.015625 L 532.902344 -223.898438 L 537.027344 -221.726562 L 537.027344 -217.066406 C 502.273438 -217.066406 469.539062 -211.945312 438.824219 -201.707031 C 408 -191.433594 378.964844 -177.585938 351.714844 -160.164062 C 324.359375 -142.675781 298.6875 -123.054688 274.695312 -101.308594 C 250.601562 -79.464844 227.976562 -57.289062 206.816406 -34.777344 L 204.871094 -32.707031 L 202.136719 -33.488281 C 199 -34.386719 195.75 -35.28125 192.386719 -36.179688 C 188.96875 -37.089844 185.664062 -38.003906 182.472656 -38.914062 L 174.855469 -41.089844 L 180.457031 -46.691406 C 207.152344 -73.382812 232.375 -98.15625 256.128906 -121.003906 C 279.964844 -143.933594 300.746094 -162.441406 318.46875 -176.53125 C 379.695312 -226.050781 423.3125 -266.84375 449.324219 -298.910156 C 474.851562 -330.375 487.613281 -354.597656 487.613281 -371.578125 C 487.613281 -384.894531 480.871094 -394.425781 467.390625 -400.175781 C 452.605469 -406.480469 432.421875 -409.636719 406.839844 -409.636719 C 379.28125 -409.636719 349.679688 -404.730469 318.035156 -394.925781 C 286.253906 -385.078125 255.027344 -371.535156 224.351562 -354.292969 C 193.664062 -337.046875 165.898438 -317.566406 141.054688 -295.855469 C 116.304688 -274.226562 96.480469 -251.625 81.578125 -228.050781 C 66.917969 -204.851562 59.585938 -181.953125 59.585938 -159.34375 C 59.585938 -140.027344 66.058594 -121.628906 79.011719 -104.144531 C 92.105469 -86.464844 113.667969 -70.5625 143.699219 -56.429688 L 150.75 -53.109375 L 144.492188 -48.46875 C 116.574219 -27.753906 91.023438 -7.15625 67.839844 13.324219 C 44.828125 33.65625 26.417969 53.511719 12.609375 72.886719 C -0.824219 91.738281 -7.542969 110.164062 -7.542969 128.152344 C -7.542969 131.164062 -6.734375 133.722656 -5.121094 135.820312 C -3.792969 137.546875 -0.957031 138.410156 3.390625 138.410156 Z M 146.40625 -61.386719 C 175.824219 -83.109375 206.144531 -104.832031 237.371094 -126.554688 C 268.484375 -148.199219 297.109375 -169.386719 323.25 -190.121094 C 379.910156 -235.539062 419.65625 -272.90625 442.488281 -302.230469 C 464.886719 -330.996094 476.085938 -353.207031 476.085938 -368.867188 C 476.085938 -379.832031 470.535156 -387.417969 459.429688 -391.628906 C 446.851562 -396.402344 431.582031 -398.785156 413.617188 -398.785156 C 398.367188 -398.785156 380.269531 -394.820312 359.332031 -386.882812 C 338.117188 -378.84375 315.765625 -367.777344 292.269531 -353.679688 C 268.722656 -339.554688 245.847656 -323.515625 223.640625 -305.570312 C 201.460938 -287.648438 181.304688 -268.5 163.167969 -248.125 C 145.109375 -227.835938 130.746094 -207.578125 120.074219 -187.34375 C 109.582031 -167.457031 104.335938 -148.628906 104.335938 -130.867188 C 104.335938 -117.269531 107.953125 -104.515625 115.1875 -92.601562 C 122.414062 -80.695312 134.453125 -70.421875 151.300781 -61.785156 L 149.175781 -57.636719 Z M 151.945312 -53.886719 L 149.617188 -52.167969 L 147.046875 -53.488281 C 128.636719 -62.929688 115.359375 -74.355469 107.21875 -87.761719 C 99.082031 -101.164062 95.011719 -115.53125 95.011719 -130.867188 C 95.011719 -150.167969 100.617188 -170.445312 111.824219 -191.695312 C 122.851562 -212.597656 137.644531 -233.472656 156.203125 -254.320312 C 174.679688 -275.082031 195.207031 -294.582031 217.78125 -312.824219 C 240.324219 -331.039062 263.554688 -347.324219 287.472656 -361.675781 C 311.445312 -376.058594 334.296875 -387.367188 356.027344 -395.601562 C 378.03125 -403.941406 397.226562 -408.109375 413.617188 -408.109375 C 432.722656 -408.109375 449.09375 -405.523438 462.738281 -400.347656 C 477.851562 -394.613281 485.410156 -384.121094 485.410156 -368.867188 C 485.410156 -351.074219 473.554688 -326.953125 449.84375 -296.5 C 426.566406 -266.605469 386.300781 -228.710938 329.046875 -182.816406 C 302.75 -161.960938 273.96875 -140.65625 242.695312 -118.902344 C 211.542969 -97.230469 181.289062 -75.558594 151.945312 -53.886719 Z M 6.101562 134.339844 C 21.6875 134.339844 38.652344 126.574219 56.996094 111.035156 C 76.027344 94.914062 96.765625 73.949219 119.210938 48.136719 C 141.84375 22.109375 166.507812 -5.386719 193.210938 -34.351562 L 196.636719 -31.191406 L 195.210938 -26.753906 L 176.226562 -32.855469 L 177.652344 -37.292969 L 180.949219 -33.996094 L 166.03125 -19.078125 C 146.957031 0.449219 127.523438 18.402344 107.734375 34.78125 C 88.054688 51.070312 70.070312 65.773438 53.78125 78.894531 C 37.59375 91.933594 24.566406 103.050781 14.707031 112.238281 C 5.75 120.585938 1.273438 126.792969 1.273438 130.867188 C 1.273438 132.148438 1.519531 133.003906 2.015625 133.429688 C 2.726562 134.039062 4.089844 134.339844 6.101562 134.339844 Z M 6.101562 143.664062 C 1.789062 143.664062 -1.597656 142.613281 -4.050781 140.507812 C -6.71875 138.222656 -8.050781 135.007812 -8.050781 130.867188 C -8.050781 124.089844 -2.585938 115.605469 8.347656 105.417969 C 18.375 96.074219 31.570312 84.8125 47.929688 71.632812 C 64.1875 58.539062 82.140625 43.859375 101.789062 27.597656 C 121.324219 11.429688 140.542969 -6.328125 159.4375 -25.671875 L 176.371094 -42.601562 L 205.011719 -33.394531 L 200.066406 -28.03125 C 173.425781 0.867188 148.820312 28.292969 126.246094 54.253906 C 103.488281 80.425781 82.414062 101.722656 63.023438 118.148438 C 42.941406 135.160156 23.96875 143.664062 6.101562 143.664062 Z M 6.101562 143.664062 "/></g></g></g><g fill="#053827" fill-opacity="1"><g transform="translate(26.944013, 567.900596)"><g><path d="M 3.390625 143.078125 C -2.484375 143.078125 -6.550781 141.601562 -8.8125 138.65625 C -11.070312 135.71875 -12.203125 132.21875 -12.203125 128.15625 C -12.203125 109.164062 -5.195312 89.835938 8.8125 70.171875 C 22.820312 50.515625 41.46875 30.398438 64.75 9.828125 C 88.03125 -10.734375 113.6875 -31.410156 141.71875 -52.203125 C 110.976562 -66.671875 88.828125 -83.054688 75.265625 -101.359375 C 61.703125 -119.671875 54.921875 -139 54.921875 -159.34375 C 54.921875 -182.851562 62.492188 -206.585938 77.640625 -230.546875 C 92.785156 -254.503906 112.898438 -277.441406 137.984375 -299.359375 C 163.078125 -321.285156 191.101562 -340.953125 222.0625 -358.359375 C 253.03125 -375.765625 284.5625 -389.4375 316.65625 -399.375 C 348.75 -409.320312 378.8125 -414.296875 406.84375 -414.296875 C 433.0625 -414.296875 453.851562 -411.015625 469.21875 -404.453125 C 484.582031 -397.898438 492.265625 -386.941406 492.265625 -371.578125 C 492.265625 -353.492188 479.15625 -328.289062 452.9375 -295.96875 C 426.726562 -263.65625 382.882812 -222.632812 321.40625 -172.90625 C 303.769531 -158.894531 283.085938 -140.472656 259.359375 -117.640625 C 235.628906 -94.816406 210.425781 -70.066406 183.75 -43.390625 C 186.914062 -42.492188 190.191406 -41.59375 193.578125 -40.6875 C 196.972656 -39.78125 200.253906 -38.875 203.421875 -37.96875 C 224.660156 -60.570312 247.375 -82.832031 271.5625 -104.75 C 295.75 -126.675781 321.628906 -146.453125 349.203125 -164.078125 C 376.773438 -181.710938 406.15625 -195.726562 437.34375 -206.125 C 468.539062 -216.519531 501.769531 -221.71875 537.03125 -221.71875 L 530.25 -208.84375 C 485.488281 -208.84375 444.007812 -200.476562 405.8125 -183.75 C 367.625 -167.03125 332.476562 -145.445312 300.375 -119 C 268.28125 -92.550781 238.445312 -64.863281 210.875 -35.9375 C 223.082031 -33.226562 236.644531 -31.191406 251.5625 -29.828125 L 242.75 -19.65625 C 235.507812 -21.019531 228.835938 -22.488281 222.734375 -24.0625 C 216.640625 -25.644531 210.425781 -27.34375 204.09375 -29.15625 C 176.96875 -0.226562 151.648438 27.34375 128.140625 53.5625 C 104.640625 79.78125 82.71875 101.253906 62.375 117.984375 C 42.039062 134.710938 22.378906 143.078125 3.390625 143.078125 Z M 149.171875 -57.640625 C 178.554688 -79.335938 208.84375 -101.035156 240.03125 -122.734375 C 271.226562 -144.429688 299.929688 -165.675781 326.140625 -186.46875 C 383.097656 -232.125 423.101562 -269.753906 446.15625 -299.359375 C 469.21875 -328.972656 480.75 -352.140625 480.75 -368.859375 C 480.75 -381.972656 474.191406 -391.015625 461.078125 -395.984375 C 447.972656 -400.960938 432.15625 -403.453125 413.625 -403.453125 C 397.800781 -403.453125 379.148438 -399.378906 357.671875 -391.234375 C 336.203125 -383.097656 313.597656 -371.910156 289.859375 -357.671875 C 266.128906 -343.429688 243.078125 -327.269531 220.703125 -309.1875 C 198.328125 -291.113281 177.984375 -271.789062 159.671875 -251.21875 C 141.367188 -230.65625 126.789062 -210.085938 115.9375 -189.515625 C 105.09375 -168.953125 99.671875 -149.398438 99.671875 -130.859375 C 99.671875 -116.398438 103.515625 -102.84375 111.203125 -90.1875 C 118.890625 -77.53125 131.546875 -66.679688 149.171875 -57.640625 Z M 6.109375 139 C 22.828125 139 40.789062 130.863281 60 114.59375 C 79.21875 98.320312 100.125 77.1875 122.71875 51.1875 C 145.320312 25.195312 169.960938 -2.257812 196.640625 -31.1875 L 177.65625 -37.296875 L 162.734375 -22.375 C 143.742188 -2.9375 124.414062 14.914062 104.75 31.1875 C 85.09375 47.457031 67.125 62.144531 50.84375 75.25 C 34.570312 88.363281 21.460938 99.554688 11.515625 108.828125 C 1.578125 118.097656 -3.390625 125.441406 -3.390625 130.859375 C -3.390625 136.285156 -0.222656 139 6.109375 139 Z M 6.109375 139 "/></g></g></g></g></g></svg>