<svg xmlns="http://www.w3.org/2000/svg" xmlns:xlink="http://www.w3.org/1999/xlink" width="1080" zoomAndPan="magnify" viewBox="0 0 810 809.999993" height="1080" preserveAspectRatio="xMidYMid meet" version="1.0"><defs><clipPath id="1d2b0bdafe"><path d="M 431 403 L 667.5 403 L 667.5 406 L 431 406 Z M 431 403 " clip-rule="nonzero"/></clipPath><clipPath id="21cffa6227"><path d="M 432.167969 403.578125 L 431.507812 403.570312 C 431.804688 403.894531 431.8125 404.3125 431.621094 404.660156 C 490.960938 403.988281 628.023438 402.8125 667.496094 405.746094 C 667.496094 405.746094 636.320312 401.796875 432.167969 403.578125 Z M 432.167969 403.578125 " clip-rule="nonzero"/></clipPath><radialGradient gradientTransform="matrix(1.265344, 0.0303956, -0.0525591, 0.732408, 106.383975, 1092.783091)" gradientUnits="userSpaceOnUse" r="22.336766" cx="404.59079" id="fdf5df7300" cy="-950.142729" fx="404.59079" fy="-950.142729"><stop stop-opacity="1" stop-color="rgb(98.429871%, 94.119263%, 85.488892%)" offset="0"/><stop stop-opacity="1" stop-color="rgb(98.429871%, 94.119263%, 85.488892%)" offset="1"/></radialGradient><clipPath id="72e09c019f"><path d="M 142.5 403 L 379 403 L 379 406 L 142.5 406 Z M 142.5 403 " clip-rule="nonzero"/></clipPath><clipPath id="978da0fe40"><path d="M 377.828125 403.578125 L 378.492188 403.570312 C 378.195312 403.894531 378.1875 404.3125 378.378906 404.660156 C 319.035156 403.988281 181.976562 402.8125 142.5 405.746094 C 142.5 405.746094 173.679688 401.796875 377.828125 403.578125 Z M 377.828125 403.578125 " clip-rule="nonzero"/></clipPath><radialGradient gradientTransform="matrix(-1.265344, 0.0303956, 0.0525591, 0.732408, 2801.051979, 1092.783091)" gradientUnits="userSpaceOnUse" r="22.336766" cx="2059.277623" id="e500d70539" cy="-1018.795503" fx="2059.277623" fy="-1018.795503"><stop stop-opacity="1" stop-color="rgb(98.429871%, 94.119263%, 85.488892%)" offset="0"/><stop stop-opacity="1" stop-color="rgb(98.429871%, 94.119263%, 85.488892%)" offset="1"/></radialGradient><clipPath id="3d3bf48564"><path d="M 383 404 L 399 404 L 399 408 L 383 408 Z M 383 404 " clip-rule="nonzero"/></clipPath><clipPath id="13209f3c0b"><path d="M 397.773438 404.175781 C 396.988281 403.835938 396.035156 404.070312 395.257812 404.308594 C 394.375 404.582031 393.546875 404.992188 392.695312 405.351562 C 390.769531 406.164062 388.597656 406.6875 386.492188 406.484375 C 385.539062 406.390625 384.652344 406.132812 383.824219 405.644531 C 383.578125 405.496094 383.339844 405.339844 383.097656 405.179688 C 387.132812 409.050781 393.191406 405.746094 393.191406 405.746094 C 395.347656 403.75 397.753906 405.125 398.9375 406.054688 C 398.875 405.300781 398.496094 404.496094 397.773438 404.175781 Z M 397.773438 404.175781 " clip-rule="nonzero"/></clipPath><radialGradient gradientTransform="matrix(1, 0, 0, 1, 142.500002, 401.482737)" gradientUnits="userSpaceOnUse" r="14.855122" cx="263.254885" id="37318b20fe" cy="-12.642933" fx="263.254885" fy="-12.642933"><stop stop-opacity="1" stop-color="rgb(98.429871%, 94.119263%, 85.488892%)" offset="0"/><stop stop-opacity="1" stop-color="rgb(98.429871%, 94.119263%, 85.488892%)" offset="1"/></radialGradient><clipPath id="25772a5fb0"><path d="M 410 404 L 427 404 L 427 408 L 410 408 Z M 410 404 " clip-rule="nonzero"/></clipPath><clipPath id="b3b6ce0bbb"><path d="M 423.429688 406.484375 C 421.324219 406.691406 419.15625 406.167969 417.226562 405.351562 C 416.375 404.996094 415.550781 404.585938 414.667969 404.3125 C 413.886719 404.070312 412.933594 403.835938 412.148438 404.179688 C 411.421875 404.496094 411.046875 405.300781 410.984375 406.0625 C 412.171875 405.128906 414.574219 403.753906 416.730469 405.75 C 416.730469 405.75 422.789062 409.054688 426.824219 405.183594 C 426.585938 405.339844 426.34375 405.5 426.097656 405.648438 C 425.269531 406.136719 424.382812 406.390625 423.429688 406.484375 Z M 423.429688 406.484375 " clip-rule="nonzero"/></clipPath><clipPath id="a076777b1d"><path d="M 378 401 L 432 401 L 432 409 L 378 409 Z M 378 401 " clip-rule="nonzero"/></clipPath><clipPath id="cb03647216"><path d="M 431.078125 403.53125 C 431.078125 403.53125 430.023438 400.929688 427.191406 403.5625 C 426.910156 403.824219 426.589844 404.042969 426.234375 404.195312 C 424.664062 404.859375 420.292969 406.355469 417.152344 403.960938 C 416.585938 403.527344 415.933594 403.222656 415.238281 403.058594 C 414.851562 402.96875 414.480469 402.9375 414.238281 403.042969 C 414.238281 403.042969 411.832031 401.242188 410.011719 404.84375 C 409.882812 405.320312 409.585938 405.75 409.191406 406.050781 C 408.644531 406.460938 407.941406 406.554688 407.304688 406.300781 C 406.726562 406.066406 406.207031 405.570312 406.164062 404.917969 C 406.125 404.332031 406.535156 403.707031 407.113281 403.574219 C 407.359375 403.515625 407.652344 403.519531 407.867188 403.671875 C 408.136719 403.871094 408.101562 404.199219 407.949219 404.464844 C 407.8125 404.703125 407.441406 404.488281 407.578125 404.246094 C 407.617188 404.175781 407.652344 404.109375 407.640625 404.042969 C 407.644531 404.054688 407.640625 404.039062 407.628906 404.027344 C 407.625 404.023438 407.605469 404.011719 407.582031 404 C 407.488281 403.957031 407.320312 403.960938 407.183594 403.996094 C 406.796875 404.105469 406.539062 404.574219 406.601562 404.964844 C 406.667969 405.410156 407.074219 405.75 407.480469 405.902344 C 407.96875 406.085938 408.476562 406.03125 408.902344 405.726562 C 409.300781 405.449219 409.574219 404.996094 409.636719 404.515625 C 409.613281 403.117188 408.214844 402.402344 406.566406 402.511719 C 406.566406 402.511719 406.507812 401.492188 404.960938 401.480469 C 403.410156 401.496094 403.355469 402.511719 403.355469 402.511719 C 401.703125 402.402344 400.335938 402.765625 400.285156 404.515625 C 400.347656 404.996094 400.617188 405.449219 401.015625 405.726562 C 401.441406 406.03125 401.953125 406.085938 402.441406 405.902344 C 402.84375 405.75 403.25 405.410156 403.320312 404.964844 C 403.378906 404.574219 403.125 404.105469 402.734375 403.996094 C 402.601562 403.960938 402.433594 403.957031 402.335938 404 C 402.3125 404.011719 402.296875 404.023438 402.289062 404.027344 C 402.28125 404.039062 402.277344 404.054688 402.277344 404.042969 C 402.265625 404.109375 402.304688 404.175781 402.34375 404.246094 C 402.480469 404.488281 402.109375 404.703125 401.96875 404.464844 C 401.820312 404.199219 401.78125 403.871094 402.054688 403.671875 C 402.265625 403.515625 402.558594 403.515625 402.808594 403.574219 C 403.382812 403.707031 403.796875 404.332031 403.757812 404.917969 C 403.714844 405.570312 403.195312 406.066406 402.613281 406.300781 C 401.980469 406.554688 401.277344 406.460938 400.730469 406.050781 C 400.335938 405.753906 400.039062 405.320312 399.910156 404.84375 C 398.085938 401.242188 395.683594 403.042969 395.683594 403.042969 C 395.441406 402.9375 395.066406 402.96875 394.683594 403.058594 C 393.992188 403.222656 393.335938 403.527344 392.769531 403.960938 C 389.628906 406.355469 385.253906 404.859375 383.6875 404.195312 C 383.328125 404.042969 383.011719 403.824219 382.730469 403.5625 C 379.898438 400.929688 378.84375 403.53125 378.84375 403.53125 C 378.351562 405.050781 379.753906 405.5 379.753906 405.5 C 380.394531 405.714844 380.695312 405.425781 380.707031 405.082031 C 380.714844 404.867188 380.589844 404.664062 380.386719 404.597656 C 379.921875 404.441406 379.746094 405.066406 379.746094 405.066406 C 378.566406 403.988281 379.777344 403.277344 379.777344 403.277344 C 380.710938 402.679688 381.746094 403.65625 382.152344 404.109375 C 382.9375 404.519531 383.636719 405.078125 384.425781 405.484375 C 385.546875 406.066406 386.871094 406.15625 388.113281 406.0625 C 389.277344 405.976562 390.441406 405.730469 391.542969 405.34375 C 392.535156 404.996094 393.464844 404.511719 394.441406 404.136719 C 395.296875 403.8125 396.246094 403.515625 397.171875 403.597656 C 398.03125 403.675781 398.722656 404.164062 399.082031 404.949219 C 399.300781 405.429688 399.382812 405.925781 399.359375 406.417969 C 399.558594 406.601562 399.675781 406.722656 399.675781 406.722656 C 400.628906 407.6875 401.515625 408.136719 402.277344 408.308594 C 402.261719 408.136719 402.277344 407.964844 402.332031 407.804688 C 402.40625 407.589844 402.582031 407.414062 402.757812 407.273438 C 402.957031 407.109375 403.191406 406.953125 403.453125 406.914062 C 403.742188 406.867188 403.992188 407.015625 404.042969 407.3125 C 404.066406 407.429688 404.015625 407.546875 403.894531 407.578125 C 403.789062 407.609375 403.648438 407.542969 403.628906 407.429688 C 403.625 407.402344 403.613281 407.375 403.609375 407.347656 C 403.617188 407.394531 403.609375 407.359375 403.597656 407.335938 C 403.59375 407.335938 403.589844 407.335938 403.585938 407.332031 C 403.574219 407.332031 403.558594 407.332031 403.546875 407.332031 C 403.550781 407.332031 403.550781 407.335938 403.527344 407.332031 C 403.527344 407.332031 403.523438 407.332031 403.523438 407.332031 C 403.511719 407.335938 403.503906 407.335938 403.492188 407.339844 C 403.46875 407.34375 403.449219 407.351562 403.425781 407.359375 C 403.410156 407.363281 403.398438 407.371094 403.382812 407.375 C 403.363281 407.386719 403.339844 407.394531 403.320312 407.40625 C 403.277344 407.429688 403.234375 407.453125 403.191406 407.480469 C 403.164062 407.496094 403.140625 407.511719 403.113281 407.53125 C 403.105469 407.539062 403.09375 407.546875 403.082031 407.554688 C 403.082031 407.558594 403.074219 407.5625 403.070312 407.566406 C 403.0625 407.570312 403.054688 407.578125 403.054688 407.578125 C 403.042969 407.589844 403.035156 407.597656 403.023438 407.601562 C 403.003906 407.621094 402.984375 407.636719 402.960938 407.65625 C 402.925781 407.691406 402.890625 407.722656 402.859375 407.761719 C 402.84375 407.777344 402.828125 407.792969 402.816406 407.808594 C 402.808594 407.816406 402.808594 407.816406 402.808594 407.816406 C 402.804688 407.820312 402.804688 407.824219 402.800781 407.832031 C 402.78125 407.855469 402.765625 407.890625 402.746094 407.917969 C 402.746094 407.921875 402.746094 407.925781 402.742188 407.925781 C 402.730469 407.960938 402.722656 408 402.714844 408.035156 C 402.691406 408.148438 402.691406 408.265625 402.71875 408.371094 C 404.082031 408.503906 404.957031 407.769531 404.957031 407.769531 C 404.957031 407.769531 405.832031 408.503906 407.195312 408.371094 C 407.21875 408.265625 407.222656 408.148438 407.199219 408.035156 C 407.191406 408 407.183594 407.960938 407.167969 407.925781 C 407.167969 407.921875 407.167969 407.917969 407.164062 407.917969 C 407.148438 407.890625 407.132812 407.855469 407.113281 407.832031 C 407.105469 407.824219 407.105469 407.824219 407.105469 407.816406 C 407.101562 407.816406 407.101562 407.816406 407.097656 407.808594 C 407.082031 407.792969 407.070312 407.777344 407.054688 407.761719 C 407.019531 407.726562 406.984375 407.691406 406.949219 407.65625 C 406.929688 407.636719 406.90625 407.621094 406.886719 407.601562 C 406.875 407.59375 406.867188 407.585938 406.859375 407.578125 C 406.855469 407.578125 406.847656 407.570312 406.84375 407.566406 C 406.835938 407.5625 406.832031 407.558594 406.828125 407.554688 C 406.816406 407.546875 406.808594 407.539062 406.796875 407.53125 C 406.773438 407.511719 406.746094 407.496094 406.71875 407.480469 C 406.679688 407.453125 406.636719 407.425781 406.59375 407.40625 C 406.570312 407.394531 406.550781 407.386719 406.53125 407.375 C 406.515625 407.367188 406.503906 407.363281 406.488281 407.359375 C 406.464844 407.351562 406.441406 407.34375 406.417969 407.339844 C 406.40625 407.335938 406.398438 407.335938 406.390625 407.332031 C 406.386719 407.332031 406.386719 407.332031 406.382812 407.332031 C 406.363281 407.335938 406.359375 407.332031 406.367188 407.332031 C 406.351562 407.332031 406.339844 407.332031 406.324219 407.332031 C 406.324219 407.332031 406.316406 407.335938 406.3125 407.335938 C 406.304688 407.359375 406.292969 407.394531 406.304688 407.347656 C 406.296875 407.375 406.289062 407.402344 406.285156 407.429688 C 406.265625 407.542969 406.125 407.609375 406.019531 407.578125 C 405.898438 407.546875 405.847656 407.429688 405.867188 407.3125 C 405.921875 407.015625 406.171875 406.867188 406.457031 406.914062 C 406.71875 406.953125 406.953125 407.109375 407.15625 407.273438 C 407.332031 407.414062 407.507812 407.589844 407.578125 407.804688 C 407.632812 407.964844 407.652344 408.136719 407.636719 408.308594 C 408.398438 408.136719 409.285156 407.683594 410.238281 406.722656 C 410.238281 406.722656 410.351562 406.601562 410.554688 406.417969 C 410.53125 405.925781 410.609375 405.429688 410.828125 404.949219 C 411.1875 404.164062 411.882812 403.675781 412.742188 403.597656 C 413.667969 403.515625 414.617188 403.8125 415.46875 404.136719 C 416.449219 404.507812 417.378906 404.996094 418.367188 405.34375 C 419.46875 405.730469 420.632812 405.976562 421.800781 406.0625 C 423.039062 406.15625 424.363281 406.066406 425.488281 405.484375 C 426.277344 405.078125 426.976562 404.519531 427.761719 404.109375 C 428.164062 403.65625 429.203125 402.679688 430.132812 403.277344 C 430.132812 403.277344 431.34375 403.988281 430.164062 405.066406 C 430.164062 405.066406 429.992188 404.441406 429.523438 404.597656 C 429.320312 404.664062 429.199219 404.867188 429.207031 405.082031 C 429.21875 405.425781 429.515625 405.714844 430.15625 405.5 C 430.167969 405.503906 431.570312 405.050781 431.078125 403.53125 Z M 431.078125 403.53125 " clip-rule="nonzero"/></clipPath></defs><g clip-path="url(#1d2b0bdafe)"><g clip-path="url(#21cffa6227)"><path fill="url(#fdf5df7300)" d="M 431.914062 396.136719 L 431.222656 405.738281 L 667.089844 411.40625 L 667.78125 401.804688 Z M 431.914062 396.136719 " fill-rule="nonzero"/></g></g><g clip-path="url(#72e09c019f)"><g clip-path="url(#978da0fe40)"><path fill="url(#e500d70539)" d="M 378.085938 396.136719 L 378.773438 405.738281 L 142.90625 411.40625 L 142.21875 401.804688 Z M 378.085938 396.136719 " fill-rule="nonzero"/></g></g><g clip-path="url(#3d3bf48564)"><g clip-path="url(#13209f3c0b)"><path fill="url(#37318b20fe)" d="M 383.097656 403.75 L 383.097656 409.050781 L 398.9375 409.050781 L 398.9375 403.75 Z M 383.097656 403.75 " fill-rule="nonzero"/></g></g><g clip-path="url(#25772a5fb0)"><g clip-path="url(#b3b6ce0bbb)"><path fill="url(#37318b20fe)" d="M 410.984375 403.753906 L 410.984375 409.054688 L 426.824219 409.054688 L 426.824219 403.753906 Z M 410.984375 403.753906 " fill-rule="nonzero"/></g></g><g clip-path="url(#a076777b1d)"><g clip-path="url(#cb03647216)"><path fill="url(#37318b20fe)" d="M 378.351562 400.929688 L 378.351562 408.503906 L 431.570312 408.503906 L 431.570312 400.929688 Z M 378.351562 400.929688 " fill-rule="nonzero"/></g></g></svg>