<svg xmlns="http://www.w3.org/2000/svg" xmlns:xlink="http://www.w3.org/1999/xlink" width="1080" zoomAndPan="magnify" viewBox="0 0 810 809.999993" height="1080" preserveAspectRatio="xMidYMid meet" version="1.0"><defs><clipPath id="a899a473cf"><path d="M 104 186 L 720 186 L 720 624.542969 L 104 624.542969 Z M 104 186 " clip-rule="nonzero"/></clipPath></defs><g clip-path="url(#a899a473cf)"><path fill="#1e3d2d" d="M 699.796875 274.367188 C 686.851562 267.257812 664.417969 260.40625 636.492188 254.183594 C 534.824219 231.558594 358.148438 215.445312 319.476562 208.382812 C 305.527344 205.84375 232.027344 187.890625 189.734375 186.371094 C 176.691406 185.902344 166.347656 187.195312 160.691406 190.234375 C 156.472656 192.511719 154.097656 195.695312 153.371094 199.542969 C 153.109375 200.929688 153.320312 202.304688 153.886719 203.46875 C 146.613281 231.460938 127.203125 332.304688 115.066406 408.878906 C 109.25 445.628906 105.097656 476.820312 104.660156 491.816406 C 104.433594 499.265625 105.773438 503.96875 106.875 505.601562 C 112.304688 513.652344 118.738281 520.632812 126.136719 526.464844 C 133.460938 532.253906 141.734375 536.90625 150.996094 540.347656 C 180.667969 551.386719 212.90625 559.03125 245.875 564.703125 C 294.34375 573.042969 344.410156 577.179688 390.148438 582.109375 C 417.816406 585.066406 445.46875 589.445312 473.070312 594.457031 C 514.703125 602.003906 556.21875 610.957031 597.429688 618.84375 C 603.71875 620.039062 621.820312 624.160156 635.507812 624.03125 C 645.914062 623.917969 654.109375 620.671875 657.890625 615.707031 C 675.132812 593.035156 685.71875 565.042969 692.378906 535.195312 C 701.753906 493.15625 703.382812 447.421875 706.679688 408.828125 C 708.683594 384.910156 716.78125 355.382812 718.625 328.523438 C 719.546875 315.03125 718.929688 302.148438 715.652344 290.753906 C 714.097656 285.390625 709.039062 279.425781 699.796875 274.351562 Z M 220.941406 203.097656 C 260.453125 209.253906 306.078125 220.875 316.710938 222.957031 C 350.648438 229.550781 491.347656 244.355469 593.632812 263.863281 C 632.082031 271.183594 665 279.101562 684.3125 287.636719 C 685.171875 288.023438 685.996094 288.394531 686.804688 288.785156 C 677.496094 290.902344 664.550781 295.960938 650.3125 302.535156 C 635.992188 309.164062 620.285156 317.210938 605.820312 325.066406 C 588.027344 334.714844 572.15625 344.023438 562.832031 348.855469 C 550.757812 355.496094 533.675781 362.527344 515.6875 370.300781 C 508.320312 373.484375 500.804688 376.78125 493.386719 380.160156 C 494.792969 372.789062 494.566406 365.757812 492.109375 359.457031 C 486.890625 346.058594 470.453125 339.222656 458.042969 347.691406 C 445.339844 356.371094 438.128906 367.199219 434.363281 383.859375 C 433.765625 386.542969 433.507812 384.167969 433.523438 380.5 C 433.652344 359.230469 420.484375 323.5625 393.703125 326.390625 C 368.070312 329.089844 359.765625 346.753906 360.039062 367.894531 C 354.15625 362.738281 348.324219 357.535156 342.535156 352.296875 C 325.890625 337.300781 309.730469 321.898438 293.359375 306.625 C 276.9375 291.304688 260.210938 276.289062 243.402344 261.195312 C 226.839844 246.667969 210.824219 230.359375 193.933594 215.636719 C 187.519531 210.046875 180.988281 204.679688 174.265625 199.71875 C 185.402344 198.457031 202.453125 200.238281 220.941406 203.113281 Z M 125.554688 488.972656 C 123.957031 490.296875 122.339844 491.574219 120.691406 492.753906 C 120.691406 490.832031 120.707031 488.601562 120.835938 486.433594 C 122.40625 460.480469 130.421875 405.644531 139.457031 350.828125 C 149.25 291.386719 160.15625 231.992188 165.425781 209.707031 C 171.761719 214.976562 177.871094 220.664062 183.882812 226.53125 C 199.945312 242.191406 215.203125 259.242188 231.039062 274.59375 C 247.878906 290.546875 264.234375 306.851562 281.074219 322.609375 C 290.5625 331.496094 300.195312 340.191406 309.972656 348.742188 C 303.910156 351.3125 297.578125 354.785156 291.160156 358.84375 C 270.828125 371.722656 249.738281 390.550781 234.449219 401.199219 C 227.890625 406 221.214844 410.640625 214.621094 415.40625 C 204.664062 422.597656 194.742188 429.871094 184.933594 437.304688 C 173.941406 445.644531 163.179688 454.257812 152.660156 463.195312 C 143.769531 470.855469 135.15625 480.988281 125.554688 488.972656 Z M 639.355469 603.832031 C 635.492188 604.316406 630.789062 604.074219 626.054688 603.585938 C 615.824219 602.503906 605.449219 600.128906 601.132812 599.320312 C 559.824219 591.644531 518.210938 582.835938 476.464844 575.515625 C 448.359375 570.601562 420.222656 566.367188 392.085938 563.554688 C 346.65625 559.03125 296.945312 555.3125 248.785156 547.476562 C 216.820312 542.257812 185.53125 535.242188 156.714844 524.835938 C 149.085938 522.085938 142.25 518.335938 136.191406 513.667969 C 132.765625 511.015625 129.597656 508.074219 126.671875 504.84375 C 129.191406 503.386719 131.664062 501.773438 134.089844 500.042969 C 144.289062 492.769531 153.644531 483.234375 163.097656 476.1875 C 176.042969 466.394531 189.457031 457.296875 202.824219 448.085938 C 211.808594 441.894531 220.828125 435.722656 229.683594 429.355469 C 235.273438 425.34375 240.738281 421.191406 246.214844 417.039062 C 260.730469 405.53125 280.625 385.75 299.855469 371.511719 C 307.273438 366.019531 314.480469 361.28125 321.300781 358.519531 C 334.957031 370.121094 348.96875 381.339844 363.417969 392.167969 C 367.878906 410.398438 375.972656 428.125 382.8125 438.921875 C 389.453125 449.410156 396.773438 459.347656 403.753906 469.59375 C 405.890625 472.714844 409.203125 477.851562 411.996094 479.90625 C 416.28125 478.03125 426.316406 469.886719 428.902344 467.851562 C 444.53125 455.582031 471.390625 428.722656 485.304688 402.023438 C 497.457031 397 510.304688 392.183594 522.652344 387.464844 C 524.335938 386.816406 526 386.1875 527.648438 385.539062 C 529.441406 389.582031 531.640625 393.894531 532.285156 395.316406 C 538.554688 408.863281 543.90625 423.097656 550.015625 436.886719 C 552.730469 443.011719 555.621094 449.039062 558.726562 454.90625 C 560.792969 458.6875 570.472656 478 583.160156 501.449219 C 588.460938 511.242188 594.359375 521.699219 600.324219 532.105469 C 616.257812 559.953125 632.597656 587.425781 640.03125 600.453125 C 640.582031 601.421875 641.035156 602.441406 641.4375 603.394531 C 640.792969 603.570312 639.984375 603.765625 639.355469 603.847656 Z M 699.554688 327.183594 C 697.550781 353.960938 689.277344 383.328125 687.125 407.164062 C 683.78125 444.933594 682.035156 489.683594 672.808594 530.847656 C 667.960938 552.4375 661.058594 573.042969 650.503906 590.902344 C 643.605469 576.277344 630.675781 549.5625 617.164062 522.992188 C 611.71875 512.277344 606.175781 501.625 600.839844 491.832031 C 588.007812 468.253906 576.9375 449.539062 574.742188 445.804688 C 571.492188 440.457031 568.488281 434.960938 565.578125 429.371094 C 558.5625 415.921875 552.097656 402.074219 544.84375 388.933594 C 544.179688 387.753906 541.691406 384.054688 539.816406 380.773438 C 552.195312 375.84375 563.429688 371.078125 572.234375 366.566406 C 581.578125 361.476562 597.59375 352.054688 615.207031 341.628906 C 629.109375 333.386719 644.007812 324.515625 657.632812 317.148438 C 672.710938 309 685.945312 302.441406 694.171875 301.019531 C 694.835938 300.90625 696.628906 300.304688 698.390625 299.675781 C 700.183594 308.160156 700.28125 317.484375 699.554688 327.214844 Z M 699.554688 327.183594 " fill-opacity="1" fill-rule="nonzero"/></g><path fill="#1e3d2d" d="M 771.230469 415.535156 C 772.796875 415.746094 774.332031 415.421875 775.640625 414.710938 C 779.359375 413.175781 797.703125 406.40625 802.210938 405.046875 L 802.386719 405 C 805.796875 404.367188 808.417969 401.394531 808.417969 397.902344 C 808.417969 394.027344 805.230469 390.972656 801.273438 391.066406 C 800.851562 391.066406 798.914062 391.421875 796.117188 392.359375 C 789.378906 394.625 773.796875 400.394531 770.390625 401.800781 C 765.816406 403.691406 765.3125 407.472656 765.265625 407.746094 C 764.925781 410.007812 765.554688 411.914062 767.09375 413.5 C 767.851562 414.273438 769.078125 415.261719 771.214844 415.535156 Z M 777.304688 403.351562 L 777.371094 403.414062 L 777.257812 403.300781 L 777.304688 403.335938 Z M 777.304688 403.351562 " fill-opacity="1" fill-rule="nonzero"/><path fill="#1e3d2d" d="M 808.191406 469.046875 C 807.1875 467.21875 805.441406 466.054688 803.519531 465.652344 C 802.015625 464.988281 784.253906 457.136719 780.019531 454.324219 L 779.828125 454.195312 C 777.191406 451.703125 772.925781 451.65625 770.082031 454.175781 C 767.109375 456.8125 766.800781 461.257812 769.386719 464.101562 C 770.035156 464.796875 771.683594 466.089844 774.136719 467.496094 C 780.683594 471.210938 794.710938 477.628906 798.414062 478.9375 C 802.160156 480.261719 804.730469 478.902344 805.230469 478.628906 C 808.722656 476.691406 810.03125 472.40625 808.171875 469.046875 Z M 799.914062 465.847656 L 800.011719 465.8125 L 800.09375 465.8125 Z M 800.351562 465.734375 Z M 800.351562 465.734375 " fill-opacity="1" fill-rule="nonzero"/><path fill="#1e3d2d" d="M 750.6875 499.332031 C 750.542969 499.039062 750.382812 498.78125 750.203125 498.507812 C 748.441406 496.003906 746.503906 495.761719 746.339844 495.710938 C 743.980469 495.050781 742.121094 495.613281 740.714844 496.421875 C 739.035156 497.375 737 499.136719 737.015625 502.710938 C 737.015625 502.871094 736.871094 504.324219 738.066406 506.328125 C 739.261719 508.332031 750.65625 526.175781 753.792969 531.75 C 755.683594 535.097656 760.011719 536.226562 763.488281 534.289062 C 766.960938 532.332031 768.253906 528.035156 766.363281 524.6875 C 763.441406 519.5 752.402344 502.03125 750.6875 499.347656 Z M 750.6875 499.332031 " fill-opacity="1" fill-rule="nonzero"/><path fill="#1e3d2d" d="M 41.90625 370.203125 C 40.339844 370.089844 38.820312 370.496094 37.558594 371.269531 C 33.9375 373.015625 16 380.789062 11.570312 382.40625 L 11.394531 382.46875 C 8.03125 383.277344 5.574219 386.398438 5.769531 389.886719 C 5.980469 393.75 9.339844 396.628906 13.285156 396.304688 C 13.703125 396.273438 15.613281 395.820312 18.359375 394.71875 C 24.953125 392.085938 40.191406 385.445312 43.523438 383.84375 C 47.984375 381.695312 48.273438 377.894531 48.289062 377.621094 C 48.5 375.34375 47.773438 373.484375 46.140625 371.980469 C 45.347656 371.253906 44.054688 370.332031 41.90625 370.171875 Z M 36.523438 382.710938 L 36.460938 382.648438 L 36.574219 382.746094 Z M 36.523438 382.710938 " fill-opacity="1" fill-rule="nonzero"/><path fill="#1e3d2d" d="M 30.964844 331.964844 L 31.160156 332.09375 C 33.921875 334.4375 38.1875 334.246094 40.886719 331.5625 C 43.714844 328.765625 43.765625 324.304688 41.015625 321.605469 C 40.339844 320.945312 38.609375 319.75 36.070312 318.488281 C 29.332031 315.140625 14.964844 309.519531 11.199219 308.417969 C 7.371094 307.304688 4.898438 308.808594 4.410156 309.113281 C 1.035156 311.230469 -0.03125 315.59375 2.003906 318.859375 C 3.101562 320.621094 4.914062 321.703125 6.851562 321.980469 C 8.386719 322.558594 26.554688 329.398438 30.949219 331.964844 Z M 10.441406 321.589844 L 10.34375 321.625 L 10.261719 321.625 Z M 10.019531 321.734375 Z M 10.019531 321.734375 " fill-opacity="1" fill-rule="nonzero"/><path fill="#1e3d2d" d="M 52.796875 253.195312 C 50.730469 249.964844 46.335938 249.074219 42.972656 251.207031 C 39.609375 253.359375 38.578125 257.722656 40.644531 260.953125 C 43.863281 265.980469 55.851562 282.789062 57.710938 285.375 C 57.875 285.648438 58.050781 285.90625 58.246094 286.164062 C 60.136719 288.574219 62.089844 288.703125 62.269531 288.734375 C 64.660156 289.269531 66.488281 288.589844 67.84375 287.71875 C 69.476562 286.667969 71.398438 284.808594 71.191406 281.234375 C 71.191406 281.074219 71.238281 279.621094 69.929688 277.679688 C 68.636719 275.742188 56.242188 258.578125 52.796875 253.179688 Z M 52.796875 253.195312 " fill-opacity="1" fill-rule="nonzero"/></svg>