<svg xmlns="http://www.w3.org/2000/svg" xmlns:xlink="http://www.w3.org/1999/xlink" width="1080" zoomAndPan="magnify" viewBox="0 0 810 809.999993" height="1080" preserveAspectRatio="xMidYMid meet" version="1.0"><path fill="#ffffff" d="M 800.898438 459.863281 C 809.765625 476.03125 803.765625 496.261719 787.632812 505.0625 L 420.964844 705.0625 C 416 707.761719 410.5 709.128906 405 709.128906 C 399.5 709.128906 394 707.730469 389.035156 705.0625 L 22.367188 505.0625 C 6.199219 496.230469 0.234375 475.996094 9.066406 459.863281 C 17.898438 443.730469 38.101562 437.730469 54.300781 446.5625 L 405 637.863281 L 755.699219 446.5625 C 771.933594 437.761719 792.101562 443.730469 800.898438 459.863281 Z M 22.367188 371.761719 L 389.035156 571.761719 C 394 574.464844 399.5 575.828125 405 575.828125 C 410.5 575.828125 416 574.429688 420.964844 571.761719 L 787.632812 371.761719 C 803.800781 362.929688 809.765625 342.695312 800.933594 326.5625 C 792.066406 310.398438 771.898438 304.464844 755.699219 313.261719 L 405 504.5625 L 54.300781 313.261719 C 38.132812 304.464844 17.933594 310.429688 9.101562 326.5625 C 0.265625 342.695312 6.234375 362.929688 22.367188 371.761719 Z M 22.367188 371.761719 " fill-opacity="1" fill-rule="nonzero"/></svg>