<svg xmlns="http://www.w3.org/2000/svg" xmlns:xlink="http://www.w3.org/1999/xlink" width="1080" zoomAndPan="magnify" viewBox="0 0 810 809.999993" height="1080" preserveAspectRatio="xMidYMid meet" version="1.0"><path fill="#ffffff" d="M 636.429688 694.285156 C 636.429688 696.179688 636.382812 698.070312 636.289062 699.964844 C 636.195312 701.855469 636.058594 703.742188 635.871094 705.628906 C 635.6875 707.511719 635.453125 709.390625 635.175781 711.265625 C 634.898438 713.136719 634.574219 715.003906 634.203125 716.859375 C 633.835938 718.71875 633.421875 720.566406 632.960938 722.402344 C 632.5 724.238281 631.996094 726.0625 631.445312 727.875 C 630.894531 729.6875 630.300781 731.484375 629.664062 733.269531 C 629.027344 735.050781 628.34375 736.816406 627.621094 738.566406 C 626.894531 740.316406 626.128906 742.046875 625.320312 743.761719 C 624.507812 745.472656 623.65625 747.164062 622.765625 748.832031 C 621.871094 750.503906 620.9375 752.148438 619.964844 753.773438 C 618.992188 755.398438 617.980469 757 616.925781 758.574219 C 615.875 760.148438 614.785156 761.695312 613.65625 763.214844 C 612.527344 764.738281 611.363281 766.230469 610.164062 767.695312 C 608.960938 769.15625 607.722656 770.589844 606.453125 771.996094 C 605.179688 773.398438 603.875 774.769531 602.535156 776.109375 C 601.199219 777.445312 599.828125 778.753906 598.421875 780.023438 C 597.019531 781.296875 595.585938 782.53125 594.121094 783.734375 C 592.660156 784.933594 591.167969 786.101562 589.644531 787.226562 C 588.125 788.355469 586.574219 789.445312 585 790.5 C 583.425781 791.550781 581.828125 792.5625 580.203125 793.539062 C 578.578125 794.511719 576.933594 795.445312 575.261719 796.335938 C 573.589844 797.230469 571.902344 798.082031 570.1875 798.890625 C 568.476562 799.699219 566.746094 800.46875 564.996094 801.191406 C 563.246094 801.917969 561.480469 802.597656 559.695312 803.234375 C 557.914062 803.875 556.117188 804.46875 554.304688 805.015625 C 552.492188 805.566406 550.667969 806.070312 548.832031 806.53125 C 546.992188 806.992188 545.144531 807.40625 543.289062 807.777344 C 541.429688 808.144531 539.566406 808.46875 537.691406 808.746094 C 535.820312 809.023438 533.941406 809.257812 532.054688 809.441406 C 530.171875 809.628906 528.285156 809.769531 526.390625 809.859375 C 524.5 809.953125 522.609375 810 520.714844 810 L 115.714844 810 C 113.820312 810 111.929688 809.953125 110.035156 809.859375 C 108.144531 809.769531 106.257812 809.628906 104.371094 809.441406 C 102.488281 809.257812 100.609375 809.023438 98.734375 808.746094 C 96.863281 808.46875 94.996094 808.144531 93.140625 807.777344 C 91.28125 807.40625 89.433594 806.992188 87.597656 806.53125 C 85.761719 806.070312 83.9375 805.566406 82.125 805.015625 C 80.3125 804.46875 78.515625 803.875 76.730469 803.234375 C 74.949219 802.597656 73.183594 801.917969 71.433594 801.191406 C 69.683594 800.46875 67.953125 799.699219 66.238281 798.890625 C 64.527344 798.082031 62.835938 797.230469 61.167969 796.335938 C 59.496094 795.445312 57.847656 794.511719 56.226562 793.539062 C 54.601562 792.5625 53 791.550781 51.425781 790.5 C 49.851562 789.445312 48.304688 788.355469 46.785156 787.226562 C 45.261719 786.101562 43.769531 784.933594 42.304688 783.734375 C 40.84375 782.53125 39.410156 781.296875 38.003906 780.023438 C 36.601562 778.753906 35.230469 777.445312 33.890625 776.109375 C 32.554688 774.769531 31.246094 773.398438 29.976562 771.996094 C 28.703125 770.589844 27.46875 769.15625 26.265625 767.695312 C 25.066406 766.230469 23.898438 764.738281 22.773438 763.214844 C 21.644531 761.695312 20.554688 760.148438 19.5 758.574219 C 18.449219 757 17.4375 755.398438 16.460938 753.773438 C 15.488281 752.148438 14.554688 750.503906 13.664062 748.832031 C 12.769531 747.164062 11.917969 745.472656 11.109375 743.761719 C 10.300781 742.046875 9.53125 740.316406 8.808594 738.566406 C 8.082031 736.816406 7.402344 735.050781 6.765625 733.269531 C 6.125 731.484375 5.53125 729.6875 4.984375 727.875 C 4.433594 726.0625 3.929688 724.238281 3.46875 722.402344 C 3.007812 720.566406 2.59375 718.71875 2.222656 716.859375 C 1.855469 715.003906 1.53125 713.136719 1.253906 711.265625 C 0.972656 709.390625 0.742188 707.511719 0.558594 705.628906 C 0.371094 703.742188 0.230469 701.855469 0.140625 699.964844 C 0.046875 698.070312 0 696.179688 0 694.285156 L 0 289.285156 C 0 287.390625 0.046875 285.5 0.140625 283.609375 C 0.230469 281.714844 0.371094 279.828125 0.558594 277.945312 C 0.742188 276.058594 0.972656 274.179688 1.253906 272.308594 C 1.53125 270.433594 1.855469 268.566406 2.222656 266.710938 C 2.59375 264.855469 3.007812 263.007812 3.46875 261.167969 C 3.929688 259.332031 4.433594 257.507812 4.984375 255.695312 C 5.53125 253.882812 6.125 252.085938 6.765625 250.304688 C 7.402344 248.519531 8.082031 246.753906 8.808594 245.003906 C 9.53125 243.253906 10.300781 241.523438 11.109375 239.8125 C 11.917969 238.097656 12.769531 236.410156 13.664062 234.738281 C 14.554688 233.066406 15.488281 231.421875 16.460938 229.796875 C 17.4375 228.171875 18.449219 226.574219 19.5 225 C 20.554688 223.421875 21.644531 221.875 22.773438 220.355469 C 23.898438 218.832031 25.066406 217.339844 26.265625 215.878906 C 27.46875 214.414062 28.703125 212.980469 29.976562 211.578125 C 31.246094 210.171875 32.554688 208.800781 33.890625 207.464844 C 35.230469 206.125 36.601562 204.820312 38.003906 203.546875 C 39.410156 202.273438 40.84375 201.039062 42.304688 199.835938 C 43.769531 198.636719 45.261719 197.472656 46.785156 196.34375 C 48.304688 195.214844 49.851562 194.125 51.425781 193.074219 C 53 192.019531 54.601562 191.007812 56.226562 190.035156 C 57.847656 189.0625 59.496094 188.128906 61.167969 187.234375 C 62.835938 186.34375 64.527344 185.492188 66.238281 184.679688 C 67.953125 183.871094 69.683594 183.105469 71.433594 182.378906 C 73.183594 181.65625 74.949219 180.972656 76.730469 180.335938 C 78.515625 179.699219 80.3125 179.105469 82.125 178.554688 C 83.9375 178.003906 85.761719 177.5 87.597656 177.039062 C 89.433594 176.578125 91.28125 176.164062 93.140625 175.792969 C 94.996094 175.425781 96.863281 175.101562 98.734375 174.824219 C 100.609375 174.546875 102.488281 174.3125 104.371094 174.128906 C 106.257812 173.941406 108.144531 173.804688 110.035156 173.710938 C 111.929688 173.617188 113.820312 173.570312 115.714844 173.570312 L 115.714844 231.429688 C 113.820312 231.429688 111.929688 231.519531 110.042969 231.707031 C 108.15625 231.894531 106.285156 232.171875 104.425781 232.539062 C 102.570312 232.910156 100.734375 233.371094 98.917969 233.921875 C 97.105469 234.46875 95.324219 235.109375 93.574219 235.832031 C 91.824219 236.558594 90.113281 237.367188 88.441406 238.261719 C 86.769531 239.152344 85.144531 240.125 83.570312 241.179688 C 81.996094 242.230469 80.476562 243.359375 79.011719 244.5625 C 77.546875 245.765625 76.144531 247.035156 74.804688 248.375 C 73.464844 249.714844 72.191406 251.117188 70.988281 252.582031 C 69.789062 254.046875 68.660156 255.566406 67.609375 257.140625 C 66.554688 258.71875 65.582031 260.339844 64.6875 262.011719 C 63.796875 263.683594 62.988281 265.394531 62.261719 267.144531 C 61.535156 268.894531 60.898438 270.675781 60.347656 272.492188 C 59.796875 274.304688 59.339844 276.140625 58.96875 278 C 58.597656 279.855469 58.320312 281.730469 58.136719 283.613281 C 57.949219 285.5 57.855469 287.390625 57.855469 289.285156 L 57.855469 694.285156 C 57.855469 696.179688 57.949219 698.070312 58.136719 699.957031 C 58.320312 701.84375 58.597656 703.714844 58.96875 705.574219 C 59.339844 707.429688 59.796875 709.265625 60.347656 711.082031 C 60.898438 712.894531 61.535156 714.675781 62.261719 716.425781 C 62.988281 718.175781 63.796875 719.886719 64.6875 721.558594 C 65.582031 723.230469 66.554688 724.855469 67.609375 726.429688 C 68.660156 728.003906 69.789062 729.523438 70.988281 730.988281 C 72.191406 732.453125 73.464844 733.855469 74.804688 735.195312 C 76.144531 736.535156 77.546875 737.808594 79.011719 739.011719 C 80.476562 740.210938 81.996094 741.339844 83.570312 742.390625 C 85.144531 743.445312 86.769531 744.417969 88.441406 745.3125 C 90.113281 746.203125 91.824219 747.011719 93.574219 747.738281 C 95.324219 748.464844 97.105469 749.101562 98.917969 749.652344 C 100.734375 750.203125 102.570312 750.660156 104.425781 751.03125 C 106.285156 751.402344 108.15625 751.679688 110.042969 751.863281 C 111.929688 752.050781 113.820312 752.144531 115.714844 752.144531 L 520.714844 752.144531 C 522.609375 752.144531 524.5 752.050781 526.386719 751.863281 C 528.269531 751.679688 530.144531 751.402344 532 751.03125 C 533.859375 750.660156 535.695312 750.203125 537.507812 749.652344 C 539.324219 749.101562 541.105469 748.464844 542.855469 747.738281 C 544.605469 747.011719 546.316406 746.203125 547.988281 745.3125 C 549.660156 744.417969 551.28125 743.445312 552.859375 742.390625 C 554.433594 741.339844 555.953125 740.210938 557.417969 739.011719 C 558.882812 737.808594 560.285156 736.535156 561.625 735.195312 C 562.964844 733.855469 564.234375 732.453125 565.4375 730.988281 C 566.640625 729.523438 567.769531 728.003906 568.820312 726.429688 C 569.875 724.855469 570.847656 723.230469 571.738281 721.558594 C 572.632812 719.886719 573.441406 718.175781 574.167969 716.425781 C 574.890625 714.675781 575.53125 712.894531 576.082031 711.082031 C 576.628906 709.265625 577.089844 707.429688 577.460938 705.574219 C 577.828125 703.714844 578.105469 701.84375 578.292969 699.957031 C 578.480469 698.070312 578.570312 696.179688 578.570312 694.285156 Z M 636.429688 694.285156 " fill-opacity="1" fill-rule="nonzero"/><path fill="#ffffff" d="M 289.285156 57.855469 C 287.390625 57.855469 285.5 57.949219 283.613281 58.136719 C 281.730469 58.320312 279.855469 58.597656 278 58.96875 C 276.140625 59.339844 274.304688 59.796875 272.492188 60.347656 C 270.675781 60.898438 268.894531 61.535156 267.144531 62.261719 C 265.394531 62.988281 263.683594 63.796875 262.011719 64.6875 C 260.339844 65.582031 258.71875 66.554688 257.140625 67.609375 C 255.566406 68.660156 254.046875 69.789062 252.582031 70.988281 C 251.117188 72.191406 249.714844 73.464844 248.375 74.804688 C 247.035156 76.144531 245.765625 77.546875 244.5625 79.011719 C 243.359375 80.476562 242.230469 81.996094 241.179688 83.570312 C 240.125 85.144531 239.152344 86.769531 238.261719 88.441406 C 237.367188 90.113281 236.558594 91.824219 235.832031 93.574219 C 235.109375 95.324219 234.46875 97.105469 233.921875 98.917969 C 233.371094 100.734375 232.910156 102.570312 232.539062 104.425781 C 232.171875 106.285156 231.894531 108.15625 231.707031 110.042969 C 231.519531 111.929688 231.429688 113.820312 231.429688 115.714844 L 231.429688 520.714844 C 231.429688 522.609375 231.519531 524.5 231.707031 526.386719 C 231.894531 528.269531 232.171875 530.144531 232.539062 532 C 232.910156 533.859375 233.371094 535.695312 233.917969 537.507812 C 234.46875 539.324219 235.109375 541.105469 235.832031 542.855469 C 236.558594 544.605469 237.367188 546.316406 238.261719 547.988281 C 239.152344 549.660156 240.125 551.28125 241.179688 552.859375 C 242.230469 554.433594 243.359375 555.953125 244.5625 557.417969 C 245.761719 558.882812 247.035156 560.285156 248.375 561.625 C 249.714844 562.964844 251.117188 564.238281 252.582031 565.4375 C 254.046875 566.640625 255.566406 567.769531 257.140625 568.820312 C 258.71875 569.875 260.339844 570.847656 262.011719 571.738281 C 263.683594 572.632812 265.394531 573.441406 267.144531 574.167969 C 268.894531 574.890625 270.675781 575.53125 272.492188 576.082031 C 274.304688 576.628906 276.140625 577.089844 278 577.460938 C 279.855469 577.828125 281.730469 578.105469 283.613281 578.292969 C 285.5 578.480469 287.390625 578.570312 289.285156 578.570312 L 694.285156 578.570312 C 696.179688 578.570312 698.070312 578.480469 699.957031 578.292969 C 701.84375 578.105469 703.714844 577.828125 705.574219 577.460938 C 707.429688 577.089844 709.265625 576.628906 711.082031 576.082031 C 712.894531 575.53125 714.675781 574.890625 716.425781 574.167969 C 718.175781 573.441406 719.886719 572.632812 721.558594 571.738281 C 723.230469 570.847656 724.855469 569.875 726.429688 568.820312 C 728.003906 567.769531 729.523438 566.640625 730.988281 565.4375 C 732.453125 564.238281 733.855469 562.964844 735.195312 561.625 C 736.535156 560.285156 737.808594 558.882812 739.011719 557.417969 C 740.210938 555.953125 741.339844 554.433594 742.390625 552.859375 C 743.445312 551.28125 744.417969 549.660156 745.3125 547.988281 C 746.203125 546.316406 747.011719 544.605469 747.738281 542.855469 C 748.464844 541.105469 749.101562 539.324219 749.652344 537.507812 C 750.203125 535.695312 750.660156 533.859375 751.03125 532 C 751.402344 530.144531 751.679688 528.269531 751.863281 526.386719 C 752.050781 524.5 752.144531 522.609375 752.144531 520.714844 L 752.144531 115.714844 C 752.144531 113.820312 752.050781 111.929688 751.863281 110.042969 C 751.679688 108.15625 751.402344 106.285156 751.03125 104.425781 C 750.660156 102.570312 750.203125 100.734375 749.652344 98.917969 C 749.101562 97.105469 748.464844 95.324219 747.738281 93.574219 C 747.011719 91.824219 746.203125 90.113281 745.3125 88.441406 C 744.417969 86.769531 743.445312 85.144531 742.390625 83.570312 C 741.339844 81.996094 740.210938 80.476562 739.011719 79.011719 C 737.808594 77.546875 736.535156 76.144531 735.195312 74.804688 C 733.855469 73.464844 732.453125 72.191406 730.988281 70.988281 C 729.523438 69.789062 728.003906 68.660156 726.429688 67.609375 C 724.855469 66.554688 723.230469 65.582031 721.558594 64.6875 C 719.886719 63.796875 718.175781 62.988281 716.425781 62.261719 C 714.675781 61.535156 712.894531 60.898438 711.082031 60.347656 C 709.265625 59.796875 707.429688 59.339844 705.574219 58.96875 C 703.714844 58.597656 701.84375 58.320312 699.957031 58.136719 C 698.070312 57.949219 696.179688 57.855469 694.285156 57.855469 Z M 289.285156 0 L 694.285156 0 C 696.179688 0 698.070312 0.046875 699.964844 0.140625 C 701.855469 0.230469 703.742188 0.371094 705.628906 0.558594 C 707.511719 0.742188 709.390625 0.972656 711.265625 1.253906 C 713.136719 1.53125 715.003906 1.855469 716.859375 2.222656 C 718.71875 2.59375 720.566406 3.007812 722.402344 3.46875 C 724.238281 3.929688 726.0625 4.433594 727.875 4.984375 C 729.6875 5.53125 731.484375 6.125 733.269531 6.765625 C 735.050781 7.402344 736.816406 8.082031 738.566406 8.808594 C 740.316406 9.53125 742.046875 10.300781 743.761719 11.109375 C 745.472656 11.917969 747.164062 12.769531 748.832031 13.664062 C 750.503906 14.554688 752.148438 15.488281 753.773438 16.460938 C 755.398438 17.4375 757 18.449219 758.574219 19.5 C 760.148438 20.554688 761.695312 21.644531 763.214844 22.773438 C 764.738281 23.898438 766.230469 25.066406 767.695312 26.265625 C 769.15625 27.46875 770.589844 28.703125 771.996094 29.976562 C 773.398438 31.246094 774.769531 32.554688 776.109375 33.890625 C 777.445312 35.230469 778.753906 36.601562 780.023438 38.003906 C 781.296875 39.410156 782.53125 40.84375 783.734375 42.304688 C 784.933594 43.769531 786.101562 45.261719 787.226562 46.785156 C 788.355469 48.304688 789.445312 49.851562 790.5 51.425781 C 791.550781 53 792.5625 54.601562 793.539062 56.226562 C 794.511719 57.847656 795.445312 59.496094 796.335938 61.167969 C 797.230469 62.835938 798.082031 64.527344 798.890625 66.238281 C 799.699219 67.953125 800.46875 69.683594 801.191406 71.433594 C 801.917969 73.183594 802.597656 74.949219 803.234375 76.730469 C 803.875 78.515625 804.46875 80.3125 805.015625 82.125 C 805.566406 83.9375 806.070312 85.761719 806.53125 87.597656 C 806.992188 89.433594 807.40625 91.28125 807.777344 93.140625 C 808.144531 94.996094 808.46875 96.863281 808.746094 98.734375 C 809.023438 100.609375 809.257812 102.488281 809.441406 104.371094 C 809.628906 106.257812 809.769531 108.144531 809.859375 110.035156 C 809.953125 111.929688 810 113.820312 810 115.714844 L 810 520.714844 C 810 522.609375 809.953125 524.5 809.859375 526.390625 C 809.769531 528.285156 809.628906 530.171875 809.441406 532.054688 C 809.257812 533.941406 809.023438 535.820312 808.746094 537.691406 C 808.46875 539.566406 808.144531 541.429688 807.777344 543.289062 C 807.40625 545.144531 806.992188 546.992188 806.53125 548.832031 C 806.070312 550.667969 805.566406 552.492188 805.015625 554.304688 C 804.46875 556.117188 803.875 557.914062 803.234375 559.695312 C 802.597656 561.480469 801.917969 563.246094 801.191406 564.996094 C 800.46875 566.746094 799.699219 568.476562 798.890625 570.1875 C 798.082031 571.898438 797.230469 573.589844 796.335938 575.261719 C 795.445312 576.933594 794.511719 578.578125 793.535156 580.203125 C 792.5625 581.828125 791.550781 583.425781 790.5 585 C 789.445312 586.578125 788.355469 588.125 787.226562 589.644531 C 786.101562 591.167969 784.933594 592.660156 783.734375 594.121094 C 782.53125 595.585938 781.296875 597.019531 780.023438 598.421875 C 778.753906 599.828125 777.445312 601.199219 776.109375 602.535156 C 774.769531 603.875 773.398438 605.179688 771.996094 606.453125 C 770.589844 607.726562 769.15625 608.960938 767.695312 610.164062 C 766.230469 611.363281 764.738281 612.527344 763.214844 613.65625 C 761.695312 614.785156 760.148438 615.875 758.574219 616.925781 C 757 617.980469 755.398438 618.992188 753.773438 619.964844 C 752.148438 620.9375 750.503906 621.871094 748.832031 622.765625 C 747.164062 623.65625 745.472656 624.507812 743.761719 625.320312 C 742.046875 626.128906 740.316406 626.894531 738.566406 627.621094 C 736.816406 628.34375 735.050781 629.027344 733.269531 629.664062 C 731.484375 630.300781 729.6875 630.894531 727.875 631.445312 C 726.0625 631.996094 724.238281 632.5 722.402344 632.960938 C 720.566406 633.421875 718.71875 633.835938 716.859375 634.207031 C 715.003906 634.574219 713.136719 634.898438 711.265625 635.175781 C 709.390625 635.453125 707.511719 635.6875 705.628906 635.871094 C 703.742188 636.058594 701.855469 636.195312 699.964844 636.289062 C 698.070312 636.382812 696.179688 636.429688 694.285156 636.429688 L 289.285156 636.429688 C 287.390625 636.429688 285.5 636.382812 283.609375 636.289062 C 281.714844 636.195312 279.828125 636.058594 277.945312 635.871094 C 276.058594 635.6875 274.179688 635.453125 272.308594 635.175781 C 270.433594 634.898438 268.566406 634.574219 266.710938 634.203125 C 264.855469 633.835938 263.007812 633.421875 261.167969 632.960938 C 259.332031 632.5 257.507812 631.996094 255.695312 631.445312 C 253.882812 630.894531 252.085938 630.300781 250.304688 629.664062 C 248.519531 629.027344 246.753906 628.34375 245.003906 627.621094 C 243.253906 626.894531 241.523438 626.128906 239.8125 625.320312 C 238.097656 624.507812 236.410156 623.65625 234.738281 622.765625 C 233.066406 621.871094 231.421875 620.9375 229.796875 619.964844 C 228.171875 618.992188 226.574219 617.980469 225 616.925781 C 223.421875 615.875 221.875 614.785156 220.355469 613.65625 C 218.832031 612.527344 217.339844 611.363281 215.878906 610.164062 C 214.414062 608.960938 212.980469 607.722656 211.578125 606.453125 C 210.171875 605.179688 208.800781 603.875 207.464844 602.535156 C 206.125 601.199219 204.820312 599.828125 203.546875 598.421875 C 202.273438 597.019531 201.039062 595.585938 199.835938 594.121094 C 198.636719 592.660156 197.472656 591.167969 196.34375 589.644531 C 195.214844 588.125 194.125 586.578125 193.074219 585 C 192.019531 583.425781 191.007812 581.828125 190.035156 580.203125 C 189.0625 578.578125 188.128906 576.933594 187.234375 575.261719 C 186.34375 573.589844 185.492188 571.902344 184.679688 570.1875 C 183.871094 568.476562 183.105469 566.746094 182.378906 564.996094 C 181.65625 563.246094 180.972656 561.480469 180.335938 559.695312 C 179.699219 557.914062 179.105469 556.117188 178.554688 554.304688 C 178.003906 552.492188 177.5 550.667969 177.039062 548.832031 C 176.578125 546.992188 176.164062 545.144531 175.792969 543.289062 C 175.425781 541.429688 175.101562 539.566406 174.824219 537.691406 C 174.546875 535.820312 174.3125 533.941406 174.128906 532.054688 C 173.941406 530.171875 173.804688 528.285156 173.710938 526.390625 C 173.617188 524.5 173.570312 522.609375 173.570312 520.714844 L 173.570312 115.714844 C 173.570312 113.820312 173.617188 111.929688 173.710938 110.035156 C 173.804688 108.144531 173.941406 106.257812 174.128906 104.371094 C 174.3125 102.488281 174.546875 100.609375 174.824219 98.734375 C 175.101562 96.863281 175.425781 94.996094 175.792969 93.140625 C 176.164062 91.28125 176.578125 89.433594 177.039062 87.597656 C 177.5 85.761719 178.003906 83.9375 178.554688 82.125 C 179.105469 80.3125 179.699219 78.515625 180.335938 76.730469 C 180.972656 74.949219 181.65625 73.183594 182.378906 71.433594 C 183.105469 69.683594 183.871094 67.953125 184.679688 66.238281 C 185.492188 64.527344 186.34375 62.835938 187.234375 61.167969 C 188.128906 59.496094 189.0625 57.847656 190.035156 56.226562 C 191.007812 54.601562 192.019531 53 193.074219 51.425781 C 194.125 49.851562 195.214844 48.304688 196.34375 46.785156 C 197.472656 45.261719 198.636719 43.769531 199.835938 42.304688 C 201.039062 40.84375 202.273438 39.410156 203.546875 38.003906 C 204.820312 36.601562 206.125 35.230469 207.464844 33.890625 C 208.800781 32.554688 210.171875 31.246094 211.578125 29.976562 C 212.980469 28.703125 214.414062 27.46875 215.878906 26.265625 C 217.339844 25.066406 218.832031 23.898438 220.355469 22.773438 C 221.875 21.644531 223.421875 20.554688 225 19.5 C 226.574219 18.449219 228.171875 17.4375 229.796875 16.460938 C 231.421875 15.488281 233.066406 14.554688 234.738281 13.664062 C 236.410156 12.769531 238.097656 11.917969 239.8125 11.109375 C 241.523438 10.300781 243.253906 9.53125 245.003906 8.808594 C 246.753906 8.082031 248.519531 7.402344 250.304688 6.765625 C 252.085938 6.125 253.882812 5.53125 255.695312 4.984375 C 257.507812 4.433594 259.332031 3.929688 261.167969 3.46875 C 263.007812 3.007812 264.855469 2.59375 266.710938 2.222656 C 268.566406 1.855469 270.433594 1.53125 272.308594 1.253906 C 274.179688 0.972656 276.058594 0.742188 277.945312 0.558594 C 279.828125 0.371094 281.714844 0.230469 283.609375 0.140625 C 285.5 0.046875 287.390625 0 289.285156 0 Z M 289.285156 0 " fill-opacity="1" fill-rule="nonzero"/></svg>