<svg xmlns="http://www.w3.org/2000/svg" xmlns:xlink="http://www.w3.org/1999/xlink" width="1080" zoomAndPan="magnify" viewBox="0 0 810 809.999993" height="1080" preserveAspectRatio="xMidYMid meet" version="1.0"><path fill="#1e3d2d" d="M 403.378906 186.523438 C 409.433594 179.605469 415.257812 172.472656 421.59375 165.824219 C 449.777344 136.191406 481.203125 111.117188 520.613281 97.925781 C 546.199219 89.355469 572.363281 86.632812 598.835938 93.371094 C 605.945312 95.183594 613.046875 97.949219 619.429688 101.558594 C 648.046875 117.789062 656.15625 147.691406 638.199219 175.328125 C 614.433594 211.902344 579.253906 226.914062 536.53125 222.75 C 521.515625 221.28125 506.816406 215.695312 492.1875 211.273438 C 472.585938 205.339844 453.164062 198.59375 432.3125 199.8125 C 427.105469 200.117188 422.019531 202.617188 416.910156 204.21875 C 413.839844 205.1875 410.921875 206.929688 407.796875 207.386719 C 383.578125 210.964844 361.269531 219.929688 339.664062 230.992188 C 328.089844 236.917969 316.378906 242.589844 304.855469 248.613281 C 300.792969 250.738281 296.890625 253.300781 293.257812 256.113281 C 262.742188 279.703125 232.535156 303.691406 201.691406 326.820312 C 194.730469 332.042969 190.789062 337.417969 189.902344 345.914062 C 186.265625 380.535156 180.90625 415.054688 178.894531 449.765625 C 176.25 495.207031 176.234375 540.796875 174.894531 586.324219 C 174.742188 591.5 173.363281 596.632812 172.558594 601.792969 C 171.269531 601.914062 169.980469 602.035156 168.691406 602.152344 C 167.34375 598.195312 165.175781 594.3125 164.804688 590.257812 C 163.539062 576.394531 162.007812 562.460938 162.1875 548.574219 C 162.683594 509.542969 163.992188 470.519531 164.957031 431.496094 C 165.023438 428.738281 164.964844 425.976562 164.964844 424.066406 C 122.308594 414.804688 79.996094 405.617188 36.878906 396.261719 C 36.378906 441.472656 34.484375 486.40625 22.804688 531.660156 C 29.316406 533.601562 35.410156 535.339844 41.457031 537.242188 C 71.113281 546.558594 100.835938 555.691406 130.351562 565.433594 C 137.949219 567.941406 146.347656 570.699219 149.074219 580.691406 C 141.578125 585.609375 134.324219 582.738281 127.464844 580.714844 C 110.992188 575.855469 94.703125 570.34375 78.296875 565.257812 C 60.113281 559.625 41.875 554.152344 23.652344 548.648438 C 3.300781 542.5 0.351562 537.960938 3.84375 517.652344 C 10.984375 476.03125 18.171875 434.414062 25.417969 392.335938 C 23.410156 390.753906 21.808594 389.160156 19.914062 388.0625 C 13.117188 384.128906 10.820312 378.367188 11.007812 370.582031 C 11.636719 344.550781 11.773438 318.511719 12.136719 292.480469 C 12.175781 289.699219 12.25 286.878906 12.707031 284.136719 C 14.554688 273.121094 17.574219 271.308594 28.90625 272.832031 C 32.734375 273.347656 37.113281 273.234375 40.65625 271.886719 C 78.390625 257.523438 116.011719 242.855469 153.660156 228.246094 C 154.488281 227.921875 155.199219 227.277344 156.921875 226.167969 C 155.65625 223.144531 154.351562 219.894531 152.949219 216.703125 C 139.242188 185.523438 143.527344 156.324219 164.964844 130.582031 C 193.078125 96.835938 229.730469 86.601562 271.632812 97.972656 C 286.664062 102.050781 301.636719 108.554688 314.78125 116.878906 C 337.105469 131.023438 357.980469 147.464844 379.433594 162.988281 C 388.140625 169.28125 396.753906 175.707031 405.410156 182.066406 C 404.734375 183.546875 404.066406 185.03125 403.386719 186.523438 Z M 165.84375 411.894531 C 166.394531 408.398438 166.988281 404.882812 167.488281 401.355469 C 170.375 381.132812 173.339844 360.917969 176.082031 340.683594 C 177.667969 328.949219 183.003906 320.308594 193.222656 313.578125 C 211.460938 301.578125 228.949219 288.425781 246.695312 275.691406 C 249.414062 273.742188 251.863281 271.410156 256.917969 267.1875 C 216.488281 275.417969 185.839844 264.277344 163.320312 235.257812 C 125.984375 250.996094 90.238281 266.066406 53.011719 281.769531 C 74.949219 289.8125 95.492188 297.015625 115.773438 304.90625 C 127.867188 309.613281 139.667969 315.140625 151.347656 320.816406 C 156.671875 323.402344 162.058594 326.867188 159.519531 334.636719 C 151.691406 339.144531 144.695312 335.507812 138.070312 332.726562 C 103.820312 318.367188 69.703125 303.664062 35.523438 289.117188 C 31.839844 287.546875 28.0625 286.191406 22.878906 284.167969 C 22.878906 309.945312 23.121094 334.007812 22.75 358.066406 C 22.621094 366.792969 26.851562 370.382812 34.582031 372.347656 C 50.328125 376.363281 66.070312 380.480469 81.597656 385.234375 C 109.445312 393.753906 137.128906 402.773438 165.835938 411.878906 Z M 391.9375 198.675781 C 387.996094 196.894531 384.925781 195.804688 382.152344 194.195312 C 364.734375 184.070312 346.003906 177.503906 326.445312 172.988281 C 286.960938 163.882812 249.960938 169.445312 215.707031 191.4375 C 206.390625 197.417969 199.507812 205.15625 197.882812 216.761719 C 197.339844 220.613281 196.90625 225.367188 191.183594 225.699219 C 184.625 212.972656 186.089844 197.34375 197.042969 186.144531 C 204.691406 178.316406 213.796875 171.273438 223.46875 166.195312 C 247.414062 153.625 273.253906 148.875 300.324219 151.503906 C 305.101562 151.972656 309.914062 152.011719 316 152.308594 C 295.191406 131.046875 257.691406 117.476562 231.167969 121.804688 C 187.574219 128.90625 167.433594 166.503906 171.785156 195.371094 C 178.964844 242.953125 218.382812 261.09375 251.402344 253.292969 C 276.476562 247.371094 299.847656 237.480469 322.800781 226.359375 C 343.707031 216.21875 364.65625 206.371094 387.472656 201.199219 C 388.734375 200.90625 389.839844 199.875 391.925781 198.660156 Z M 440.234375 175.207031 C 453.476562 176.117188 463.34375 175.929688 472.84375 177.679688 C 482.820312 179.511719 492.476562 183.097656 502.230469 186.085938 C 509.320312 188.261719 516.253906 190.980469 523.386719 192.984375 C 552.785156 201.261719 579.171875 194.910156 602.753906 176.996094 C 599.675781 170.074219 596.703125 163.921875 594.1875 157.589844 C 589.898438 146.796875 582.226562 139.875 570.886719 137.820312 C 563.191406 136.425781 555.203125 135.125 547.472656 135.660156 C 509.046875 138.285156 475.40625 154.203125 440.234375 175.207031 Z M 457.226562 151.980469 C 467.976562 146.859375 478.550781 141.339844 489.503906 136.707031 C 512.859375 126.832031 537.117188 121.402344 562.667969 124.117188 C 586.488281 126.65625 599.5625 137.941406 605.726562 160.933594 C 606.597656 164.171875 607.679688 167.347656 609.265625 172.539062 C 613.796875 166.75 617.324219 163.042969 619.921875 158.773438 C 628.382812 144.804688 626.253906 131.917969 613.375 121.964844 C 608.347656 118.082031 602.398438 114.339844 596.339844 113.058594 C 583.757812 110.402344 570.757812 107.660156 558.03125 108.09375 C 518.929688 109.417969 486.246094 127.347656 457.21875 151.980469 Z M 457.226562 151.980469 " fill-opacity="1" fill-rule="nonzero"/><path fill="#1e3d2d" d="M 267.570312 641.566406 C 266.097656 634.84375 263.644531 628.167969 263.292969 621.382812 C 259.429688 547.785156 263.886719 474.613281 275.894531 401.917969 C 278.539062 385.902344 281.707031 369.96875 285.003906 354.078125 C 288.523438 337.097656 299.105469 326.207031 315.410156 320.824219 C 322.898438 318.351562 330.425781 315.898438 338.074219 314.023438 C 361.109375 308.378906 377.921875 294.527344 389.921875 274.644531 C 395.425781 265.519531 399.800781 255.710938 404.71875 246.21875 C 406.917969 241.96875 406.941406 241.988281 414.476562 238.398438 C 414.871094 242.300781 415.992188 245.863281 415.445312 249.152344 C 412.59375 266.230469 407.789062 282.773438 398.214844 297.378906 C 383.457031 319.890625 363.519531 333.257812 335.375 331.285156 C 331.214844 330.996094 326.976562 330.839844 322.84375 331.285156 C 306.046875 333.105469 300.035156 338.957031 296.320312 357.277344 C 307.253906 361.660156 318.433594 365.941406 329.449219 370.589844 C 360.253906 383.582031 390.992188 396.734375 421.78125 409.785156 C 425.625 411.410156 429.589844 412.765625 433.449219 414.363281 C 446.222656 419.632812 458.644531 419.496094 470.972656 412.71875 C 481.144531 407.125 491.65625 402.160156 501.882812 396.679688 C 522.320312 385.71875 542.664062 374.582031 564.277344 362.84375 C 560.078125 358.695312 556.394531 354.769531 552.421875 351.160156 C 519.742188 321.4375 486.972656 291.816406 454.347656 262.039062 C 450.527344 258.546875 445.078125 255.921875 444.757812 249 C 450.972656 247.054688 455.128906 250.449219 459.046875 253.316406 C 509.425781 290.101562 557.695312 329.390625 601.457031 374 C 613.519531 386.289062 618.632812 401.394531 619.628906 418.09375 C 620.824219 438.039062 622.242188 458.011719 622.410156 477.972656 C 622.726562 515.167969 622.28125 552.371094 621.984375 589.574219 C 621.917969 597.800781 622.015625 606.257812 615.898438 613.316406 C 609.121094 610.800781 608.53125 604.941406 608.121094 599.597656 C 606.453125 577.832031 604.6875 556.054688 603.84375 534.246094 C 602.457031 498.476562 601.0625 462.6875 601.003906 426.902344 C 600.972656 403.996094 592.460938 386.523438 573.273438 372.992188 C 537.980469 394.324219 502.324219 415.875 466.164062 437.726562 C 468.976562 461.195312 471.933594 485.929688 475.070312 512.128906 C 481.628906 508.535156 487.285156 505.488281 492.894531 502.355469 C 519.667969 487.410156 546.363281 472.324219 573.25 457.574219 C 578.609375 454.632812 584.328125 450.953125 593.308594 454.683594 C 589.285156 458.4375 586.738281 461.574219 583.53125 463.703125 C 549.457031 486.300781 515.230469 508.664062 481.210938 531.34375 C 477.640625 533.722656 474.003906 537.226562 472.394531 541.046875 C 469.78125 547.253906 465.605469 545.527344 460.433594 544.480469 C 458.230469 594.972656 456.054688 644.980469 453.785156 697.0625 C 458.59375 695.230469 462.84375 694.046875 466.695312 692.082031 C 484.894531 682.78125 502.914062 673.140625 521.128906 663.863281 C 543.476562 652.484375 565.90625 641.242188 588.433594 630.21875 C 592.71875 628.113281 597.636719 627.285156 604.15625 625.285156 C 602.996094 629.789062 603.011719 632.304688 601.804688 633.84375 C 599.53125 636.730469 596.796875 639.414062 593.808594 641.554688 C 553.324219 670.625 510.746094 696.117188 465.097656 716.308594 C 448.941406 723.457031 432.628906 723.214844 416.25 717.058594 C 360.617188 696.125 304.828125 675.582031 249.453125 653.992188 C 233.996094 647.964844 219.640625 639.007812 205.019531 630.964844 C 199.816406 628.097656 195.058594 624.125 194.472656 616.734375 C 201.136719 611.960938 206.890625 615.523438 212.621094 618.085938 C 226.183594 624.15625 239.644531 630.449219 253.265625 636.382812 C 257.914062 638.40625 262.921875 639.621094 267.789062 641.167969 C 319.996094 660.320312 372.15625 679.566406 424.414062 698.554688 C 428.953125 700.195312 434.117188 700.109375 439.292969 700.867188 C 442.816406 644.84375 446.238281 590.386719 449.722656 535.019531 C 396.496094 510.21875 338.019531 499.765625 280.859375 481.496094 C 279.5 496.308594 277.621094 510.066406 277.074219 523.890625 C 275.78125 556.359375 275.164062 588.847656 274.1875 621.335938 C 273.960938 628.675781 274.808594 636.480469 267.539062 641.546875 Z M 281.273438 473.65625 C 288.78125 473.992188 294.367188 473.664062 299.734375 474.582031 C 349.695312 483.101562 398.535156 495.824219 445.910156 513.984375 C 449.496094 515.363281 453.332031 516.113281 458.515625 517.5625 C 456.636719 490.007812 454.886719 464.304688 453.324219 441.265625 C 435.957031 434.308594 420.925781 429.449219 406.964844 422.460938 C 372.542969 405.230469 338.613281 387.015625 304.476562 369.210938 C 301.347656 367.585938 298.140625 366.101562 293.601562 363.886719 C 289.402344 401.25 285.375 437.105469 281.273438 473.664062 Z M 281.273438 473.65625 " fill-opacity="1" fill-rule="nonzero"/><path fill="#1e3d2d" d="M 793.382812 397.445312 C 792.425781 416.457031 791.925781 434.992188 790.457031 453.464844 C 787.992188 484.46875 785.019531 515.433594 782.019531 546.390625 C 780.683594 560.195312 772.589844 566.734375 759.148438 570.59375 C 735.128906 577.484375 711.167969 585.277344 688.289062 595.246094 C 669.003906 603.652344 648.933594 610.285156 630.210938 620.039062 C 628.035156 621.175781 625.152344 620.941406 622.597656 621.34375 C 622.074219 620.503906 621.539062 619.667969 621.015625 618.828125 C 624.492188 615.695312 627.570312 611.875 631.527344 609.5625 C 639.933594 604.644531 648.675781 600.277344 657.492188 596.109375 C 666.9375 591.644531 671.292969 585.382812 670.082031 574.195312 C 664.109375 518.761719 671.4375 463.773438 676.691406 408.742188 C 678.761719 387.007812 681.246094 365.320312 683.242188 343.574219 C 684.273438 332.292969 680.003906 325.78125 669.261719 321.257812 C 620.460938 300.722656 571.597656 280.347656 522.851562 259.703125 C 511.320312 254.816406 500.109375 249.160156 488.824219 243.6875 C 485.925781 242.285156 482.667969 240.769531 480.765625 238.367188 C 478.710938 235.773438 476.308594 231.339844 477.269531 229.058594 C 478.234375 226.761719 483.175781 224.972656 486.320312 225.046875 C 490.816406 225.152344 495.371094 226.859375 499.730469 228.390625 C 561.167969 249.910156 620.921875 275.464844 679.464844 303.875 C 685.289062 306.703125 690.753906 310.304688 696.460938 313.585938 C 716.214844 307.492188 768.488281 281.019531 777.585938 271.6875 C 767.511719 266.859375 758.339844 261.449219 748.492188 257.953125 C 721.371094 248.320312 693.929688 239.625 666.714844 230.261719 C 657.519531 227.101562 648.417969 223.480469 639.707031 219.195312 C 635.710938 217.226562 632.742188 213.148438 627.753906 208.621094 C 632.011719 208.046875 633.445312 207.417969 634.597656 207.757812 C 669.308594 217.976562 704.101562 227.964844 738.636719 238.769531 C 751.425781 242.769531 763.894531 248.113281 775.96875 253.964844 C 789.457031 260.507812 796.519531 272.007812 798.148438 287.09375 C 801.191406 315.261719 804.320312 343.421875 808.035156 371.507812 C 809.695312 384.035156 807.777344 393.761719 793.382812 397.460938 Z M 692.480469 431.535156 C 685.933594 479.820312 681.269531 528.355469 680.945312 576.558594 C 707.484375 568.410156 732.597656 560.617188 757.769531 553.046875 C 762.371094 551.667969 764.835938 549.171875 765.480469 544.457031 C 766.046875 540.332031 767.253906 536.285156 767.730469 532.15625 C 770.429688 508.671875 773.257812 485.195312 775.53125 461.671875 C 777.523438 441.09375 778.835938 420.453125 780.542969 398.515625 C 748.9375 404.980469 720.339844 416.289062 692.480469 431.542969 Z M 786.832031 287.054688 C 757.648438 300.402344 729.230469 313.394531 702.015625 325.835938 C 699.636719 355.816406 697.378906 384.257812 694.953125 414.894531 C 725.789062 395.210938 758.082031 385.050781 793.382812 381.617188 C 791.160156 349.5625 789.007812 318.453125 786.832031 287.054688 Z M 786.832031 287.054688 " fill-opacity="1" fill-rule="nonzero"/></svg>