<svg xmlns="http://www.w3.org/2000/svg" xmlns:xlink="http://www.w3.org/1999/xlink" width="1080" zoomAndPan="magnify" viewBox="0 0 810 809.999993" height="1080" preserveAspectRatio="xMidYMid meet" version="1.0"><defs><clipPath id="1a477ab6b2"><path d="M 118.460938 0 L 691.460938 0 L 691.460938 810 L 118.460938 810 Z M 118.460938 0 " clip-rule="nonzero"/></clipPath></defs><g clip-path="url(#1a477ab6b2)"><path fill="#053827" d="M 404.996094 0.667969 C 247.003906 0.667969 118.460938 129.207031 118.460938 287.203125 C 118.460938 440.847656 382.984375 781.472656 394.238281 795.898438 L 404.996094 809.679688 L 415.757812 795.898438 C 427.011719 781.472656 691.53125 440.847656 691.53125 287.203125 C 691.53125 129.207031 562.992188 0.667969 404.996094 0.667969 Z M 404.996094 164.402344 C 472.710938 164.402344 527.796875 219.488281 527.796875 287.203125 C 527.796875 354.914062 472.710938 410.003906 404.996094 410.003906 C 337.285156 410.003906 282.195312 354.914062 282.195312 287.203125 C 282.195312 219.488281 337.285156 164.402344 404.996094 164.402344 Z M 404.996094 164.402344 " fill-opacity="1" fill-rule="nonzero"/></g></svg>